<mxfile host="app.diagrams.net" modified="2022-07-22T21:19:13.921Z" agent="5.0 (Windows NT 10.0; Win64; x64) AppleWebKit/537.36 (KHTML, like Gecko) Chrome/103.0.0.0 Safari/537.36" etag="NbHuoC7vnjStz2CiAlxX" version="20.1.1" type="github">
  <diagram id="6a731a19-8d31-9384-78a2-239565b7b9f0" name="Page-1">
    <mxGraphModel dx="782" dy="411" grid="1" gridSize="10" guides="1" tooltips="1" connect="1" arrows="1" fold="1" page="1" pageScale="1" pageWidth="1169" pageHeight="827" background="#003469" math="0" shadow="0">
      <root>
        <mxCell id="0" />
        <mxCell id="1" parent="0" />
        <mxCell id="2019" value="" style="rounded=1;whiteSpace=wrap;html=1;dashed=1;strokeColor=none;strokeWidth=2;fillColor=#E6E6E6;fontFamily=Verdana;fontSize=12;fontColor=#00BEF2" parent="1" vertex="1">
          <mxGeometry x="40" y="120" width="165" height="670" as="geometry" />
        </mxCell>
        <mxCell id="2020" value="" style="rounded=1;whiteSpace=wrap;html=1;dashed=1;strokeColor=none;strokeWidth=2;fillColor=#E6E6E6;fontFamily=Verdana;fontSize=12;fontColor=#00BEF2" parent="1" vertex="1">
          <mxGeometry x="220" y="120" width="165" height="670" as="geometry" />
        </mxCell>
        <mxCell id="2021" value="" style="rounded=1;whiteSpace=wrap;html=1;dashed=1;strokeColor=none;strokeWidth=2;fillColor=#E6E6E6;fontFamily=Verdana;fontSize=12;fontColor=#00BEF2" parent="1" vertex="1">
          <mxGeometry x="400" y="120" width="165" height="670" as="geometry" />
        </mxCell>
        <mxCell id="2022" value="" style="rounded=1;whiteSpace=wrap;html=1;dashed=1;strokeColor=none;strokeWidth=2;fillColor=#E6E6E6;fontFamily=Verdana;fontSize=12;fontColor=#00BEF2" parent="1" vertex="1">
          <mxGeometry x="580" y="120" width="165" height="670" as="geometry" />
        </mxCell>
        <mxCell id="2023" value="" style="rounded=1;whiteSpace=wrap;html=1;dashed=1;strokeColor=none;strokeWidth=2;fillColor=#E6E6E6;fontFamily=Verdana;fontSize=12;fontColor=#00BEF2" parent="1" vertex="1">
          <mxGeometry x="760" y="120" width="165" height="670" as="geometry" />
        </mxCell>
        <mxCell id="2024" value="" style="rounded=1;whiteSpace=wrap;html=1;dashed=1;strokeColor=none;strokeWidth=2;fillColor=#E6E6E6;fontFamily=Verdana;fontSize=12;fontColor=#00BEF2" parent="1" vertex="1">
          <mxGeometry x="940" y="120" width="165" height="670" as="geometry" />
        </mxCell>
        <mxCell id="2025" value="Nivel 0-1&lt;br&gt;&lt;font style=&quot;font-size: 10px;&quot;&gt;Captura de datos desde PC&lt;/font&gt;" style="whiteSpace=wrap;html=1;dashed=1;strokeColor=none;strokeWidth=2;fillColor=#3399FF;fontFamily=Helvetica;fontSize=18;fontColor=#FFFFFF;fontStyle=1" parent="1" vertex="1">
          <mxGeometry x="40" y="120" width="165" height="60" as="geometry" />
        </mxCell>
        <mxCell id="2026" value="Nivel 2" style="whiteSpace=wrap;html=1;dashed=1;strokeColor=none;strokeWidth=2;fillColor=#3399FF;fontFamily=Helvetica;fontSize=18;fontColor=#FFFFFF;fontStyle=1" parent="1" vertex="1">
          <mxGeometry x="220" y="120" width="165" height="60" as="geometry" />
        </mxCell>
        <mxCell id="2027" value="Data&lt;div&gt;Services&lt;/div&gt;" style="whiteSpace=wrap;html=1;dashed=1;strokeColor=none;strokeWidth=2;fillColor=#3399FF;fontFamily=Helvetica;fontSize=18;fontColor=#FFFFFF;fontStyle=1" parent="1" vertex="1">
          <mxGeometry x="400" y="120" width="165" height="60" as="geometry" />
        </mxCell>
        <mxCell id="2028" value="Data&lt;div&gt;Storage&lt;/div&gt;" style="whiteSpace=wrap;html=1;dashed=1;strokeColor=none;strokeWidth=2;fillColor=#3399FF;fontFamily=Helvetica;fontSize=18;fontColor=#FFFFFF;fontStyle=1" parent="1" vertex="1">
          <mxGeometry x="580" y="120" width="165" height="60" as="geometry" />
        </mxCell>
        <mxCell id="2029" value="App&lt;div&gt;Services&lt;/div&gt;" style="whiteSpace=wrap;html=1;dashed=1;strokeColor=none;strokeWidth=2;fillColor=#3399FF;fontFamily=Helvetica;fontSize=18;fontColor=#FFFFFF;fontStyle=1" parent="1" vertex="1">
          <mxGeometry x="760" y="120" width="165" height="60" as="geometry" />
        </mxCell>
        <mxCell id="2030" value="&amp;nbsp; &amp;nbsp;Presentation" style="whiteSpace=wrap;html=1;dashed=1;strokeColor=none;strokeWidth=2;fillColor=#3399FF;fontFamily=Helvetica;fontSize=18;fontColor=#FFFFFF;fontStyle=1" parent="1" vertex="1">
          <mxGeometry x="940" y="120" width="165" height="60" as="geometry" />
        </mxCell>
        <mxCell id="2031" value="" style="shape=mxgraph.arrows.two_way_arrow_horizontal;html=1;verticalLabelPosition=bottom;verticalAlign=top;strokeWidth=2;strokeColor=none;dashed=1;fillColor=#FFFFFF;fontFamily=Verdana;fontSize=12;fontColor=#00BEF2" parent="1" vertex="1">
          <mxGeometry x="180" y="131" width="67" height="39" as="geometry" />
        </mxCell>
        <mxCell id="2032" value="" style="shape=mxgraph.arrows.two_way_arrow_horizontal;html=1;verticalLabelPosition=bottom;verticalAlign=top;strokeWidth=2;strokeColor=none;dashed=1;fillColor=#FFFFFF;fontFamily=Verdana;fontSize=12;fontColor=#00BEF2" parent="1" vertex="1">
          <mxGeometry x="360" y="131" width="67" height="39" as="geometry" />
        </mxCell>
        <mxCell id="2033" value="" style="shape=mxgraph.arrows.two_way_arrow_horizontal;html=1;verticalLabelPosition=bottom;verticalAlign=top;strokeWidth=2;strokeColor=none;dashed=1;fillColor=#FFFFFF;fontFamily=Verdana;fontSize=12;fontColor=#00BEF2" parent="1" vertex="1">
          <mxGeometry x="540" y="131" width="67" height="39" as="geometry" />
        </mxCell>
        <mxCell id="2034" value="" style="shape=mxgraph.arrows.two_way_arrow_horizontal;html=1;verticalLabelPosition=bottom;verticalAlign=top;strokeWidth=2;strokeColor=none;dashed=1;fillColor=#FFFFFF;fontFamily=Verdana;fontSize=12;fontColor=#00BEF2" parent="1" vertex="1">
          <mxGeometry x="720" y="131" width="67" height="39" as="geometry" />
        </mxCell>
        <mxCell id="2035" value="" style="shape=mxgraph.arrows.two_way_arrow_horizontal;html=1;verticalLabelPosition=bottom;verticalAlign=top;strokeWidth=2;strokeColor=none;dashed=1;fillColor=#FFFFFF;fontFamily=Verdana;fontSize=12;fontColor=#00BEF2" parent="1" vertex="1">
          <mxGeometry x="900" y="131" width="67" height="39" as="geometry" />
        </mxCell>
        <mxCell id="2036" value="" style="verticalLabelPosition=bottom;html=1;verticalAlign=top;strokeColor=none;fillColor=#003366;shape=mxgraph.azure.cloud_service;dashed=1;fontFamily=Helvetica;fontSize=18;fontColor=#FFFFFF;opacity=25" parent="1" vertex="1">
          <mxGeometry x="90" y="180" width="970" height="600" as="geometry" />
        </mxCell>
        <mxCell id="2044" value="Hardware" style="text;html=1;strokeColor=none;fillColor=none;align=center;verticalAlign=middle;whiteSpace=wrap;overflow=hidden;dashed=1;fontSize=14;fontColor=#004C99" parent="1" vertex="1">
          <mxGeometry x="60" y="710" width="120" height="20" as="geometry" />
        </mxCell>
        <mxCell id="2045" value="Azure Website" style="verticalLabelPosition=bottom;html=1;verticalAlign=top;strokeColor=none;fillColor=#3399FF;shape=mxgraph.azure.azure_website;dashed=1;fontSize=14;fontColor=#004C99" parent="1" vertex="1">
          <mxGeometry x="278" y="258" width="50" height="50" as="geometry" />
        </mxCell>
        <mxCell id="2046" value="Mobile Services" style="verticalLabelPosition=bottom;html=1;verticalAlign=top;strokeColor=none;fillColor=#3399FF;shape=mxgraph.azure.mobile_services;dashed=1;fontSize=14;fontColor=#004C99" parent="1" vertex="1">
          <mxGeometry x="287" y="661" width="32.5" height="50" as="geometry" />
        </mxCell>
        <mxCell id="2047" value="Windows Azure Management Portal" style="text;html=1;strokeColor=none;fillColor=none;align=center;verticalAlign=middle;whiteSpace=wrap;overflow=hidden;dashed=1;fontSize=36;fontColor=#FFFFFF;fontFamily=Helvetica;fontStyle=1" parent="1" vertex="1">
          <mxGeometry x="40" y="50" width="1060" height="50" as="geometry" />
        </mxCell>
        <mxCell id="2048" value="Business&amp;nbsp;&lt;div&gt;Analytics&lt;/div&gt;" style="rounded=1;whiteSpace=wrap;html=1;dashed=1;strokeColor=none;strokeWidth=2;fillColor=#FFFFFF;fontFamily=Helvetica;fontSize=14;fontColor=#FFB366;opacity=75;verticalAlign=top;fontStyle=1" parent="1" vertex="1">
          <mxGeometry x="410" y="190" width="140" height="260" as="geometry" />
        </mxCell>
        <mxCell id="2049" value="Data&lt;div&gt;Management&lt;/div&gt;" style="rounded=1;whiteSpace=wrap;html=1;dashed=1;strokeColor=none;strokeWidth=2;fillColor=#FFFFFF;fontFamily=Helvetica;fontSize=14;fontColor=#FFB366;opacity=75;verticalAlign=top;fontStyle=1" parent="1" vertex="1">
          <mxGeometry x="413" y="460" width="140" height="320" as="geometry" />
        </mxCell>
        <mxCell id="2050" value="SQL Reporting" style="verticalLabelPosition=bottom;html=1;verticalAlign=top;strokeColor=none;fillColor=#3399FF;shape=mxgraph.azure.sql_reporting;dashed=1;fontSize=14;fontColor=#004C99" parent="1" vertex="1">
          <mxGeometry x="460" y="258" width="40" height="50" as="geometry" />
        </mxCell>
        <mxCell id="2051" value="HDInsight" style="verticalLabelPosition=bottom;html=1;verticalAlign=top;strokeColor=none;fillColor=#3399FF;shape=mxgraph.azure.hdinsight;dashed=1;fontSize=14;fontColor=#004C99" parent="1" vertex="1">
          <mxGeometry x="458" y="355" width="50" height="50" as="geometry" />
        </mxCell>
        <mxCell id="2052" value="SQL Database" style="verticalLabelPosition=bottom;html=1;verticalAlign=top;strokeColor=none;fillColor=#3399FF;shape=mxgraph.azure.sql_database;dashed=1;fontFamily=Helvetica;fontSize=14;fontColor=#004C99" parent="1" vertex="1">
          <mxGeometry x="464" y="600" width="37.5" height="50" as="geometry" />
        </mxCell>
        <mxCell id="2053" value="Tables" style="verticalLabelPosition=bottom;html=1;verticalAlign=top;strokeColor=none;fillColor=#3399FF;shape=mxgraph.azure.storage_table;dashed=1;fontFamily=Helvetica;fontSize=14;fontColor=#004C99" parent="1" vertex="1">
          <mxGeometry x="458" y="689" width="50" height="45" as="geometry" />
        </mxCell>
        <mxCell id="2054" value="Blobs" style="verticalLabelPosition=bottom;html=1;verticalAlign=top;strokeColor=none;fillColor=#3399FF;shape=mxgraph.azure.storage_blob;dashed=1;fontFamily=Helvetica;fontSize=14;fontColor=#004C99" parent="1" vertex="1">
          <mxGeometry x="457" y="523" width="50" height="45" as="geometry" />
        </mxCell>
        <mxCell id="2055" value="Storage Management" style="rounded=1;whiteSpace=wrap;html=1;dashed=1;strokeColor=none;strokeWidth=2;fillColor=#FFFFFF;fontFamily=Helvetica;fontSize=14;fontColor=#FFB366;opacity=75;verticalAlign=top;fontStyle=1" parent="1" vertex="1">
          <mxGeometry x="594" y="240" width="140" height="280" as="geometry" />
        </mxCell>
        <mxCell id="2056" value="Storage Servers" style="verticalLabelPosition=bottom;html=1;verticalAlign=top;strokeColor=none;fillColor=#3399FF;shape=mxgraph.azure.server_rack;dashed=1;fontFamily=Helvetica;fontSize=14;fontColor=#004C99" parent="1" vertex="1">
          <mxGeometry x="639" y="316" width="50" height="50" as="geometry" />
        </mxCell>
        <mxCell id="2057" value="Database" style="verticalLabelPosition=bottom;html=1;verticalAlign=top;strokeColor=none;fillColor=#3399FF;shape=mxgraph.azure.database;dashed=1;fontFamily=Helvetica;fontSize=14;fontColor=#004C99" parent="1" vertex="1">
          <mxGeometry x="644" y="414" width="37.5" height="50" as="geometry" />
        </mxCell>
        <mxCell id="2058" value="Physical&lt;div&gt;Data Storage&lt;/div&gt;" style="verticalLabelPosition=bottom;html=1;verticalAlign=top;strokeColor=none;fillColor=#3399FF;shape=mxgraph.azure.vhd;dashed=1;fontFamily=Helvetica;fontSize=14;fontColor=#004C99" parent="1" vertex="1">
          <mxGeometry x="643" y="590" width="40" height="50" as="geometry" />
        </mxCell>
        <mxCell id="2059" value="Identity" style="rounded=1;whiteSpace=wrap;html=1;dashed=1;strokeColor=none;strokeWidth=2;fillColor=#FFFFFF;fontFamily=Helvetica;fontSize=14;fontColor=#FFB366;opacity=75;verticalAlign=top;fontStyle=1" parent="1" vertex="1">
          <mxGeometry x="773" y="196" width="140" height="134" as="geometry" />
        </mxCell>
        <mxCell id="2060" value="Windows Azure&amp;nbsp;&lt;div&gt;Active Directorry&lt;/div&gt;" style="verticalLabelPosition=bottom;html=1;verticalAlign=top;strokeColor=none;fillColor=#3399FF;shape=mxgraph.azure.azure_active_directory;dashed=1;fontFamily=Helvetica;fontSize=14;fontColor=#004C99" parent="1" vertex="1">
          <mxGeometry x="819" y="225" width="47.5" height="50" as="geometry" />
        </mxCell>
        <mxCell id="2061" value="Performance" style="rounded=1;whiteSpace=wrap;html=1;dashed=1;strokeColor=none;strokeWidth=2;fillColor=#FFFFFF;fontFamily=Helvetica;fontSize=14;fontColor=#FFB366;opacity=75;verticalAlign=top;fontStyle=1" parent="1" vertex="1">
          <mxGeometry x="774" y="341" width="140" height="199" as="geometry" />
        </mxCell>
        <mxCell id="2062" value="Caching" style="verticalLabelPosition=bottom;html=1;verticalAlign=top;strokeColor=none;fillColor=#3399FF;shape=mxgraph.azure.azure_cache;dashed=1;fontFamily=Helvetica;fontSize=14;fontColor=#004C99" parent="1" vertex="1">
          <mxGeometry x="821" y="376" width="45" height="50" as="geometry" />
        </mxCell>
        <mxCell id="2063" value="Content&amp;nbsp;&lt;div&gt;Delivery Network&lt;/div&gt;" style="verticalLabelPosition=bottom;html=1;verticalAlign=top;strokeColor=none;fillColor=#3399FF;shape=mxgraph.azure.content_delivery_network;dashed=1;fontFamily=Helvetica;fontSize=14;fontColor=#004C99" parent="1" vertex="1">
          <mxGeometry x="819" y="455" width="50" height="32.5" as="geometry" />
        </mxCell>
        <mxCell id="2064" value="Messaging" style="rounded=1;whiteSpace=wrap;html=1;dashed=1;strokeColor=none;strokeWidth=2;fillColor=#FFFFFF;fontFamily=Helvetica;fontSize=14;fontColor=#FFB366;opacity=75;verticalAlign=top;fontStyle=1" parent="1" vertex="1">
          <mxGeometry x="773" y="550" width="140" height="229" as="geometry" />
        </mxCell>
        <mxCell id="2065" value="Queues" style="verticalLabelPosition=bottom;html=1;verticalAlign=top;strokeColor=none;fillColor=#3399FF;shape=mxgraph.azure.queue_generic;dashed=1;fontFamily=Helvetica;fontSize=14;fontColor=#004C99" parent="1" vertex="1">
          <mxGeometry x="820" y="576" width="50" height="15" as="geometry" />
        </mxCell>
        <mxCell id="2066" value="Service Bus" style="verticalLabelPosition=bottom;html=1;verticalAlign=top;strokeColor=none;fillColor=#3399FF;shape=mxgraph.azure.service_bus;dashed=1;fontFamily=Helvetica;fontSize=14;fontColor=#004C99" parent="1" vertex="1">
          <mxGeometry x="824" y="624" width="45" height="50" as="geometry" />
        </mxCell>
        <mxCell id="2067" value="Media Services" style="verticalLabelPosition=bottom;html=1;verticalAlign=top;strokeColor=none;fillColor=#3399FF;shape=mxgraph.azure.media_service;dashed=1;fontFamily=Helvetica;fontSize=14;fontColor=#004C99" parent="1" vertex="1">
          <mxGeometry x="821" y="703" width="45" height="50" as="geometry" />
        </mxCell>
        <mxCell id="2068" value="Cloud&lt;div&gt;Services&lt;/div&gt;" style="rounded=1;whiteSpace=wrap;html=1;dashed=1;strokeColor=none;strokeWidth=2;fillColor=#FFFFFF;fontFamily=Helvetica;fontSize=14;fontColor=#FFB366;opacity=75;verticalAlign=top;fontStyle=1" parent="1" vertex="1">
          <mxGeometry x="233" y="397" width="140" height="223" as="geometry" />
        </mxCell>
        <mxCell id="2069" value="Cloud" style="verticalLabelPosition=bottom;html=1;verticalAlign=top;strokeColor=none;fillColor=#3399FF;shape=mxgraph.azure.cloud;dashed=1;fontSize=14;fontColor=#004C99" parent="1" vertex="1">
          <mxGeometry x="278" y="449" width="50" height="32.5" as="geometry" />
        </mxCell>
        <mxCell id="2070" value="Virtual Machine" style="verticalLabelPosition=bottom;html=1;verticalAlign=top;strokeColor=none;fillColor=#3399FF;shape=mxgraph.azure.virtual_machine;dashed=1;fontSize=14;fontColor=#004C99" parent="1" vertex="1">
          <mxGeometry x="278" y="536" width="50" height="40" as="geometry" />
        </mxCell>
        <mxCell id="2071" value="Web Dashboards" style="verticalLabelPosition=bottom;html=1;verticalAlign=top;strokeColor=none;fillColor=#3399FF;shape=mxgraph.azure.laptop;dashed=1;fontFamily=Helvetica;fontSize=14;fontColor=#004C99" parent="1" vertex="1">
          <mxGeometry x="998" y="301" width="50" height="30" as="geometry" />
        </mxCell>
        <mxCell id="2072" value="Certificates" style="verticalLabelPosition=bottom;html=1;verticalAlign=top;strokeColor=none;fillColor=#3399FF;shape=mxgraph.azure.certificate;dashed=1;fontFamily=Helvetica;fontSize=14;fontColor=#004C99" parent="1" vertex="1">
          <mxGeometry x="998" y="399" width="50" height="40" as="geometry" />
        </mxCell>
        <mxCell id="2073" value="Enterprise&lt;div&gt;Services&lt;/div&gt;" style="verticalLabelPosition=bottom;html=1;verticalAlign=top;strokeColor=none;fillColor=#3399FF;shape=mxgraph.azure.enterprise;dashed=1;fontFamily=Helvetica;fontSize=14;fontColor=#004C99" parent="1" vertex="1">
          <mxGeometry x="1008" y="518" width="30" height="50" as="geometry" />
        </mxCell>
        <mxCell id="2074" value="Seminars" style="verticalLabelPosition=bottom;html=1;verticalAlign=top;strokeColor=none;fillColor=#3399FF;shape=mxgraph.azure.user;dashed=1;fontFamily=Helvetica;fontSize=14;fontColor=#004C99" parent="1" vertex="1">
          <mxGeometry x="1001" y="630" width="47.5" height="50" as="geometry" />
        </mxCell>
        <mxCell id="2075" value="" style="arrow;html=1;endArrow=block;endFill=1;strokeColor=none;strokeWidth=4;fontFamily=Helvetica;fontSize=36;fontColor=#FFB366;fillColor=#FFB366;" parent="1" edge="1">
          <mxGeometry width="100" height="100" relative="1" as="geometry">
            <mxPoint x="182.5" y="376" as="sourcePoint" />
            <mxPoint x="262.5" y="376" as="targetPoint" />
          </mxGeometry>
        </mxCell>
        <mxCell id="2076" value="" style="arrow;html=1;endArrow=block;endFill=1;strokeColor=none;strokeWidth=4;fontFamily=Helvetica;fontSize=36;fontColor=#FFB366;fillColor=#FFB366;opacity=100" parent="1" edge="1">
          <mxGeometry width="100" height="100" relative="1" as="geometry">
            <mxPoint x="347" y="283" as="sourcePoint" />
            <mxPoint x="427" y="283" as="targetPoint" />
          </mxGeometry>
        </mxCell>
        <mxCell id="2077" value="" style="arrow;html=1;endArrow=block;endFill=1;strokeColor=none;strokeWidth=4;fontFamily=Helvetica;fontSize=36;fontColor=#FFB366;fillColor=#FFB366;" parent="1" edge="1">
          <mxGeometry width="100" height="100" relative="1" as="geometry">
            <mxPoint x="527" y="360" as="sourcePoint" />
            <mxPoint x="607" y="360" as="targetPoint" />
          </mxGeometry>
        </mxCell>
        <mxCell id="2078" value="" style="arrow;html=1;endArrow=block;endFill=1;strokeColor=none;strokeWidth=4;fontFamily=Helvetica;fontSize=36;fontColor=#FFB366;fillColor=#FFB366;" parent="1" edge="1">
          <mxGeometry width="100" height="100" relative="1" as="geometry">
            <mxPoint x="714" y="426" as="sourcePoint" />
            <mxPoint x="794" y="426" as="targetPoint" />
          </mxGeometry>
        </mxCell>
        <mxCell id="2079" value="" style="arrow;html=1;endArrow=block;endFill=1;strokeColor=none;strokeWidth=4;fontFamily=Helvetica;fontSize=36;fontColor=#FFB366;fillColor=#FFB366;" parent="1" edge="1">
          <mxGeometry width="100" height="100" relative="1" as="geometry">
            <mxPoint x="714" y="270" as="sourcePoint" />
            <mxPoint x="794" y="270" as="targetPoint" />
          </mxGeometry>
        </mxCell>
        <mxCell id="2080" value="" style="arrow;html=1;endArrow=block;endFill=1;strokeColor=none;strokeWidth=4;fontFamily=Helvetica;fontSize=36;fontColor=#FFB366;fillColor=#FFB366;" parent="1" edge="1">
          <mxGeometry width="100" height="100" relative="1" as="geometry">
            <mxPoint x="887" y="438" as="sourcePoint" />
            <mxPoint x="967" y="438" as="targetPoint" />
          </mxGeometry>
        </mxCell>
        <mxCell id="2081" value="" style="arrow;html=1;endArrow=block;endFill=1;strokeColor=none;strokeWidth=4;fontFamily=Helvetica;fontSize=36;fontColor=#FFB366;fillColor=#FFB366;" parent="1" edge="1">
          <mxGeometry width="100" height="100" relative="1" as="geometry">
            <mxPoint x="894" y="664" as="sourcePoint" />
            <mxPoint x="974" y="664" as="targetPoint" />
          </mxGeometry>
        </mxCell>
        <mxCell id="2082" value="" style="arrow;html=1;endArrow=block;endFill=1;strokeColor=none;strokeWidth=4;fontFamily=Helvetica;fontSize=36;fontColor=#FFB366;fillColor=#FFB366;" parent="1" edge="1">
          <mxGeometry width="100" height="100" relative="1" as="geometry">
            <mxPoint x="707" y="639" as="sourcePoint" />
            <mxPoint x="787" y="639" as="targetPoint" />
          </mxGeometry>
        </mxCell>
        <mxCell id="2083" value="" style="arrow;html=1;endArrow=block;endFill=1;strokeColor=none;strokeWidth=4;fontFamily=Helvetica;fontSize=36;fontColor=#FFB366;fillColor=#FFB366;" parent="1" edge="1">
          <mxGeometry width="100" height="100" relative="1" as="geometry">
            <mxPoint x="534" y="624" as="sourcePoint" />
            <mxPoint x="614" y="624" as="targetPoint" />
          </mxGeometry>
        </mxCell>
        <mxCell id="2084" value="" style="arrow;html=1;endArrow=block;endFill=1;strokeColor=none;strokeWidth=4;fontFamily=Helvetica;fontSize=36;fontColor=#FFB366;fillColor=#FFB366;" parent="1" edge="1">
          <mxGeometry width="100" height="100" relative="1" as="geometry">
            <mxPoint x="347" y="536" as="sourcePoint" />
            <mxPoint x="427" y="536" as="targetPoint" />
          </mxGeometry>
        </mxCell>
        <mxCell id="2085" value="" style="arrow;html=1;endArrow=block;endFill=1;strokeColor=none;strokeWidth=4;fontFamily=Helvetica;fontSize=36;fontColor=#FFB366;fillColor=#FFB366;" parent="1" edge="1">
          <mxGeometry width="100" height="100" relative="1" as="geometry">
            <mxPoint x="173.5" y="703" as="sourcePoint" />
            <mxPoint x="253.5" y="703" as="targetPoint" />
          </mxGeometry>
        </mxCell>
        <mxCell id="kSHrFHT4jz19YnqHGzNB-2085" value="" style="shape=image;verticalLabelPosition=bottom;labelBackgroundColor=default;verticalAlign=top;aspect=fixed;imageAspect=0;image=data:image/png,iVBORw0KGgoAAAANSUhEUgAAASIAAADHCAMAAACKnq4BAAAABGdBTUEAALGPC/xhBQAAAAFzUkdCAK7OHOkAAAAZdEVYdFNvZnR3YXJlAEFkb2JlIEltYWdlUmVhZHlxyWU8AAADAFBMVEVMaXEAhMsAhMsAhMsAhMsAhMsAhMsAhMsAhMsAhMsAhMsAhMsAhMsAhMsAhMuSyD5vvkSkzTlvvkRvvkRvvkRvv0SkzTlMuUdwv0MAhMtvv0RBt0mUyT1wvkOSyD7e6qpuv0Tg67BvvkSUyT3g67CSyD6SyD6SyD5uv0M/t0nQ4opYvEakzTk+tkl/wz85tUrQ4oqSyD7g67DQ4org67Dg67B0wkLg67CSyD5vvkRvvkRTu0ZcvUU5tUpjvkTg67CSyD6SyD6ZyjxFuEhPukdIuUhevUVqwEOjzTng67Dg67CSyD5YvEZNuUc+tklAt0k8tkmkzTlHuEhcvUWRxzyOxz5IuUhIuEdXvEWkzTmDxUBmv0RfvkRGuEiCwj7g67CkzTnQ4orQ4ooAhMvQ4orY552kzTnY553Q4opMuUd4w0FUu0Y+tklkvkRUu0ZZvEWDvjh6wT9VqjiBxD85tUqCxUCkzTng67DQ4ooAhMvQ4ooAhMucyTmKxj+Jxj9ZvEaNxz9YvEZttDh0wkKOxz+kzTlov0Rqszhnv0Rwv0E5tUpqv0Nov0SBxEA8njgQjLgEhsZhvkS21ltJuUdRrD1GrUAAhMtvvkSkzTmSyD7g67DQ4opKuUhZvEZivkRVu0ZevUVEuEhbvEVov0RBt0lswENUu0ZYvEZdvUVSukdXu0ZhvUU/tklHuEhfvUVRukdkvkRxwUJlvkRPukd2wkJrwENnv0ROuUdIuEhuwENNuUdqv0NywUJvwUN7w0E5tUqAxEB0wkJ1wkJ4wkGExUCJxj+CxUB6w0F+xEF8w0FQukeGxkAbkqo8tkqNxz9KpTgwmTg7tUpbrDhpsziEvzlQpzhfrjiHwDmIxj8SizdBoTiNwzl3uThxtjhutThWqjiZyDk6njhFojggkjeeyzkmlTcIhzc2nDhmsThjsDiWxzmAvTmQxTmhzDkZjzcrlziQyD6KwTl8uzlTqjmTxTmbyTl6ujh0uDg9oDiLxz9gtT9htDxWrz1bsT1tuT2MxTxqlg7NAAAAlnRSTlMA0CDggBAwQMDwYKCQcFBAIIDgoPBAQBAQsMBAEGCgEIAgcCDQwDDwMODAIKBgwcBA0PCA4EDAwLBQsKDAgMCg4IBwcPDwoMBggJCQgIDwIKAw0EBgUIAwkMCFYGDA4mDQYPD3UDCQcCCQgMCw4FDgoNxgq1DwsFDg3KD7oMBw8NDwYODw8PCg8POQ8NBwYODIOBDY//hymLVuAAAOLklEQVR42uyceXwU5RnHZ3dmdmb2SkgIISchIQkYoAWBICDIJYeAFFELFK1a633V2vu+7/aPftYkHJ4IFCmIaKVNLWBoQVugKKgIVi4vpFaLrfenc+3s+77zXhNC2519f39AmOy7O/Od5/09zzzvu0iSkJCQkJCQkJCQkJCQkJCQkFAI1G9AxwRBgaqrOjo6+gsM5ABqnTncRDRixggRSliN7AAleGDUHyQ0QvAwdeYZrj7lHmi14Qyw/5wh+EjSl5Z4chh93kIzoZ/U34I0Qni2dHWO0JIvWGY9wptfzowThv1RANESz6yd+TVAGDYOUX8r3Xe02tnf8SSBCEEk9Z9hgbnU/GmC+ffwS/sJRCgid361zrRNaaZwawyifsOBuqg136/v/KqqnkcUouq6au7UR5Yu/e28yeU9i8g07OFOLmvNb7Muv/6uu9ZaiH7z4JQbT+Wh9fIcoTPcJ5CR/aSZJqGR9k95q4vn3OshWrf646fwTpd5hC6/Mnf0yuH5nu1NQiCi+06F0dVXnWnrMihi8jqALJuecz+M6I4bJSFI8+5HEd1ULqiAOvsvPkS/mtVzb/+xPrYa8jmZzcEg+ma3w6i2vXk+COiTba4WVOctosl/xSBa2d0wamhvb28E/u0Ramv7XN4iGoRF9PXgYVQ9unFS02gTUfvEhtrG85wgagOUt+nsD1hEy4In/vPaIRVZx/qEAdFnCYjubmHETJEr70hjWBGdTUJ0Lm1UE8Cjsck5VgQROqc6/IhWUcKoqRmk0VztObWJZmKt/cthUgEgooTRaHhO1dpBNDr7Y/Uw66f5TeFHdCc5jL6z8x+e3Cxf68QQOOWKQoJoMhnROOKgrq6uJ0w9Y2qbqa+ah1xfcn7v/aMhDIiqyIh+fQFp0I4dO7a72mxqqHnInlyuAzmu1G6VRgtyhD6dt6UjBdF40pjOzi1btmzdunWjo1GWg9ee46V6e9INm2jXBoM9Qvn7AHI9GdEaUhg9ZGmFrU2mKu2DF9rZbVKDU2E35y8R/0yjICKF0Zo1y22tX79+w4YNDzsvq4ayXGOYmiGDyIiWL8IPWblymaW7ba1aNU7ypldOTSFCNISC6Ab8kAcfN7Vu3brVq1ffZ+o6XLFUFKowIiNajw+jtaYesbXU0uKsFw1zqyOzwG5uCBOiIRREN5CgOrrX1mL3saSo2q4azczfUFQtSeEKIyKiDYvwJTmkIcCvmp16KGwaQkH0g764EXNBQnOhtuPESVIYNYiM6OE6fJtp7kdc/ahKKgQNoSD6Xl9JyA4jIqJ76rjeIduELGoKbRiREf24mDm8GiwbmyeGNIzIiH5XCr90Ui9PfdxD39gJqTacYURB9BAURoPBFtBg+9DXtiEqCmkYkRGVkgi1tdlxNLQL0cKQhhEZ0YpiEqG2XjaizYhuDakbURBVkgi5iB5FNDSciCZTEG0qIxByEI3aiGhUOBGVT6UgcsLoKycIiB5AFFJE0kUURL+3wujmky8cxSKatgLRNCmsYURBZMbFzceffu3Vo1hE9yAKKyLpIgqiB2q+f/DA8aefO/nWCT+i8csRjZfCG0ZkRD/c9+TzB9586o3X4MlmIxp3J6JxUnjDiIyo8719Lz9/8F9mIL36lg/RMkThRVQ+lYJo09/2vPLkQTOQnjv5wgkY0XV3IJoVWkTSbAqiLe/t3WMG0r/fPP4G4No2osmPI7ogvIjKp1AQde7a6wQS6No2ovJ5SyGNDXNrbTYF0dYPDu/65x7EtZ1H/fLFawFdE+ruY/kUCqLO/fvNQLImW861v+sOPL/KU9h3/s+mINr4/qH9h/cirt1LKjSVT6EgeuzQS28f3uW69lOua08qOEazaYg+2P3Sof2uazuTzQykBdOt73gUVBhREP1p9+u7zclmuvYrSK09vZDC6BoaovePHDMD6TDo2kcLjpDUQkP06LEjx6xA8kokx7WnF5gbjaUhevfZvx95fbfl2naJ5Lh2oRGSWmiIduw2GR1zXXvfy7Zrzy+4nCaNpSF67FmLUc61Dx6oKTxCUgsN0fZ3X3zRCSS3RPqWVIgaS0O0/ZcOI9e1P1OQhKQWKqLNFqOsaxcoITOMqIj+2HnEnWz7f1aohKQWOqKurg/fNmNo14dDpcLVWAaiJ57Z9s47OwuZkNTCg+gSqaA1i43okurCRlR+EwtRoROSpIsZiG4peEKS9AkqolsFIFPnUhAtFHgcRiREt10o4GQZ4RENbRBocn6EQXTbTwUXUAPHo4gWiq+EoFr0EwDRLdcKQNhIqptWYiL69qhrBwoYQkJCeam44ioqWBCkZ1xpgoVAlN+IkrqjONerY3pWscJBlD0Lg+uatcx/9aT/vxBlZFUgYpxFRheIWIgySYGIhSgTF4hYiNiWXfCI2JYtEDEtWyDKZBICEQsRw7IFIksxgYiFyFAFIgaiTEQgYiGiWbZAxLRsDkQxLWW1UlNaoHZJVItjRvEg0jS7dZvW1CCfV3x7VvWslw78MwYR2bIZiNLJCDRlk2kuPCndAGuzVJQXUToBfp6ciPNjGpNFVMJ6ZamHKGJwWDYNUTRh+GEbSVZnPh7xj9I1DkTYz0vwTskyL4zOYsWbh0iPcVg2GVEUN2Ods6ZBisv4QQ4knXZDCB+nc66WlGQRVdJfVwcgkuJsyyYhUpMZihSib0Xog8iIFKMbHwepxgujYurreoOIpATTsgmIYnKGqgje3FLUQbpKRKTq9I/jsqTeWUSlDJIgIgm8qRo/oniGJQP3bgnGoIhKQMS6I3yN+Losot596fMRQqSClh3lRcQmhI3KBHNMBI8oZrBvSayH8r7l6hAiKcYIVxwilJCsJxUlqaN3Os0gRBjmRxSFCelmMaWZVVUFdNjgMO1Sjrw/xoeIZdkYRBp8wvFortyJUG6sAscLcZgPkRqBxgH3Ma1zPkZla0J23rcjDUEE3dwUByLonuqI5Wg6KSq1DO8wFBGQOw109mpyoMWKSmbeL8Uholu2HxFwNUaKnrTAk5b5h8EnokEpD5Wa4Ozq8OX9vr2xiFSZMqN9iNIsiwS9VcNNM/YwaKTMKN0SQdYFSxh5v/52LCLo7FDL9iGSmUkEeDvvI4DMyTEMRJTzygrCZScCNCPqGXm/hICIZtkoonigR1/vpJVgw4CrldmLNTp/GPXtTc377kTEIAIdEbFsFFGEp+pP+oDLPMMUDKI0R4jkEkj0FPN+JRkR1ERKUxDlyiiZch6Au6nIhXIO84BU8ESIwp/Uiml5P1sUYBFBlh0jI0ryLZzEkZcFHuYh4vIZNUBtNIaS90tpiIiWjSCK8EQD6M4VUoBhkoES0fgGVvDPtDJy3vciDI8IsuwKEiKVt07zsowhMYdpCTkTcRpxvuTEOYXiQAeT9dBPzvveY+7PCbM7iW3AwIg03jItZz5RVnc3ARTOPnPWSQ98iGGDj34xzvLRl/e9bPcLkgFiLRu+ulwNzLhVKvewJPhKlViFRXlnKGNdECRRT2BXSqwisJYNI1K4KxAD9GfKMOD+X6Hr+pdzbRFbme5I4WwblRBmYBm50MJZNowoyap0/SGp0BEpmZ6X0a28X5ZLdZRaNO23bBiRzt0thl5ZQTZd/TQgyqic5WMlthqooZbrii9cewQRZdj/AtFAXN4vBqYf9YmmArXs040oeToQcbeNSjGhVcdABHb4bMuGESU4N27xe5F2GggxjRKT973nW+sQ/bkYtGzr2bq7GU0Gn4ppw3Iz7YtmBruClNEMpoK01kp8eb8eDCxG6yANb4QkIDIC1UW0YV7cJnCPZAb/ZXs3l+PLLfW+vF8C2hOru6JAnVVSdc0o5eAynFqUq/Y6qxzHNvB0/h3i7oo219d5cm2js5CpV8nVgAItOw6fdJSyEEBwYYljWEyLYkpt6EBC4pHGu6EGzfuegZdxIYIsOwWftMzZdpDhDwk8zNcpNwJtJgrQNiqGyoASzjYmfvFTC9AnTiNhwznM39FVecM2qMZAeb80VzZydnrTRERpvuWGCOJZcb5hOqXr2MNhVAbm/WKkCOBphqeIS8hyhqM9kUKJAAsgaa6mo4coHmQlMYjAvF8HlI3c6wUJEiKFo+cArNfGfe9HXnuHlnk1f5uDltSCh1hNzn5y+a04ACI1QkAExANpUw8wVsb0PDiGgYgUns0faiS4VeXyfg36PMK36hQ1CKvsCutiwUtN48KSPQxEBC5Skiaptf0oHRSRN7sqS6CMz78wp5E2Isj0vWjgVj0dj5w1DM58aWazLG5wfxsam/d9vRHetUvSRgRwR5Kh+Epl0pYf6O0UlTIMLQ7AUlb2Fw0xvZsprxRFVBN4eTdBOGnoYmXwf/eIwns20+TOEG2Yb3+RnCFtMJLUuB5wwyOubYT2abkRkdwBZRdJxjVTqWSE2kJGM0AkmcIO85eYaCkbSSqaPVTRg3y1jtw2gjJ+oE0CUYNw0gmerk2CnQH8XeeK7u517I4b1UCEgDWjAPsoNNJ95WCksC0Zc5EKYcescRoIAeUj0oEMgAhb7xLLb+h8sXUeY/e0eZFK9/Zd/6edc8tBGASiKI8xJNISY9IPd+Aa3Gi3a7RFWh4jUH9M7vluYXIh7XBhqNhhZG2jyMdukWg7XUzDjCjWHHB7QlKJokT86f2XGduzhAtp9Tw/RKdEmwVpHPRYjFkzS4Vy5QjtJGyoAcnnAq3//albopDcmtQu1HmB+AE1N6a0hporid55wHHb6Cq6JQqZYi5oZyOV9FAxnslBa/k5zkFffKVzopI8dO3afVq57F3Qlcrvm3++MDeUI7vsVlhy1dGeDA3+rW3LyvC9LR36W6poNL91kQAAAAAAAAAAAAAAAAAAAP6AJ8aZp5dyPrkdAAAAAElFTkSuQmCC;" vertex="1" parent="1">
          <mxGeometry x="271.55" y="196.5" width="63.39" height="43.5" as="geometry" />
        </mxCell>
        <mxCell id="kSHrFHT4jz19YnqHGzNB-2086" value="" style="shape=image;verticalLabelPosition=bottom;labelBackgroundColor=default;verticalAlign=top;aspect=fixed;imageAspect=0;image=data:image/png,iVBORw0KGgoAAAANSUhEUgAAA9QAAALQCAQAAADbO/CtAAAABGdBTUEAALGPC/xhBQAAACBjSFJNAAB6JgAAgIQAAPoAAACA6AAAdTAAAOpgAAA6mAAAF3CculE8AAAAAmJLR0QA/4ePzL8AAAAJcEhZcwAAAGAAAABgAPBrQs8AAAAHdElNRQflAxoFFS4f8cSKAAA6rElEQVR42u3dd5hVxeH/8c9clrJ0QYqgKFVArGuJgA0FGyIasURBjV9bUDEmiiYmscQENb/YjRg7xkQQCxaiIFYsICiKUgVE6RYEYak7vz8ooSywuzPnzpx736/n8YmiZ87MhfBmzr33HGOVXtbO1Rwt1CLN10It0iqt0jJJP4SeGAAgEZVVU1JdGVVXQzVWAzVQYzVWYxN6ZskxaQv1avupPtNUTdM0TVVx6OkAACJQS63USq3UWu21jwpzKtupCfVUO0ZjNFafaEXoqQAAIlag9ipSkYq0v6rmQLKjD/W39g2N1Kv6KvREAAApU6gD1FnH6LBUBzviUH9hh2iYPlFJ6IkAAFKtpg7TSeqhpqnMdZShnmmHaYhGh54GACCntFcvnaSilOU6slAvtf/WgxoXehoAgJzVVueot5qlJtcRhXqcfVD/1tLQ0wAA5LyMDlUfnanaKch1FKEusS/oVn0YehoAgLxSXb/QZdo38lgHD/Vq+2/dqi9Cvw4AgDxVpCt0lipHm+ugoV5lB+o2fRP6NQAA5Lkm6qu+qhNlrIOF2tpn9DtND71+AAAkSbV0vq7VLtHFOlCoR9r+Gh967QAAbKaGLtDV2jWqWAcI9Qx7uV4JvW4AAEpVRefpZjWMJtZZDvVqe79+r2WhVw0AwHbU0lXqH8nDPbIa6hG2r6aFXjEAAGWwq27UecoEj3XWQr3cXqd7FPrLYAAAlN3+uk+HBk51lkL9vj2XvTQAIHWMztHfgr5jnUn+FCvsb21nMg0ASCGrQWqngbYk2CXhxHfUs20vjQm1OgAAvDhUj2rPIPvqhHfUL9n9yDQAIPXe1/661a4NsK9OcEe91t6sm1WS/TUBAJCIQ/WI2mZ5X51YqH+wvfR6dtcCAEDCCvX/dGlWU51QqGfY7pqUzXUAAJAlJ+sR1ctarBMJ9fu2pxZmawUAAGTZbnpSh2cp1Ql8mOxJexSZBgDksK91tG7O0le2vO+o77NX8AEyAEAeOF7/0k6J76s976hvtZeRaQBAXhiugzUx8V21x1Bbe7W9Nun5AgAQjek6VEMTTrW3UFt7if6W9CsCAEBUflIv3WBtgrH29B61tZfrviy9KNtWRTVUV0a1VSn0VAAACVihYq3SMi2O7GmMvfWQqiT0brWnUF9tw+ymm6md2quddlcTNQz6dBMAQPassQu1QHP1lSZriqZodvBwd9GzqpNIhbyE+k/2pqy+HFV1sDqpozqqPmkGAOhHO1Yf6kN9GPDrwR30inZLoEoeQn27vSZrL0NjnagT1VU1CTQAYCvWTtAIvaZ3tSLA2Zvqv+rgvU/OoR5sz8rKF7Jq62T10dEyJBoAsAPFdqSG6AUtyfJ5d9JwHeK5U46hfsd21crEF95Rl6mnCkk0AKAciu1wPa5XtCaL56yjl9XJa6+cQv2lPVSLEl1wZfXUlepIogEAFTTfPq2HNDFr56uu59XVY7ccQr3I/kwzElxqZfXRH7Q7kQYAOLL2Nf1dI7L02fBqekYneqtXhUO9xnbTG4ktMqNz9Ee1JNIAAG8m2jv0pFZl4UzV9KKO8dSwCof61/bOxBZ4kO7Wz4g0AMC7r+3f9GAWPhNeXa/oCC8lq2Con7JnJ7S0JrpNv+Cz3QCAxHxl/6JHEv+IWW2N1EEealahUE+wHbU8kWX10gOqR6QBAAmbaq/XkITPUVev6wDnplUg1MvsAZqawIJ20QPqQaQBAFkyyv5WHyd6hgZ6T60cy1aBp2f1TSTTJ2simQYAZFEX85EeV70Ez7BIPfS940fNyx3qIfZx7wupqjv1HJe8AQBZljF9zOfqneAZJqmnVjilupyXvmfZ/fSj50U003MeruEDAFBRw+1F+iax0c/QU8pUuHPl2lGvtWd7z3RHjSHTAICgjjefJbivflrXORxdrlDfpfc8T/5cjVIjMg0ACKyuecI8q4YJjX6bnqrw5e9yXPqeaffWMq8T768BRBoAEI2Fto9eTWTkanpHB1aoeWXeUVt7oddMG/2NTAMAotLQDNcAVUpg5BX6uRZVaFdd5lA/oNc9TrhA/9JvyDQAIDLG9Dcj1TiBkWfrDK2pQKrLeOl7rm3n8fHbBfqXTifTAIBIfWNP0UcJjHu1bit3/cq4o+7vMdOV9CiZBgBEbFfzrs5LYNy/6aVy76nLtKMebQ/z9gzPjB5TbzINAIjebfY6lXges6E+0S7lqmAZdtQl9kqPj9q+nUwDAFLhGjNEhZ7HXKhfaG25olqGUA/0eJ3+al1FpgEAKXGqeV07ex7zTd1arv9+h5e+l9iW+tbT5M7Sv3jSNAAgVb6wx+lrryMW6AMVlbmGO9xR3+Yt0/vrITINAEiZ9uYdtfI64hr1LseDOnYQ6oX2bk/Taqxhqk6mAQCps7t5Rx28jjhJt5T5v91BqG/UUi9TqqJntSuZBgCkUmMzUnt7HXGAxpdxT73d96hn2rZa5WVCd+kKMg0ASLFF9kh94XG89hqnamVo43ZDfZ593MtkTtHQnHx3+nu7QIu0QAu0TFaLJf2k1aEnBQCJq6ZCZVRHUm01VgM1UGPVycHf5bc0xx6hLz2Od7Oudwv1LNvGS3b20HjtlBM/gdbO1DRN0xRN1TTN8XS1AQByQVU1VSu1Umu1Viu1VEFO/L6/pVn2cI+fAK+uz7XHDl+n7YS6r73fwzQq6S11SvlP11w7VmM1RmO1OPRUACAVCrWvilSkIrXPsWRPtp31nbfRTtbzFQ/1fNtcKzxMoiI3II/Fd3aURmiEZoWeCACkVqE66kgdpYNVObU12Nxo21XF3kZ7WSfs4HXZZqivsbd7mMBe+qhMb5XHZrwdqtc03vs9XgEgX9VQZx2tHtozhU3Y0nO2l9Z6GqulJu6gk9sI9RK7q4cvZlXSBzowZT8lH9shGuz1wwIAgP9pq5PVUwcrk7I6bO5u28/bWLfodxUJtZ8p9NOdKfqJmGcf0eOaFnoaAJAHGus09dFBKWrEli60D3kaqY6ma+ftvBKlhtratprqfOpdNCklH9cvsaP0oJ7nq1UAkFVtdYb6qEUqSrGl1bar3vI01pW6o7yhfsWe6OHEQ3RaCl78n+w/dTcfFwOAQDI6Spfq5BR+NnyBPcjTV7WqapKab3P9pYb6ePtf59MerZHRv+iL7D26T9+HngYA5L3ddIkuVIPou7G5D+3hnu6ocbaeLE+op9s2KtczrUuR0TjtF/ULPsfeqoe1PPQ0AADrVdUZ+nXk7djSHfYqL+NkNF77mm39u6085pxp6fyoX+ql9lbbTveQaQCIyEo9of3V1b7vHqGsuVI9vYxTor9s899ttaMusXs4X3OvoalqEmmoi+29GsDlbgCIWBf9Xl0irciWvrf7a7aHcTL6XG1N6f9mC697eGu8b7SZfsbuqWvINABEbZSOVif7Tip21vXMozt6YnSZlGjANv7NVqM/6nyymvpNwi9LxXxpT7C9PN5MHQCQnPd0uLraCSmIdRdzmZdxntLMUle7Rah/tM87n6qfGka3n15hb7AdNDz0NAAA5TBSRbrAfhN9rAdoTw+jrNZtpf74Fu9RP2HPdTxRLX0V3UMtx9hzNTn0JAAAFVKo63R15M+N+MB28vB0iEJ9o3pbrXOLHfVg59NcGFmm19hbbWcyDQCpVaw/qoNejnpf/TNziZeVPlzKj262o15iGzk+2rKypqtZRKH+wvbRuNCTAAB40F13b+f+XaEtse01x3mU3fWlKm2xxs121MOcn0B9elSZfsAWkWkAyBEvqYPusCWR7qxrm797GOUrvbzVj20W6iHOp/BzhxYfltk+9lLnP3gAAOKxXFfpcE2NNNWnm64eRrl3qx/Z5NL3MruzY9gO0QeR7Ken2NM0MfQkAAAJKNQt6hfl86w/s/trreMYRlPVarO1bbKjfsN5/+njrXQfnrcHkWkAyFHFukqHb+M7x2HtbX7pPIbVoC1+ZJNQuz4xq65Oz/qLUpq77M+1NPQkAAAJGq399FSEqf6zajuP8YTsZivzGOreqh78QsRqe6G90sN32QAAcVuis3WhXR5ZrBsa989qzdI7m/3zxlBPtV86Dt07yIuyqaX2ZD0UehIAgCx5SEX6JLJUX6l6zmM8udk/bQy16356Tx0UeD8933biJqEAkFcmq6P+FVWq65grnccYrOJN1rQx1G84DntOoJdkg9n2cH0WeA4AgGwr1jm62K6OKNb9nPfUP2rEJv+0PtTWjnYc9syAL4o0xXbWtKAzAACE8qCO07fRpLq2ucJ5jBc2+fv136OeZNs7DbmPJgS88D3BdtPCcKcHAAS3h57TfsE/0rzOQru74xeeG2jexluJrt9Rv1Px0SRJPw/4gkyxx5JpAMhzs3RYNA/uaGhcP169SO9t/PuCdf/jGupTgr0cU+2RWhDkzLXUVu3VQk3UWLtoJ9VSgWqoSiR/ngOA5Cy1a7Rcy7RI8zVP8zVdUzRVywPP6if11AP2gih+F75SD8ntTw0v6LD1f7f+0ncLO9NhuBb6MtALM8serq+zesYqKlJHddYBUT1+BABCs3a2PtGH+lAfaUnAeVyvm2Qi+P25mx3hdHxrTV2/CmMlfW/rOw13if4R5EWZYw/XjKydrblOVHcdEfnDywEgtBL7qV7TCL0b6MFIffSQKgf/nfpp6/oh66/WbwiNlfS6PcZpsKE6NcBLstQerk+ycqZm6q0z1SH4TzsApEmxfUND9by+z/qZe2iwqgb+PXulbarvnEZ4TOcaaf2HycY7DVWgLgFegjX29CxkuqrO1RuaqT8bMg0A5VNoTjAPm/l6VReoVlbPPEw9FPrmolWN6/1FNtzfJCNJHzsNdaDqBojYpc73UtuRxrpRs/WYOdLE+DA1AEiHyqabecjM0yPqlMWzvqbjtSRwqs9zPH6zULvtqDsHWP5fbLL39N5NAzVLfzQNSTQAeFDDnG/eNV/oYhVm6Yxvq6t+CJrq/Uxrp+Nn60srSRmp2Lrd0yubf0ZaZ5i9PsHRm+geTdNFJvT7GwCQa9qZB8xs/Vm7ZOVsY3Rs4F31aY7Hr/vqdEaa6vRYSJP1UE+1fRy/nbZtheqvKbqMSANAQnY2vzezNFC7ZuFcY3WcfgqYatdQj5O0PtQuWqtBVqO21PbUjwmNfZomaYCpSaQBIFFVzEVmmu5W08TP9L5O0YpgqT7ANHc6fmOopzgNU5TVRVv7S01KZORd9LyGmN2JNABkRTVzuZmmAaqd8HlGqqdWBkv1cU5HT9Aa62FHvW9Wl3y7nklgVKNfapJOJtIAkFWFpr+ZogtVKdGzvKrzZQOluqvT0cs1WR521PtlccEf2T8kMOrOelEPmzpkGgACaGweNON1aKLn+LeuC7S6LhseqVFB4yVlJJe7fGcz1D/ZX2iV91EP1yc6kUgDQED7mHc1UDsleIZbdX+QPXUdc4jT8RMlZVbabx2GqKdGWYvc5XL7GtnWjH6vUWpKpgEgsIy5yEzWWQme4QoNC5Lqjk5HT5OUmeP0Vac2WVvq0/YxzyNW13/0Z1OJTANAFBqap8xg7ZzQ6Gv1C40NkGq3HfV0SZlvnIbYM0sLXWQv9zxiE72p04k0AESll/lcPRMae5l6aE7WU+0W6i9VYjNznYZwuz1a2f1Ki7yO10FjdBCZBoDoNDTPmQcSutHofJ2hVVlO9a6micPRxZqjzBynCeyRlWUOtX6/lNVRb/PONABE62LzgdomMvJoXZH11ezjdPQ0Zdx2qsnfVUb63l7mdbwTNEI7kWkAiNg+ZqxcHxNZuoF6MMt7arc/cnyjzA9OA2Qj1L/RfI+jnaTnVJ1MA0DkappB5i7HbyGX7nJ9mNVUu4V6oWuok7+p+vv2cY+jHavBqkKmASAVrjCj1ND7qKt0ur7PYqrdPna9UJnFDofXVmHC0Suxl3t8UtaxekHVyDQApMZh5gN18D7qbF2axTW0dDracUed5F1k1vnn+meH+HCQnhGPrwSAdGlu3nd8tEVpBuufWdtTN5JLehYq4/LIyLoJL+57e723sdroFfEASwBIn5rmBZ3tfdQr9XmWUl3F1HM4eqEyxQ6HJ72jvlEutzfdVGP9VzuTaQBIpSpmkPp7HnO5zsrad6obOxz7kzKrHQ6vk+jCZtoHPI1UVc+pOZkGgNQyZoD5q+cxP9NNWZq9ywfiViqz0uHwqoku7Hpvz8q6Vz8j0wCQctea+5XxOuKtWbr7t8t91lYqs8bh8CS+37bBBPsfTyP10/+RaQDIAZeagV5TvUYXZOXyt0uoVyjjsmutkuCyrlWJl3EO0e0JzhIAkE3/Zx72murPdHMWZl3N4dgVKnB5jzq5HfVo+18v49TXEFXOk/30XDs69BRSZicd4/Br43P7hcO5uyd+D4JcM9K63Zwp/3RSkxz9NXaeWWp93q97gHrZfRJ+rVxCvVIFLnt+v+8VbOoWL6MYPazdcvSX6tbG6fTQU0iZIn3kcPQQ3ehw9JyEng2Uu671eE+F/DBMLs9sitvlZq39tbfR1uhXeseaRFtRyeHYkgRb6+BjT/vpfjo5bzINAPnjSnOdx9FGa1DoBW1XlKH+i5fbhrbVX0IvBACQiFt0nsfRrtHiLD9RqzwiDPUU+6yHUQr0GO8CAkCOMuZBHetttAX6Y+gFbUeEob7Ny+e9r9EhZBoAclZlM1j7ehvtfn0a7Z46ulB/a5/yMEor/SH0QgAAiapthnl7COZaXRt6OdsUXagf1AoPo9zF4ywBIOc1M896u6PHcL0e6Z46slCv8XJ/77N0ApkGgDzQyfh6KoR0nWyUqY4s1M/ra+cxaupvoZcBAMiS880FnkYaqyGhF1OqyEJ9r4cxrsnZ+/EAALZ2jzp4Gun3WhPhnjqqUE+zbzuP0VRXhV4GACCLCs1Q1fIy0nT5+Dizb1GF+nEPNzq5RTXYTwNAXmljfFyPlaS/qiS6PXVEoS6x7jdx20u9Qy8DAJB1fcwZXsaZrKGhl7KViEI9UrOdx7hBGfbTAJCHHtCuXsa5JbrPfkcU6secR+igU0MvAgAQRF3zsHzs1Cbo5dBL2UI0oV5mX3Ae42b20wCQt7qZ872ME9tXfKMJ9cta7jjCnuoRehEAgID+5uWWom9Fdt/vaEL9jPMIV7OfBoC8tpPxsxu+P/RCNhNJqJfbVxxHaKSzQy8CABBYb3O0h1EG6fuI9tSRhHq4ljmOcDmP4QAA6H4Pj+lY7uHjzf5EEmrX761Vka97vQIA0qyN6ethlH9E9CWtKEK91r7mOMIpasx+GgAg6Q+q7zzGdI0OvYyNogj1GH3nOMKloZcAAIjETuZ6D6O43yvTlyhC/V/H4/fU4aGXAACIxq/U0nmMwVoRycXvKEI93PH43jJc+AYArFfF/N55jMUaFnoZ60UQ6m/tOKfjjX4RegkAgKj0URvnMWK5+B1BqEepxOn4zmrOfhoAsIlK5nfOY7yqxVFc/I4g1O86Hs+NTgAAWzrb+X3q1ZE8niOCUL/tuICTQy8AABCdAnOF8xjuD4vyIXiof7QTnY7vzDeoAQCluED1HEcYHsUnvwtCT2C01jod3zP0AnLEHTos9BQqpLcmhZ4CotdCA0JPIYCi0BOIQA1zgb3daYSfNEonhF5G+FC7vkPdM/QCckRLFaXyykT1CP60i9jtpF6p/NUNd5fr746bwWERhDr4pe+xTkfvySe+AQDbsJs51nGEkaGXoAhC/YnT0d1CTx8AEDHXBzZ9qa+CX7cLHOqv7LdOx3cNO30AQNR6qLHjCG+EXkLoUH/sdHRlHRl2+gCAqBUY13tX5n2oxzsdvb9q8Q41AGA7znA8Pu9DPcHp6E5hJw8AiN5B2t3p+K81I/C71IFD7fYd2M5hJw8AiJ4xP3cc4aPAKwga6tV2ltPxHUNOHgCQCq6hdnvCo7ugoZ6h1Q5H78rNQwEAO3SI461E3T5N5S5oqKc4Hb1/yKkDAFKikjna6fhxskHfpU5xqPcLOXUAQGq43RzrB80KOvugof7S6eh9Q04dAJAarnexdPuGkqugof7G6ei9Qk4dAJAazYzbV7SmB519akNdSS1CTh0AkCKHOB09Lejcg4Z6jsOxzVWFz3wDAMrELdR5u6NeYb9zOLpNuIkDAFLmYKej83ZHPU8un3fnwjcAoKz2k8tF2G9UHPALWgFDvcDp6KbhJg4ASJmaZleHo62+Djj3gKH+welol5ccAJBv9nQ62m1r6Sa1oWZHDQAou7ZORy8MOPOAoV7sdHTjcBMHAKROa6ej8zTUbjvq+uEmDgBInV2cjs7TUC92OrpOuIkDAFLH7TpsnoZ6mcOxNVSV250AAMrMLdRLAs48YKhdnkXNfhoAUB6NnI5eEXDmKQ11tXDTBgCkUA2no1cGnHnAUK9yOLZyuGkDAFKoknEpBzvqciPUAIDycbkWm6c7akINAMieQodj83RHXZLOaQMAUqnA4di1AedN8QAAiBihBgAgYoQaAICIEWoAACJGqAEAiBihBgAgYoQaAICIEWoAACJGqAEAiBihBgAgYoQaAICIEWoAACJGqAEAiBihBgAgYoQaAICIEWoAACJGqAEAiBihBgAgYoQaAICIEWoAACJGqAEAiBihBgAgYoQaAICIEWoAACJGqAEAiBihBgAgYoQaAICIEWoAACJGqAEAiFhB6AkgDkP1hQ09h4qYH3oCAJAwQg1J0uOhJwAAKBWXvgEAiBihBgAgYoQaAICIEWoAACJGqAEAiBihBgAgYoQaAICIEWoAACJGqAEAiBihBgAgYoQaAICIEWoAACJGqAEAiBihBgAgYoQaAICIEWoAACJGqAEAiBihBgAgYoQaAICIEWoAACJGqAEAiBihBgAgYoQaAICIEWoAACJGqAEAiBihBgAgYoQaAICIEWoAACJGqAEAiFhB6AkgDnfosNBTyLrqoScAAGVAqCFJaqkiE3oOAICtcekbAICIEWoAACJGqAEAiBihBgAgYoQaAICIEWoAACJGqAEAiBihBgAgYoQaAICIEWoAACJGqAEAiBihBgAgYoQaAICIEWoAACJGqAEAiBihBgAgYoQaAICIEWoAACJGqAEAiBihBgAgYoQaAICIEWoAACJGqAEAiBihBgAgYoQaAICIEWoAACJGqAEAiBihBgAgYoQaAICIEWoAACJGqAEAiBihBgAgYoQaAICIEWoAACJGqAEAiBihBgAgYoQaAICIEWoAACJGqAEAiBihBgAgYoQaAICIEWoAACJGqAEAiBihBgAgYoQaAICIEWoAACJGqAEAiBihBgAgYoQaAICIEWoAACJGqAEAiBihBgAgYoQaAICIEWoAACJGqAEAiBihBgAgYoQaAICIEWoAACJGqAEAiFjAUBuHY0vCTRsAkEou5XAplquAoa7icOyqcNMGAKTSCodjqwWcd8BQV3U41uXlBgDko2KHY12K5SpgqF3+fEKoAQDlYa3LtVh21OW2PNy0AQApVCzrcHSe7qhdlr1Yq1xecQBAnlnodHSe7qhrOBxrtSjcxAEAqeMW6uoBZx4w1A2djp4XbuIAgNSZ63R0o4AzT22oF4SbOAAgddx21A0Czjy1oZ4ZbuIAgNSZ4XQ0O+oKmBJu4gCA1JnsdLRbsdwEDLXbn0/cXnIAQH4h1BVQz+nj7uyoAQBltdq6XfpuEnDuAUOdMS0cjv5GP/BNagBAmUzWaoej66lewKdyBH3MZSuHY63GhJw6ACBFPnA6unXQuQcNtdvSPww5dQBAirht7fI41C47akINACgrt2K41cpVqnfUJbxLDQDYoR/tF07H5/GOei+no7/T+JCTBwCkxBta63R8+6CzDxrqxsbtA+8jQk4eAJASrzkdXc1xW+kqaKilIqejCTUAYMfcQr2vKgf8clbKQ/2efuJdagDAdk2zXzodf0Dg+ac61Cv1UtjpAwCiN9TxeLdSuUt1qKVnwk4fABA911Dn+Y56F9PS6fjhXPwGAGzHLDvO6fg62ifwCgKHWjrK6ejlejn0AgAAERsit/3cYaoU9KNkqQ+19HjoBQAAIvak4/FdQi8g/aF+VbO5+A0AKNUH9lPHEVwr5S54qHcxbZ2OL9EToZcAAIjUw47H1wv+DnUEoZaOdjz+Ue75DQAoxU/2accRuigT+B3qKEJ9kuPxM/hAGQCgFI9qqeMIroXyoSD0BKQuqqvFTiPcEcVLCZRdUzl+EDWFLtLAQDuTcTJ592pLw3RS8J1gaCX2bscRKumE0ItQFDvqyuY4xxHe0Ng8/L8hAGB7hmm64wiHa+cI/rgTQailk51HcP1TEwAg19zhPEKP0EuQFEmoj1cVxxH+rWnsqQEAG422bzuP4b6N9CGKUNcxXR1HWKu/hl4EACAif3AeoUjNI7jwHUmopd7OIzyhqeypAQCSpHftG85j9Am9iPUiCfXJquM4AntqAMAG1zuPUFlnhl7EepGEupo53XmMQfqMPTUAQC/Zt5zHOF4No7jwHU2ofVz8XqsrQy8CABDcGnuth1FiufAdUag7q4XzGKP0X/bUAJDnBupz5zHqqXvoZWwUTaiNudjDKFdrDakGgDy22N7oYZTzVDWSC98RhVq6UNWdx5ioe0IvAwAQ0O+1yHkMIx9bR18iCvVO5iwPo1yvWeypASBPjbUDPYxyotpEs5+OKtTS5R7GWK6+oZcBAAhijb1Yaz2ME1dHogr1vqazh1Fe0fPsqQEgD92pjz2M0lrdQi9kM1GFWvq1l1Eu0bekGgDyzCTrfttQSbpCmYgufEcX6lPUwcMoC3Rh6IUAALJqjT1PKzyM00gXhF7KFiILtTH9vYzzvJ5iTw0AeeQWjfEyzm9UGNV+OrpQS2eqpZdxLtNsUg0AeWKsvcXLOPV1aeilbCW6UBeYa7yM84NO12pSDQB5YLE9Q6u9jNRPNSPbT0cYaulc7eZlnA89PI0UABA7ay/QTC8j1fHyNWHfIgx1VePj9m+SdJuGsacGgBx3t571NNK1qhvdfjrKUEt9vHz2W7L6pWaQagDIYe9aP2+YSk11RejFlCrKUFcyf/U00nfqriWkGgBy1Fx7hlZ5GutGVY9wPx1pqKXupounkSbpXJWQagDIQcW2p+Z6Gqutzg29nG2INNTSX+TrDzbPy9d73gCAeFj7S431NtqtKohyPx1xqA8x53gb62Y9wp4aAHLMtfqPt7GOUY9IMx1xqKXbVdfTSFYX8flvAMgpA+1t3saqontCL2c7Ig51I29f05LW6ix9QKoBIEe8aH0+ivJqtY12Px11qKW+2s/bWMvVQ1+QagDIAaPs6V6eO71OM10XekHbVRB6AttTydxnO8tXXRepm96yLSP+U5ObJurldDTKZy+n1zsNClTL63iHOR19jFqEfDGyoFDVvI63e+gFJeg928PLc7I2uEs1oi6DcengRRqY+OJ+Zf/hcbTd9Lb2iPonBACwPZ/YLvrB43g99ELiVbjYPuhwdNSXviXpNu3hcbSv1VVfcwEcAFLqY3uM10zXl0tCsyP6UNc0j3j7RrUkTVdnTSfVAJBCH9lj9J3XEe9Vo+ivskYfaukoc4nX8WbrME0k1QCQMm/bLvre64g9dGb0mU5FqH1f/pbm62h9TKoBIEVetsdpqdcR03DZW0pJqGuaQZ4/nr5Qh+sVUg0AKfGoPUXFnsf8Zwoue0spCbXU2fzR84g/6WQ9SKoBIHrW3mB/qdWeR+2rU1KR6dSEWvq9jvI84hpdopusJdYAELGV9vwEHq20r/4WemFllppQZ8y/1cjzmFZ/0sk8rxoAorXIHqvHvY9aQ/9WtZTsp1MUaqmRedjrF7XWeVGHaSapBoAIjbH7660Exr1X7VKT6VSFWjrRXJ/AqJ/qYI0g1QAQmYftEZqTwLgX6bwUZTploZZuUPcERv1Wx6qfXU2sASASxfZC+39e7+i9waG6O/Tiyilloc6Yp9Q+gXGt7tYxmkOqASACX9iD9VAiIzfWEFVN1X46daGWapmhqp3IyG9rPz1DqgEgqBJ7pz1QExMZu6qeU9OUZTqFoZbamidVKZGRv1UvnW2/J9YAEMhM20W/9n5rkw3u189Sl+lUhlo6ydyZ2NhPaW+9TKoBIOusHWj3TeRT3utcr1+mMNMpDbV0mfltYmPPVXedZHkYJgBk01TbVZd4vpv3ps7STaGXWEEpDbV0m85JcPSX1E632rXEGgCyoNjeYPfR6wme4Ug9KpPK/XSKQ23MQzoswfGX6VodpDdINQAkytqnbXvdqJUJnmMfvZC6z3r/T2pDLVU1w7R/omf4WF3U004l1gCQkPdtR52pWYmeo6WGq3ZqM53qUEt1zauJfKt6Uy+og/rab4g1AHj2ue1lO+mDhM/STK+rSYoznfJQSw3MG2qb8DlW63611MXEGgC8mWT72H31jJL+jbWhXtXuqc506kMtNTSvavfEz7JKD6q1fsVlcABwNsaeYTtokNYmfqadNUptU57pHAi11MyMVLMsnGeF/qF2OsmOItYAUCFr7TO2sz1Eg1WShbPV16vaK/WZzolQS63M22qZlTOV6CUdrb3tXfY7cg0A5TDb3mhbqpdGZ+l8jfWmDsiBTOdIqKXdzdtql7WzTdSVaqoz7HCeuAUAO7TcPm2Ptc11g77K2jmb6S11yIlM50yopSbmXR2UxfOt1GCdoEbqY1+0K8k1AJSi2L5o+9hGOlOvZeVi9wbN9Yba5EimpYLQE/CnnnnVdtd7WT3nDxqkQaqtLrabuqllzvyyAAAX1n6m1zRCbyfyROkd6aDXtEsO/X6cQ6GWdjIj7Tl6NuvnXaLn9bykFraTDtbB2k9VcuiXCACU1TI7XmP0od7VvGBzOFpDVSenfg/OqVBLhWaIvUp3BTr7DM3QIElV1c7uqT3VTs3VRA1TfOM6ANi+Yjtf8zRdkzVFkzVVawLPp4/+mXNbpRwLtZQxd2oP+5usvhuypZX6RJ9s8s/1bEPVUJX1fwFAui3VmvV/zdeS0JPZzB90Y2ofvbFtORdqSbrSNLN9tCz0NDb6Xt+HngIA5Lgq+kdKnze9Iznzqe/NnWreV4vQkwAAZEkTvZmjmc7ZUEt7m7HqFnoSAIAs6KiPdGiOZjqHQy3VM6+ov3L2Zw4AIEm6SG/k1NextpTDoZYqmQHmadUJPQ0AQEKq6yENNLn2Oe/N5XSoJamX+VSdQk8CAJCA9vpAF+R0pKU8CLXUzLypP+XDQgEgr/TWWO2d85nOi1BLBeYGM1yNQ08DAODJThqqJ0z1PMh0noRakrqZSboo9CQAAB4cr091al5EWsqjUEt1zUDzspqGngYAwEFdDdQrZte8yXRehVqSTjAT2VcDQGqdoIm6KI8iLeVdqDfsq1uGngYAoJx21dN62TTNs0znYagl6QTzhe7k8RgAkBqVdYU+1+l5F2kpT0MtVTH9zKfqHnoaAIAyOELjdZepnZeZzttQS1IL86J5SR1CTwMAsB2tNVhvmg55Gmkpr0MtSSeaCRqs5qGnAQAoxc4aoM/UK48jLeV9qKWM6WUma6AahJ4IAGATNdRfX6q/qZrnmSbUkqQq5iIzVTepfuiJAAAk1dbvNFMD8vZd6c0R6vXqmj+Yr3QnN0QBgKDq60+apVtMAyK9HqHeRA3Tz0zXvXzLGgCC2FW3a5ZuMDsR6U0Q6i1UM33NVI1QL1UKPRUAyCNFelwz9FtTk0hvgVCXImOOMYPNZPVXvdBTAYCcV029NUEfmT6mMpEuBaHeplZmgJmjwequgtBTAYCclFEnDdQCPWH2IdHbRIO2q5rppV6aZwfrCY0PPRkAyCF76kz1UQsCvUOEugx2Mf3UTzPsixqi91USejoAkGrtdZK6q5MMkS4TQl1mLUw/9dM8O0wv6G0tCz0dAEiZQnVWD/VQMwJdLoS6nHYxF+tirbETNFIj9a5WhJ4QAESuQPvqGB2jzqpGoiuAUFdIgSlSkfprhR2jjzRO4zWVS+IAsAmjFipSkQ7UIapBoB0QaifVzOE6XJK01H6szzRV0zRds7Q69MQAIIBK2l2t1UqttbcOUF3y7AWh9qTWxmRLa+wsfaN5WqRFWqCFWqZlWqWVWh56kgDgSaGqqbJqqlANtIsaqIEaaVc1VxXi7B2hTkCBaaVWoScBAMgJ3PAEAICIEWoAACJGqAEAiBihBgAgYoQaAICIEWoAACJGqAEAiBihBgAgYoQaAICIEWoAACJGqAEAiBihBgAgYoQaAICIEWoAACJGqAEAiBihBgAgYoQaAICIEWoAACJGqAEAiBihBgAgYoQaAICIEWoAACJGqAEAiBihBgAgYoQaAICIEWoAACJGqAEAiBihBgAgYoQaAICIEWoAACJGqAEAiBihBgAgYoQaAICIEWoAACJGqAEAiBihBgAgYoQaAICIEWoAACJGqAEAiBihBgAgYoQaAICIEWoAACJGqAEAiBihBgAgYoQaAICIEWoAACJGqAEAiBihBgAgYoQaAICIEWoAACJGqAEAiBihBgAgYoQaAICIEWoAACJGqAEAiBihBgAgYoQaAICIEWoAACJGqAEAiBihBgAgYgWhJ5A2i+zxoacQnQYabkLPITYP2gdDTyE6F+mivPt1Msn2Dj2F6LTToLz7deCKUJfTao0LPYXoNAk9gQjN5dfJVuaGnkAAy/l1AA+49A0AQMQINQAAESPUAABEjFADABAxQg0AQMQINQAAESPUAABEjFADABAxQg0AQMQINQAAESPUAABEjFADABAxQg0AQMQINQAAESPUAABEjFADABAxQg0AQMQINQAAESPUAABEjFADABAxQg0AQMQINQAAESPUAABEjFADABAxQg0AQMQINQAAESPUAABEjFADABCxgtATyC87a/fQU9iGSVoeegrYqJ2qh55CqZZrUugp5JVd1CT0FLbhU60OPYW8Qqiz6lQNNKHnULoD7bjQU8BGg1QU5a+TcfbA0FPIKxfphih/HUhN7dzQU8grXPoGACBihBoAgIgRagAAIkaoAQCIGKEGACBihBoAgIgRagAAIkaoAQCIGKEGACBihBoAgIgRagAAIkaoAQCIGKEGACBihBoAgIgRagAAIkaoAQCIGKEGACBihBoAgIgRagAAIkaoAQCIGKEGACBihBoAgIgRagAAIkaoAQCIGKEGACBihBoAgIgRagAAIkaoAQCIGKEGACBihBoAgIgRagAAIkaoAQCIGKEGACBihBoAgIgRagAAIkaoAQCIGKEGACBihBoAgIgRagAAIkaoAQCIGKEGACBihBoAgIgRagAAIkaoAQCIGKEGACBihBoAgIgRagAAIkaoAQCIGKEGACBihBoAgIgRagAAIkaoAQCIGKEGACBihBoAgIgRagAAIkaoAQCIGKEGACBihBoAgIgRagAAIkaoAQCIGKEGACBihBoAgIgRagAAIkaoAQCIGKEGACBihBoAgIgRagAAIkaoAQCIGKEGACBihBoAgIgRagAAIkaoAQCIGKEGACBihBoAgIgRagAAIlaQUUmFD674kfnqHV1sQ8+hdF+FngA28RftHOWvk29DTyDPvKR5Uf46kBaHnkDquNTSqKCKVlT48FWh1546kzQp9BSQAs+GngCiME7jQk8BnlS8s1I1ZaoGOjUAAPmh2OHYqoQaAIBkOe6oqzkcvjz02gEAiF7AHfWi0GsHACB6Cx2OraZMTYfD54deOwAA0VvgcGwNZRo6HL5IayL98gAAAHFYbb9zOLqhW6hLuPgNAMB2LXT6HnUDZRo5nX5W6PUDABC1GU5HN1amgdMAk0OvHwCAqLmVsoHbpW9pSuj1AwAQNbdSNlJmV6cB2FEDALA9bqFuokxrpwE+C71+AACi9qnT0a2U2U0u9yaboYV8QQsAgG2Yb2c7HF1VuymTMc2dpjA29GsAAEC0PnQ6uqUqmYzUKuAUAADIZW6VbCUpI7m9S/1e6NcAAIBove90dGtJGamD0yCjVcy71AAAlGKZdQv1XpIyUpHTICv0TujXAQCAKL2plU7HHygpI7VXodMwI0K/DgAAROk1p6Orqa2kjFRg9nEa6NXQrwMAAFFyK+S+qmykjOR68fszTeZdagAAtjDRut2VbF2dPYRaejb0awEAQHSGOh5/gKT1oT7McahnQr8WAABEZ4jj8evqnJGk1sbt0RwfazoXvwEA2MQk+7nT8U3VxkjrQy0d5Tidx0O/HgAAROUxx+M3lNlTqB/VWvbUAACst8YOchxhi1Af7TjcHMfvigEAkEte0jzHEbqs/9/1oW5mWjoO+HDglwQAgHg84nh8C+1h1v1dZsMP9XAc8nnN5OI3AACSZtpXHEc4eePfmQ11fcse6Tjob3W7CfiqAAAQiSvsPY4jvKkj1jd1Y6jX2sb61mnQ2pqtOqQaAJDnFtvd9JPTCPU1XwVbXvquZE50nNgSPRr6tQEAILh/OmZa6r4x05uEetPr4RV1G8+mBgDkuRX2Tucxem7y95uE+ljVdhx4nvOn3AAASLf7NddxhFrqtsk/bRLq6ubnztO7hT01ACCPLbO3OY9xmqpv8omvzKb/qo/z4PP4PjUAII/drwXOY/Te7J/Mphtga1tqpuPwDTVNtfnsNwAgD/1gW+s7xzGaaaYy29pRG/ML50ku1K0hXhsAAIK7yTnTUu/NMr3FjlqaatvK9U3mQk1WM/bUAIA8M8120CrHMYwmac/NGprZ/D9oY7qUZ7xSFet32X5tAAAIrr9zpqWjtsj0VqGWLvMw1ac0is9+AwDyyn/tcx5G2brCZsuirrWtnT9QJrXRBFXj8jcAIE8U2w6a4TxKM325yT3J1tlqR13JXOxhwlN1e7ZeGwAAgrvRQ6alS7fKdCk7auk7u5uKnU9WTRPUhj01ACAPfGoP1GrnUappthpsVc7M1v9hfeN+4xNphc7TWt6pBgDkvNX2PA+Zls4pJdOlhlq6RgUeTvg+l78BAHngJn3sYZRKuqbUHzelb3r72EEeTlpFY7UPl78BADlsvP2Zp/30oFKLuY1QT7IdVOLhtPvqAz79DQDIWcvsgZrsYZyMPlN7U/q/KVU7c4qXBUzQVUm9NgAABPcrL5mWTtlGpre5o5Y+sQc430x0nad1OntqAEAOetT+0ss4RuO0/zZamdnWQfuZMz0t4wJN4dPfAICc87n1cTdPSTpzm5nezo5ammHbebhrqSTtq9Gqwa4aAJBDFtufaYqXkaroC7XcZiUz2z6whbnE02ImqLcsu2oAQM4osed4yrR0yXYyvd0dtfStbaUfPU3jZl3PnhoAkCOusb7uFVJL09RoO4XMbO/gnc3V3pb0Jz3PnhoAkBOe9JZp6ZrtZnoHO2pfTwNZp1Aj1ZFdNQAg5d60x2mlp7Ga6YsdfIors/0BCs193hZWrB58/hsAkHKf21O8ZVq6d4cfts7saIjjzEnepvOdjtcCUg0ASK059ngt9jZaD520wyvNZsfdnG3babm3Se2rUarHBXAAQAotskfqC2+jFWqiWuywiDvcUUvNzLUeFzlBJ2opu2oAQOr8YLt6zLR0XRkyXaYdtbTKHqjPPE6to15VTXbVAIAUWWaP07sex2un8WV6bFUZdtRSFfOIlydUb/CeTtFydtUAgNRY4jnTBXqijE+XLFOopQNNf68LHqljtYRUAwBSYbE91mumpf46sIxXlst06Vvyf/lbKtKrqs8FcABA5BbabprgdcSyXvaWyryj9n/5WxqnYzSfXTUAIGqz7RGeM12gx8uc6XKEWjrQ3OB58Z/oUE0m1QCAaE20nTXZ85h/0kHluJ5c5kvfklRij9VIz9PdSS/oMC6AAwAiNMqe6u3hVBscoddVKalQS3PtflrkecqFekKnkWoAQGQesxdrlecxG+gTNSlX88px6VuSmpgn5LupxTpd19oSLoEDAKKx1l5rz/eeaaOHy5npcodaOs5c5f3lsLpVp3C/MgBAJL6zx+nWBMa9qgz39t5SOS99S9Jq201vJjD99npG7bgEDgAI7GN7mrdHPG/qSI1QQbk7V+4dtVTZPKPmCSzgCxXpn+yqAQBBPWE7J5LpZhpcgUxXKNRSffOsqiewiGJdpD52GbEGAASxxJ5lz/X4xMj/qaahalChq8YVCrW0nxmYwDIkaZAO1FhSDQDIurftfvpPQmM/VOZbhm6pgqGWzjG/TWgxk9VRf7CriTUAIGuK7W/sUZqZ0OhX6+wKfwarAh8m26DEnqkhCS1J2l+PaR8+WgYAyIIP7fmalNjovfQfZSpctArvqKWMeUKdE1vWxypSP8tXtgAAyfrR9rOdEsz0YXrCIdNOO2pJ+t528n4P1E011Z3ctQwAkJgXbV99neD47fSu6jl1zGFHLUn1zCtqlOAC56iXTrI8uAMA4N8E29X2SDTTjfWyY6adQy01N6+pXoKLlF7S3rrYLiDWAABv5tmLbZH3B01tro5eVnPnq8KOl77X+dB21dJEFyvV1W/UT7W4DA4AcPSD/bvu0LKEz1JbI3Swh2p5CbX0nj1WPyW8ZKmeLtevVYdYAwAqaKm9XwO0OPHzFOoVHemlV55CLY2wJ2ll4guX6utyXaqGxBoAUE5z7X26PwuRlqpqmLp5KpW3UEsv29O0IgvLl6rpbF2pDsQaAFBG4+2detr7YytLV01D1N1bozyGWhppeyZ+zX/jxHWELtDPVUiuAQDb8ZMdooc1Omvnq6HndYzHNnkNtfSu7a4fs/ZiSHX1C/XRwTLkGgCwhRL7nh7X04l/3HlTdfSSOnttkudQS+Ptsfo2iy+JJO2mU9RLHZ3u/AIAyB0l9j0N0VDNyfJ5d9JwHeK5Rd5DLX1mj9PcLL0km9pFXdVNx6gRuQaAvDXPvqYRGqGFAc7dVP9N4PNTCYRa+tqeoIlZeElKXZD2VkcdrIPVjh02AOSJtfYLjdGHej9YfaS99bJ2S6A7iYRa+tGeqlEJvyQ7Ulvt1FZt1UYt1EgNVYlsA0DOWGMXaoFmaIoma7ImZeFeHtt3tIYmdJ+PhEItrbL/p0EJviTllVFD1Vc1Fa7/CwCQNitUvP6vb7VQMd1Zuo/+qSoJbQcTC7Vk7Y26KaoXEgAA34z+pD8m+O2jBEMtSS/bs7P6dS0AALKplh7TqYm+tZpwqKWptmeCj+MGACCc1npOeyX8CSjnx1zuSBvzoXomfRIAALLuBI1JPNNZCLVUywzVTSpI/kQAAGRJgW7Ri6qbhe8TJX7pe4Mx9izNyNK5AABI0m56yvONQrctCzvqdQ4243VGtk4GAEBieuqTrGU6i6GW6pj/mPtVmL0TAgDgWXX9Q8+Zelm8hVbWLn1vMMNeoDezfE4AAHzoqEe0Z5bvc5nFHfU6LcwoDVTNbJ8WAAAnhRqgt7Oe6QA76nVm2gv0RpAzAwBQfp30iNoEeWZE1nfU6zQ3I/Wg6oc5OQAA5bCzHtI7gTIdbEe9zg/2Bt2ntQFnAADA9mR0tv6fGgR8/mLQUEvSeNtXHwSeAwAApTlA9+lngR+SHOjS9yYvghmtR7Rb6GkAALCZZnpMY4NnOoId9Tqr7GO6XotCTwMAAEn1dI36qVrwSEvRhFqSfrC36m4Vh54GACCvVdElujErd/Eum4hCLUkL7f26kydYAwCCqKELdI2aRhNpKbpQS9J39h7drR9CTwMAkFdq6Xxdp8ZRRVqKMtSS9KO9X/dpTuhpAADyQlP1VV/Vji7SUrShlqS19hXdrdcV7wwBAOlXpCt0lipHGWkp6lCvM8Heq6e0PPQ0AAA5p6bOVl/tHW2i14k+1JJUbF/SExrOPcwAAF5kdKj66CzVijzSUkpCvc7X9kkN0qTQ0wAApFp79dY52jUFiV4nRaFeZ4Z9UUP0vkpCTwQAkDLt1UsnqSg1iV4ndaFeZ54dppf0lpaGnggAIHq1dYS6q0eEX70qi5SGep219hON1Lt6W0tCTwUAEJ3q6qhO6qzDVSWViV4n1aHeYJX9WOM0XuP0uVaHngwAIKjK6qADVKQi7ZfqQG+QE6H+n5X2M32uaZqu6ZrGPhsA8kQdtVIrtVYr7aW9VTUH8vw/ORbqzS208zVfC7VIC/WtfpT0o0q0TKtCTwwAUCFVVEMZ1ZFURzuroRqooRqrsRrmVJo39/8BHNrjSVg3ApEAAAAldEVYdGRhdGU6Y3JlYXRlADIwMjEtMDMtMjVUMjA6MDg6MTgrMDA6MDAbewPqAAAAJXRFWHRkYXRlOm1vZGlmeQAyMDE2LTA0LTE2VDA4OjAxOjA4KzAwOjAwwqTkggAAAABJRU5ErkJggg==;" vertex="1" parent="1">
          <mxGeometry x="98" y="674" width="49" height="36" as="geometry" />
        </mxCell>
        <mxCell id="kSHrFHT4jz19YnqHGzNB-2088" value="" style="shape=image;verticalLabelPosition=bottom;labelBackgroundColor=default;verticalAlign=top;aspect=fixed;imageAspect=0;image=data:image/jpeg,/9j/4AAQSkZJRgABAQEBkAGQAAD/4QmQRXhpZgAATU0AKgAAAAgABgEOAAIAAACeAAAAVgESAAMAAAABAAEAAIdpAAQAAAABAAAA9JybAAEAAAFGAAAEKJyeAAEAAALeAAAFbpyfAAEAAAE8AAAITAAAAABBdXRvbWF0aW9uIGljb24uIFNpbXBsZSBzdHlsZSBkZXNpZ24gZnJvbSBpbmR1c3RyeSA0LjAgY29sbGVjdGlvbi4gVVggYW5kIFVJLiBQaXhlbCBwZXJmZWN0IHByZW1pdW0gYXV0b21hdGlvbiBpY29uLiBGb3Igd2ViIGRlc2lnbiwgYXBwcyBhbmQgcHJpbnRpbmcgdXNhZ2UuAAABkoYABwAAAyAAAAEGAAAAAEFTQ0lJAAAAU1NVQ3YzSDRzSUFBQUFBQUFFQUoxVVM0N2pJQkRkanpSM2lGakhrdm5ZUUY5aURoRDFBZ09KbWJhTlpYQ1BXcTNjZmJCakhKdzRzNWdkdkZjZnF1b1YzejkvSEE2Z0VzNUk4SGI0bm03aGJwcG1kSDRRM3RndXdQQzQ0SVB1bEI0Q2trZEVLK1B0WUVTVGdwWHdzdTVFcXdQWWpVMHp3ZGVaQk00TFB6cnRrbVFRNGVHY1poR05hTDgyZ0xLVmR0N0tqeFN0ekdYRyt0cDZHd2djQ2FWNzY0eWZjYmNoQmkxYTU4MzhzRFZPYnp0VnBHYXVIcjNYdzVvd2ViNFVYbDlDdlpzQ1l2ZE90L3NoRWpNWlBBSUZ3REhCM0ZqTldJU3V4Ly8ydkIzZTEwNWRkQ2UvN205N3J1YVVSSU4wRGZTK1p0bDJlMk9lRTR6MlBEWjkzWGlRWXMvK2NYS3B5Ni9xdDViZTdhWjVtR3ZxaHNtZXgyY0laWGRMTDNidG8vSlN5NXd6eEJXa0dSTlVaQVNWUEJNQ3dxd29PSmNRTWlFNHY4ZTZIYTZKWkFiZGFIRlQvT21XQ256OENRTnBad2t0Um1KVXhpYVMrclJTTkxOMmswajlZS1RwTG9tYjlmVzhqdEZOMnJIencxUUJRQWhGNVlERzJsNVV6VFNkY3dpckkxNEw1NEtIaW5ncTlMRC90azFTZGRiUE5TeDZCQ3Bzd25TRkdISkNTc1FJZ2lYS1ljbEIzUFRRZGFQU1JYa2NJRUNRbHBqbk5BZVB5d2g0UVNsa0dJT256Nk0ySWZTUWlCeU1mV09GMG1xaisrMm5VV0NHS2M5aGZoOTJUTFZ5K0lXaVZ3UHlySlRJSWZ4YXA2c05mYjBDMFFZbmNkYVBjZUdLNHM0OS9sR0xTVmt1QWx6L3NyRnFUYkRjOW1ZM095c3daLytxZ25ET0NrYUx2UlpPSENPTVB1dmZUS21CcnM2VWEzek9kSW5LakdnSk0xWkJuaEhKT0MwMWxscFBvNzcrQlhXbER5T1FCZ0FBAAAAAAAAAABBAHUAdABvAG0AYQB0AGkAbwBuACAAaQBjAG8AbgAuACAATQBvAG4AbwBjAGgAcgBvAG0AZQAgAHMAdAB5AGwAZQAgAGQAZQBzAGkAZwBuACAAZgByAG8AbQAgAGkAbgBkAHUAcwB0AHIAeQAgADQALgAwACAAaQBjAG8AbgAgAGMAbwBsAGwAZQBjAHQAaQBvAG4ALgAgAFUASQAgAGEAbgBkACAAVQBYAC4AIABQAGkAeABlAGwAIABwAGUAcgBmAGUAYwB0ACAAYQB1AHQAbwBtAGEAdABpAG8AbgAgAGkAYwBvAG4ALgAgAEYAbwByACAAdwBlAGIAIABkAGUAcwBpAGcAbgAsACAAYQBwAHAAcwAsACAAcwBvAGYAdAB3AGEAcgBlACwAIABwAHIAaQBuAHQAIAB1AHMAYQBnAGUALgAAAGkAYwBvAG4AOwAgAGEAdQB0AG8AbQBhAHQAaQBvAG4AOwAgAHIAbwBiAG8AdAA7ACAAYQByAG0AOwAgAHAAcgBvAGQAdQBjAHQAaQBvAG4AOwAgAHIAbwBiAG8AdABpAGMAOwAgAG0AYQBuAHUAZgBhAGMAdAB1AHIAaQBuAGcAOwAgAG0AYQBjAGgAaQBuAGUAOwAgAHYAZQBjAHQAbwByADsAIABpAG4AZAB1AHMAdAByAHkAOwAgAHAAcgBvAGMAZQBzAHMAOwAgAGwAaQBuAGUAOwAgAGYAYQBjAHQAbwByAHkAOwAgAGkAbgBkAHUAcwB0AHIAaQBhAGwAOwAgAGkAbABsAHUAcwB0AHIAYQB0AGkAbwBuADsAIABhAHUAdABvAG0AYQB0AGUAZAA7ACAAdABlAGMAaABuAG8AbABvAGcAeQA7ACAAZABlAHMAaQBnAG4AOwAgAHAAbABhAG4AdAA7ACAAbQBhAG4AdQBmAGEAYwB0AHUAcgBlADsAIABjAG8AbQBwAHUAdABlAHIAOwAgAGkAcwBvAGwAYQB0AGUAZAA7ACAAaABhAG4AZAA7ACAAaQBvAHQAOwAgAHMAeQBtAGIAbwBsADsAIABzAGkAZwBuADsAIABjAG8AbgB2AGUAeQBvAHIAOwAgAHAAcgBvAGQAdQBjAHQAOwAgAG0AZQBjAGgAYQBuAGkAYwBhAGwAOwAgAGYAdQB0AHUAcgBlADsAIAB0AGUAYwBoADsAIABhAHUAdABvADsAIABtAG8AZABlAHIAbgBpAHoAYQB0AGkAbwBuADsAIAByAG8AYgBvAHQAaQBjAHMAOwAgAGUAcQB1AGkAcABtAGUAbgB0ADsAIABpAG4AdABlAGcAcgBhAHQAaQBvAG4AOwAgAHMAeQBzAHQAZQBtADsAIAA0ADsAIAA0AC4AMAA7ACAAbABvAGcAbwA7ACAAYgBsAGEAYwBrAAAAQQB1AHQAbwBtAGEAdABpAG8AbgAgAGkAYwBvAG4ALgAgAFMAaQBtAHAAbABlACAAcwB0AHkAbABlACAAZABlAHMAaQBnAG4AIABmAHIAbwBtACAAaQBuAGQAdQBzAHQAcgB5ACAANAAuADAAIABjAG8AbABsAGUAYwB0AGkAbwBuAC4AIABVAFgAIABhAG4AZAAgAFUASQAuACAAUABpAHgAZQBsACAAcABlAHIAZgBlAGMAdAAgAHAAcgBlAG0AaQB1AG0AIABhAHUAdABvAG0AYQB0AGkAbwBuACAAaQBjAG8AbgAuACAARgBvAHIAIAB3AGUAYgAgAGQAZQBzAGkAZwBuACwAIABhAHAAcABzACAAYQBuAGQAIABwAHIAaQBuAHQAaQBuAGcAIAB1AHMAYQBnAGUALgAAAP/hfcFodHRwOi8vbnMuYWRvYmUuY29tL3hhcC8xLjAvADw/eHBhY2tldCBiZWdpbj0i77u/IiBpZD0iVzVNME1wQ2VoaUh6cmVTek5UY3prYzlkIj8+DQo8eDp4bXBtZXRhIHhtbG5zOng9ImFkb2JlOm5zOm1ldGEvIiB4OnhtcHRrPSJYTVAgQ29yZSA0LjQuMC1FeGl2MiI+DQoJPHJkZjpSREYgeG1sbnM6cmRmPSJodHRwOi8vd3d3LnczLm9yZy8xOTk5LzAyLzIyLXJkZi1zeW50YXgtbnMjIj4NCgkJPHJkZjpEZXNjcmlwdGlvbiByZGY6YWJvdXQ9IiIgeG1sbnM6cGRmPSJodHRwOi8vbnMuYWRvYmUuY29tL3BkZi8xLjMvIiB4bWxuczpkYz0iaHR0cDovL3B1cmwub3JnL2RjL2VsZW1lbnRzLzEuMS8iIHhtbG5zOnhtcD0iaHR0cDovL25zLmFkb2JlLmNvbS94YXAvMS4wLyIgeG1sbnM6X2RmbHRfPSJodHRwOi8vbnMuYWRvYmUuY29tL3hhcC8xLjAvc1R5cGUvUmVzb3VyY2VFdmVudCMiIHhtbG5zOnhtcE1NPSJodHRwOi8vbnMuYWRvYmUuY29tL3hhcC8xLjAvbW0vIiB4bWxuczppbGx1c3RyYXRvcj0iaHR0cDovL25zLmFkb2JlLmNvbS9pbGx1c3RyYXRvci8xLjAvIiB4bWxuczpNaWNyb3NvZnRQaG90bz0iaHR0cDovL25zLm1pY3Jvc29mdC5jb20vcGhvdG8vMS4wLyIgeG1sbnM6cGhvdG9zaG9wPSJodHRwOi8vbnMuYWRvYmUuY29tL3Bob3Rvc2hvcC8xLjAvIiBwZGY6UHJvZHVjZXI9IkFkb2JlIFBERiBsaWJyYXJ5IDEwLjAxIiBkYzpmb3JtYXQ9ImltYWdlL2pwZWciIHhtcDpDcmVhdG9yVG9vbD0iQWRvYmUgSWxsdXN0cmF0b3IgQ0MgMjIuMSAoV2luZG93cykiIHhtcDpDcmVhdGVEYXRlPSIyMDE4LTA5LTI5VDE1OjQwOjMyKzAzOjAwIiB4bXA6TW9kaWZ5RGF0ZT0iMjAxOC0wOS0yOVQxMjo0MDozNFoiIHhtcDpNZXRhZGF0YURhdGU9IjIwMTgtMDktMjlUMTU6NDA6MzIrMDM6MDAiIHhtcE1NOk9yaWdpbmFsRG9jdW1lbnRJRD0idXVpZDpDMUJDQ0UxODcxQjhEQjExOTkzMTkwRkNENTJCNEU5RiIgeG1wTU06RG9jdW1lbnRJRD0ieG1wLmRpZDoxMzYzN2M2OS1hMDZlLTNmNGItYjgxNS0zODI1ZTg4NGFkOWIiIHhtcE1NOkluc3RhbmNlSUQ9InhtcC5paWQ6MTM2MzdjNjktYTA2ZS0zZjRiLWI4MTUtMzgyNWU4ODRhZDliIiB4bXBNTTpSZW5kaXRpb25DbGFzcz0icHJvb2Y6cGRmIiBpbGx1c3RyYXRvcjpTdGFydHVwUHJvZmlsZT0iTW9iaWxlIj4NCgkJCTxkYzp0aXRsZT4NCgkJCQk8cmRmOkFsdD4NCgkJCQkJPHJkZjpsaSB4bWw6bGFuZz0ieC1yZXBhaXIiPkF1dG9tYXRpb24gaWNvbi4gTW9ub2Nocm9tZSBzdHlsZSBkZXNpZ24gZnJvbSBpbmR1c3RyeSA0LjAgaWNvbiBjb2xsZWN0aW9uLiBVSSBhbmQgVVguIFBpeGVsIHBlcmZlY3QgYXV0b21hdGlvbiBpY29uLiBGb3Igd2ViIGRlc2lnbiwgYXBwcywgc29mdHdhcmUsIHByaW50IHVzYWdlLjwvcmRmOmxpPg0KCQkJCTwvcmRmOkFsdD4NCgkJCTwvZGM6dGl0bGU+DQoJCQk8ZGM6ZGVzY3JpcHRpb24+DQoJCQkJPHJkZjpBbHQ+DQoJCQkJCTxyZGY6bGkgeG1sOmxhbmc9IngtcmVwYWlyIj5BdXRvbWF0aW9uIGljb24uIFNpbXBsZSBzdHlsZSBkZXNpZ24gZnJvbSBpbmR1c3RyeSA0LjAgY29sbGVjdGlvbi4gVVggYW5kIFVJLiBQaXhlbCBwZXJmZWN0IHByZW1pdW0gYXV0b21hdGlvbiBpY29uLiBGb3Igd2ViIGRlc2lnbiwgYXBwcyBhbmQgcHJpbnRpbmcgdXNhZ2UuPC9yZGY6bGk+DQoJCQkJPC9yZGY6QWx0Pg0KCQkJPC9kYzpkZXNjcmlwdGlvbj4NCgkJCTxkYzpzdWJqZWN0Pg0KCQkJCTxyZGY6QmFnPg0KCQkJCQk8cmRmOmxpPmljb248L3JkZjpsaT4NCgkJCQkJPHJkZjpsaT5hdXRvbWF0aW9uPC9yZGY6bGk+DQoJCQkJCTxyZGY6bGk+cm9ib3Q8L3JkZjpsaT4NCgkJCQkJPHJkZjpsaT5hcm08L3JkZjpsaT4NCgkJCQkJPHJkZjpsaT5wcm9kdWN0aW9uPC9yZGY6bGk+DQoJCQkJCTxyZGY6bGk+cm9ib3RpYzwvcmRmOmxpPg0KCQkJCQk8cmRmOmxpPm1hbnVmYWN0dXJpbmc8L3JkZjpsaT4NCgkJCQkJPHJkZjpsaT5tYWNoaW5lPC9yZGY6bGk+DQoJCQkJCTxyZGY6bGk+dmVjdG9yPC9yZGY6bGk+DQoJCQkJCTxyZGY6bGk+aW5kdXN0cnk8L3JkZjpsaT4NCgkJCQkJPHJkZjpsaT5wcm9jZXNzPC9yZGY6bGk+DQoJCQkJCTxyZGY6bGk+bGluZTwvcmRmOmxpPg0KCQkJCQk8cmRmOmxpPmZhY3Rvcnk8L3JkZjpsaT4NCgkJCQkJPHJkZjpsaT5pbmR1c3RyaWFsPC9yZGY6bGk+DQoJCQkJCTxyZGY6bGk+aWxsdXN0cmF0aW9uPC9yZGY6bGk+DQoJCQkJCTxyZGY6bGk+YXV0b21hdGVkPC9yZGY6bGk+DQoJCQkJCTxyZGY6bGk+dGVjaG5vbG9neTwvcmRmOmxpPg0KCQkJCQk8cmRmOmxpPmRlc2lnbjwvcmRmOmxpPg0KCQkJCQk8cmRmOmxpPnBsYW50PC9yZGY6bGk+DQoJCQkJCTxyZGY6bGk+bWFudWZhY3R1cmU8L3JkZjpsaT4NCgkJCQkJPHJkZjpsaT5jb21wdXRlcjwvcmRmOmxpPg0KCQkJCQk8cmRmOmxpPmlzb2xhdGVkPC9yZGY6bGk+DQoJCQkJCTxyZGY6bGk+aGFuZDwvcmRmOmxpPg0KCQkJCQk8cmRmOmxpPmlvdDwvcmRmOmxpPg0KCQkJCQk8cmRmOmxpPnN5bWJvbDwvcmRmOmxpPg0KCQkJCQk8cmRmOmxpPnNpZ248L3JkZjpsaT4NCgkJCQkJPHJkZjpsaT5jb252ZXlvcjwvcmRmOmxpPg0KCQkJCQk8cmRmOmxpPnByb2R1Y3Q8L3JkZjpsaT4NCgkJCQkJPHJkZjpsaT5tZWNoYW5pY2FsPC9yZGY6bGk+DQoJCQkJCTxyZGY6bGk+ZnV0dXJlPC9yZGY6bGk+DQoJCQkJCTxyZGY6bGk+dGVjaDwvcmRmOmxpPg0KCQkJCQk8cmRmOmxpPmF1dG88L3JkZjpsaT4NCgkJCQkJPHJkZjpsaT5tb2Rlcm5pemF0aW9uPC9yZGY6bGk+DQoJCQkJCTxyZGY6bGk+cm9ib3RpY3M8L3JkZjpsaT4NCgkJCQkJPHJkZjpsaT5lcXVpcG1lbnQ8L3JkZjpsaT4NCgkJCQkJPHJkZjpsaT5pbnRlZ3JhdGlvbjwvcmRmOmxpPg0KCQkJCQk8cmRmOmxpPnN5c3RlbTwvcmRmOmxpPg0KCQkJCQk8cmRmOmxpPjQ8L3JkZjpsaT4NCgkJCQkJPHJkZjpsaT40LjA8L3JkZjpsaT4NCgkJCQkJPHJkZjpsaT5sb2dvPC9yZGY6bGk+DQoJCQkJCTxyZGY6bGk+YmxhY2s8L3JkZjpsaT4NCgkJCQk8L3JkZjpCYWc+DQoJCQk8L2RjOnN1YmplY3Q+DQoJCQk8ZGM6Y3JlYXRvcj4NCgkJCQk8cmRmOlNlcT4NCgkJCQkJPHJkZjpsaT5WZWN0b3JTdG9jay5jb20vMzYxNzE5NDE8L3JkZjpsaT4NCgkJCQk8L3JkZjpTZXE+DQoJCQk8L2RjOmNyZWF0b3I+DQoJCQk8eG1wOlRodW1ibmFpbHM+DQoJCQkJPHJkZjpBbHQ+DQoJCQkJCTxyZGY6bGkgX2RmbHRfOndpZHRoPSIyNTYiIF9kZmx0XzpoZWlnaHQ9IjE5NiIgX2RmbHRfOmZvcm1hdD0iSlBFRyIgX2RmbHRfOmltYWdlPSIvOWovNEFBUVNrWkpSZ0FCQWdFQmtBR1FBQUQvN1FBc1VHaHZkRzl6YUc5d0lETXVNQUE0UWtsTkErMEFBQUFBQUJBQmtBQUFBQUVBJiN4QTtBUUdRQUFBQUFRQUIvK0lNV0VsRFExOVFVazlHU1V4RkFBRUJBQUFNU0V4cGJtOENFQUFBYlc1MGNsSkhRaUJZV1ZvZ0I4NEFBZ0FKJiN4QTtBQVlBTVFBQVlXTnpjRTFUUmxRQUFBQUFTVVZESUhOU1IwSUFBQUFBQUFBQUFBQUFBQUFBQVBiV0FBRUFBQUFBMHkxSVVDQWdBQUFBJiN4QTtBQUFBQUFBQUFBQUFBQUFBQUFBQUFBQUFBQUFBQUFBQUFBQUFBQUFBQUFBQUFBQUFBQUFBQUFBQUFBQVJZM0J5ZEFBQUFWQUFBQUF6JiN4QTtaR1Z6WXdBQUFZUUFBQUJzZDNSd2RBQUFBZkFBQUFBVVltdHdkQUFBQWdRQUFBQVVjbGhaV2dBQUFoZ0FBQUFVWjFoWldnQUFBaXdBJiN4QTtBQUFVWWxoWldnQUFBa0FBQUFBVVpHMXVaQUFBQWxRQUFBQndaRzFrWkFBQUFzUUFBQUNJZG5WbFpBQUFBMHdBQUFDR2RtbGxkd0FBJiN4QTtBOVFBQUFBa2JIVnRhUUFBQS9nQUFBQVViV1ZoY3dBQUJBd0FBQUFrZEdWamFBQUFCREFBQUFBTWNsUlNRd0FBQkR3QUFBZ01aMVJTJiN4QTtRd0FBQkR3QUFBZ01ZbFJTUXdBQUJEd0FBQWdNZEdWNGRBQUFBQUJEYjNCNWNtbG5hSFFnS0dNcElERTVPVGdnU0dWM2JHVjBkQzFRJiN4QTtZV05yWVhKa0lFTnZiWEJoYm5rQUFHUmxjMk1BQUFBQUFBQUFFbk5TUjBJZ1NVVkROakU1TmpZdE1pNHhBQUFBQUFBQUFBQUFBQUFTJiN4QTtjMUpIUWlCSlJVTTJNVGsyTmkweUxqRUFBQUFBQUFBQUFBQUFBQUFBQUFBQUFBQUFBQUFBQUFBQUFBQUFBQUFBQUFBQUFBQUFBQUFBJiN4QTtBQUFBQUFBQUFBQUFBRmhaV2lBQUFBQUFBQUR6VVFBQkFBQUFBUmJNV0ZsYUlBQUFBQUFBQUFBQUFBQUFBQUFBQUFCWVdWb2dBQUFBJiN4QTtBQUFBYjZJQUFEajFBQUFEa0ZoWldpQUFBQUFBQUFCaW1RQUF0NFVBQUJqYVdGbGFJQUFBQUFBQUFDU2dBQUFQaEFBQXRzOWtaWE5qJiN4QTtBQUFBQUFBQUFCWkpSVU1nYUhSMGNEb3ZMM2QzZHk1cFpXTXVZMmdBQUFBQUFBQUFBQUFBQUJaSlJVTWdhSFIwY0RvdkwzZDNkeTVwJiN4QTtaV011WTJnQUFBQUFBQUFBQUFBQUFBQUFBQUFBQUFBQUFBQUFBQUFBQUFBQUFBQUFBQUFBQUFBQUFBQUFBQUFBQUFBQVpHVnpZd0FBJiN4QTtBQUFBQUFBdVNVVkRJRFl4T1RZMkxUSXVNU0JFWldaaGRXeDBJRkpIUWlCamIyeHZkWElnYzNCaFkyVWdMU0J6VWtkQ0FBQUFBQUFBJiN4QTtBQUFBQUFBdVNVVkRJRFl4T1RZMkxUSXVNU0JFWldaaGRXeDBJRkpIUWlCamIyeHZkWElnYzNCaFkyVWdMU0J6VWtkQ0FBQUFBQUFBJiN4QTtBQUFBQUFBQUFBQUFBQUFBQUFBQUFHUmxjMk1BQUFBQUFBQUFMRkpsWm1WeVpXNWpaU0JXYVdWM2FXNW5JRU52Ym1ScGRHbHZiaUJwJiN4QTtiaUJKUlVNMk1UazJOaTB5TGpFQUFBQUFBQUFBQUFBQUFDeFNaV1psY21WdVkyVWdWbWxsZDJsdVp5QkRiMjVrYVhScGIyNGdhVzRnJiN4QTtTVVZETmpFNU5qWXRNaTR4QUFBQUFBQUFBQUFBQUFBQUFBQUFBQUFBQUFBQUFBQUFBQUIyYVdWM0FBQUFBQUFUcFA0QUZGOHVBQkRQJiN4QTtGQUFEN2N3QUJCTUxBQU5jbmdBQUFBRllXVm9nQUFBQUFBQk1DVllBVUFBQUFGY2Y1MjFsWVhNQUFBQUFBQUFBQVFBQUFBQUFBQUFBJiN4QTtBQUFBQUFBQUFBQUFBQUtQQUFBQUFuTnBaeUFBQUFBQVExSlVJR04xY25ZQUFBQUFBQUFFQUFBQUFBVUFDZ0FQQUJRQUdRQWVBQ01BJiN4QTtLQUF0QURJQU53QTdBRUFBUlFCS0FFOEFWQUJaQUY0QVl3Qm9BRzBBY2dCM0FId0FnUUNHQUlzQWtBQ1ZBSm9BbndDa0FLa0FyZ0N5JiN4QTtBTGNBdkFEQkFNWUF5d0RRQU5VQTJ3RGdBT1VBNndEd0FQWUErd0VCQVFjQkRRRVRBUmtCSHdFbEFTc0JNZ0U0QVQ0QlJRRk1BVklCJiN4QTtXUUZnQVdjQmJnRjFBWHdCZ3dHTEFaSUJtZ0doQWFrQnNRRzVBY0VCeVFIUkFka0I0UUhwQWZJQitnSURBZ3dDRkFJZEFpWUNMd0k0JiN4QTtBa0VDU3dKVUFsMENad0p4QW5vQ2hBS09BcGdDb2dLc0FyWUN3UUxMQXRVQzRBTHJBdlVEQUFNTEF4WURJUU10QXpnRFF3TlBBMW9EJiN4QTtaZ055QTM0RGlnT1dBNklEcmdPNkE4Y0Qwd1BnQSt3RCtRUUdCQk1FSUFRdEJEc0VTQVJWQkdNRWNRUitCSXdFbWdTb0JMWUV4QVRUJiN4QTtCT0VFOEFUK0JRMEZIQVVyQlRvRlNRVllCV2NGZHdXR0JaWUZwZ1cxQmNVRjFRWGxCZllHQmdZV0JpY0dOd1pJQmxrR2FnWjdCb3dHJiN4QTtuUWF2QnNBRzBRYmpCdlVIQndjWkJ5c0hQUWRQQjJFSGRBZUdCNWtIckFlL0I5SUg1UWY0Q0FzSUh3Z3lDRVlJV2dodUNJSUlsZ2lxJiN4QTtDTDRJMGdqbkNQc0pFQWtsQ1RvSlR3bGtDWGtKandta0Nib0p6d25sQ2ZzS0VRb25DajBLVkFwcUNvRUttQXF1Q3NVSzNBcnpDd3NMJiN4QTtJZ3M1QzFFTGFRdUFDNWdMc0F2SUMrRUwrUXdTRENvTVF3eGNESFVNamd5bkRNQU0yUXp6RFEwTkpnMUFEVm9OZEEyT0Rha053dzNlJiN4QTtEZmdPRXc0dURra09aQTUvRHBzT3RnN1NEdTRQQ1E4bEQwRVBYZzk2RDVZUHN3L1BEK3dRQ1JBbUVFTVFZUkIrRUpzUXVSRFhFUFVSJiN4QTtFeEV4RVU4UmJSR01FYW9SeVJIb0VnY1NKaEpGRW1RU2hCS2pFc01TNHhNREV5TVRReE5qRTRNVHBCUEZFK1VVQmhRbkZFa1VhaFNMJiN4QTtGSzBVemhUd0ZSSVZOQlZXRlhnVm14VzlGZUFXQXhZbUZra1diQmFQRnJJVzFoYjZGeDBYUVJkbEY0a1hyaGZTRi9jWUd4aEFHR1VZJiN4QTtpaGl2R05VWStoa2dHVVVaYXhtUkdiY1ozUm9FR2lvYVVScDNHcDRheFJyc0d4UWJPeHRqRzRvYnNodmFIQUljS2h4U0hIc2NveHpNJiN4QTtIUFVkSGgxSEhYQWRtUjNESGV3ZUZoNUFIbW9lbEI2K0h1a2ZFeDgrSDJrZmxCKy9IK29nRlNCQklHd2dtQ0RFSVBBaEhDRklJWFVoJiN4QTtvU0hPSWZzaUp5SlZJb0lpcnlMZEl3b2pPQ05tSTVRandpUHdKQjhrVFNSOEpLc2syaVVKSlRnbGFDV1hKY2NsOXlZbkpsY21oeWEzJiN4QTtKdWduR0NkSkozb25xeWZjS0Ewb1B5aHhLS0lvMUNrR0tUZ3BheW1kS2RBcUFpbzFLbWdxbXlyUEt3SXJOaXRwSzUwcjBTd0ZMRGtzJiN4QTtiaXlpTE5jdERDMUJMWFl0cXkzaExoWXVUQzZDTHJjdTdpOGtMMW92a1MvSEwvNHdOVEJzTUtRdzJ6RVNNVW94Z2pHNk1mSXlLakpqJiN4QTtNcHN5MURNTk0wWXpmek80TS9FMEt6UmxOSjQwMkRVVE5VMDFoelhDTmYwMk56WnlOcTQyNlRja04yQTNuRGZYT0JRNFVEaU1PTWc1JiN4QTtCVGxDT1g4NXZEbjVPalk2ZERxeU91ODdMVHRyTzZvNzZEd25QR1U4cER6alBTSTlZVDJoUGVBK0lENWdQcUErNEQ4aFAyRS9vai9pJiN4QTtRQ05BWkVDbVFPZEJLVUZxUWF4QjdrSXdRbkpDdFVMM1F6cERmVVBBUkFORVIwU0tSTTVGRWtWVlJacEYza1lpUm1kR3EwYndSelZIJiN4QTtlMGZBU0FWSVMwaVJTTmRKSFVsalNhbEo4RW8zU24xS3hFc01TMU5MbWt2aVRDcE1ja3k2VFFKTlNrMlRUZHhPSlU1dVRyZFBBRTlKJiN4QTtUNU5QM1ZBblVIRlF1MUVHVVZCUm0xSG1VakZTZkZMSFV4TlRYMU9xVS9aVVFsU1BWTnRWS0ZWMVZjSldEMVpjVnFsVzkxZEVWNUpYJiN4QTs0Rmd2V0gxWXkxa2FXV2xadUZvSFdsWmFwbHIxVzBWYmxWdmxYRFZjaGx6V1hTZGRlRjNKWGhwZWJGNjlYdzlmWVYrellBVmdWMkNxJiN4QTtZUHhoVDJHaVlmVmlTV0tjWXZCalEyT1hZK3RrUUdTVVpPbGxQV1dTWmVkbVBXYVNadWhuUFdlVForbG9QMmlXYU94cFEybWFhZkZxJiN4QTtTR3FmYXZkclQydW5hLzlzVjJ5dmJRaHRZRzI1YmhKdWEyN0VieDV2ZUcvUmNDdHdobkRnY1RweGxYSHdja3R5cG5NQmMxMXp1SFFVJiN4QTtkSEIwekhVb2RZVjE0WFkrZHB0MitIZFdkN040RVhodWVNeDVLbm1KZWVkNlJucWxld1I3WTN2Q2ZDRjhnWHpoZlVGOW9YNEJmbUorJiN4QTt3bjhqZjRSLzVZQkhnS2lCQ29GcmdjMkNNSUtTZ3ZTRFY0TzZoQjJFZ0lUamhVZUZxNFlPaG5LRzE0YzdoNStJQklocGlNNkpNNG1aJiN4QTtpZjZLWklyS2l6Q0xsb3Y4akdPTXlvMHhqWmlOLzQ1bWpzNlBObytla0FhUWJwRFdrVCtScUpJUmtucVM0NU5OazdhVUlKU0tsUFNWJiN4QTtYNVhKbGpTV241Y0tsM1dYNEpoTW1MaVpKSm1RbWZ5YWFKclZtMEticjV3Y25JbWM5NTFrbmRLZVFKNnVueDJmaTUvNm9HbWcyS0ZIJiN4QTtvYmFpSnFLV293YWpkcVBtcEZha3g2VTRwYW1tR3FhTHB2Mm5icWZncUZLb3hLazNxYW1xSEtxUHF3S3JkYXZwckZ5czBLMUVyYml1JiN4QTtMYTZocnhhdmk3QUFzSFd3NnJGZ3NkYXlTN0xDc3ppenJyUWx0SnkxRTdXS3RnRzJlYmJ3dDJpMzRMaFp1Tkc1U3JuQ3VqdTZ0YnN1JiN4QTt1NmU4SWJ5YnZSVzlqNzRLdm9TKy83OTZ2L1hBY01Ec3dXZkI0OEpmd3R2RFdNUFV4RkhFenNWTHhjakdSc2JEeDBISHY4Zzl5THpKJiN4QTtPc201eWpqS3Q4czJ5N2JNTmN5MXpUWE50YzQyenJiUE44KzQwRG5RdXRFODBiN1NQOUxCMDBUVHh0UkoxTXZWVHRYUjFsWFcyTmRjJiN4QTsxK0RZWk5qbzJXelo4ZHAyMnZ2YmdOd0YzSXJkRU4yVzNoemVvdDhwMzYvZ051Qzk0VVRoek9KVDR0dmpZK1ByNUhQay9PV0U1ZzNtJiN4QTtsdWNmNTZub011aTg2VWJwME9wYjZ1WHJjT3Y3N0lidEVlMmM3aWp1dE85QTc4endXUERsOFhMeC8vS004eG56cC9RMDlNTDFVUFhlJiN4QTs5bTMyKy9lSytCbjRxUGs0K2NmNlYvcm4rM2Y4Qi95WS9Tbjl1djVML3R6L2JmLy8vKzRBRGtGa2IySmxBR1RBQUFBQUFmL2JBSVFBJiN4QTtCZ1FFQkFVRUJnVUZCZ2tHQlFZSkN3Z0dCZ2dMREFvS0N3b0tEQkFNREF3TURBd1FEQTRQRUE4T0RCTVRGQlFURXh3Ykd4c2NIeDhmJiN4QTtIeDhmSHg4Zkh3RUhCd2NOREEwWUVCQVlHaFVSRlJvZkh4OGZIeDhmSHg4Zkh4OGZIeDhmSHg4Zkh4OGZIeDhmSHg4Zkh4OGZIeDhmJiN4QTtIeDhmSHg4Zkh4OGZIeDhmSHg4Zi84QUFFUWdBeEFFQUF3RVJBQUlSQVFNUkFmL0VBYUlBQUFBSEFRRUJBUUVBQUFBQUFBQUFBQVFGJiN4QTtBd0lHQVFBSENBa0tDd0VBQWdJREFRRUJBUUVBQUFBQUFBQUFBUUFDQXdRRkJnY0lDUW9MRUFBQ0FRTURBZ1FDQmdjREJBSUdBbk1CJiN4QTtBZ01SQkFBRklSSXhRVkVHRTJFaWNZRVVNcEdoQnhXeFFpUEJVdEhoTXhaaThDUnlndkVsUXpSVGtxS3lZM1BDTlVRbms2T3pOaGRVJiN4QTtaSFREMHVJSUpvTUpDaGdaaEpSRlJxUzBWdE5WS0JyeTQvUEUxT1QwWlhXRmxhVzF4ZFhsOVdaMmhwYW10c2JXNXZZM1IxZG5kNGVYJiN4QTtwN2ZIMStmM09FaFlhSGlJbUtpNHlOam8rQ2s1U1ZscGVZbVpxYm5KMmVuNUtqcEtXbXA2aXBxcXVzcmE2dm9SQUFJQ0FRSURCUVVFJiN4QTtCUVlFQ0FNRGJRRUFBaEVEQkNFU01VRUZVUk5oSWdaeGdaRXlvYkh3Rk1IUjRTTkNGVkppY3ZFekpEUkRnaGFTVXlXaVk3TENCM1BTJiN4QTtOZUpFZ3hkVWt3Z0pDaGdaSmpaRkdpZGtkRlUzOHFPend5Z3AwK1B6aEpTa3RNVFU1UFJsZFlXVnBiWEYxZVgxUmxabWRvYVdwcmJHJiN4QTsxdWIyUjFkbmQ0ZVhwN2ZIMStmM09FaFlhSGlJbUtpNHlOam8rRGxKV1dsNWlabXB1Y25aNmZrcU9rcGFhbnFLbXFxNnl0cnErdi9hJiN4QTtBQXdEQVFBQ0VRTVJBRDhBOVU0cTRrQUVrMEEzSk9Ldm1memYrYVhuYnpKK1lYMUx5aExkQ3poWTIrakxZM0NpT1dhTnc4bHpjb2drJiN4QTtFMFRSeHljVWFudzdqY0VaYUlnRGRvTXlUc3lEeXIvemtENWkweXl2eCtZZWgzTnNiQlZSTHVDMmVGNVoyWUFRT2twU01TRkMwbXpMJiN4QTs4S25iQVlkeVJrUFY2bjVFOCthWDV4MHlTOHM0SjdPYUJ3bHpZM2E4Sm8rUTVSc1ZCUHd5THVweUJGTmtaV3lYQXlkaXJzVmRpcnNWJiN4QTtkaXJzVmRpcnNWZU4vbXA1cTgyM0huS0R5dHBkM0w1YnRkT2dPdDNPdlJzWlRKYXdJVEl2MVZCeWtDdnR3SitLbTQ0NVpFQ3JhcGszJiN4QTtTRy9LL3dBMithYkR6aEY1WjFIVWw4d2FYck5xL21DMzF5NmQ0SjB0cFZvcXJieXNRZzlSRCs3WG9EeUh3akdRRkxBbTZlcEh6dDVVJiN4QTsvVFVHaS9wT0U2bGMyLzF5Q0ZTU3IyNERONmdrQTlQanhRbjdXUW90bkVFNGhtaG5oU2FHUlpZWkZEeHlJUXlzcEZRVkkySU9CSy9GJiN4QTtYWXE3RldPZWVmTU4zbzJscWJOSEU4NVpXdXhHWlZ0NDFXclNjQnM4aE5FaWpKK0oySGJsaEFZeU5QS2J5V0tWM20xT1NLYVlGeVo3JiN4QTt4N2FkcUkvR1drMTZ6OGhHNEt1OE1NTUt0OEtzYVZ5Yld5RHlqNWoxYlROUWh0ZjMxeGFTU0NLNHNHNXVZeFdNTTBLTkpjdkZKRUo0JiN4QTszZUpaWGlraVBxUWtVSzRDR1FMMW5JTmpzVmRpcVIrYi9NemVYdE5ndVk3UTMxemQzbHRZV3RzSEVRYWE2bEVhY3BHRGNWcWV0RGhBJiN4QTt0Qk5QTy9QL0FPZk9wK1Nwb2JIVlBMYUxxZHpHSm9JRnZsa1VSY2l2TjJXSGFyTFJRT3REMDd5RUxhNVpLNlBtRHpINW4xenpIcTgyJiN4QTtyYXZkdmMza3pGdVRFOFVGYWhZMTZJcTlnTXVBcG9KdGtlbmZuWithT253V2x2YjYvT1lMUGFGSlZqbHF0YThYWjFaM0hZY2lhRHBnJiN4QTs0QXlFeSt1Znk1ODF5ZWJQSldsZVlKWWhCTmV4dDYwUzE0aVNLUm9wT05hbmlXakpIdGxFaFJjaUpzV3lQQXlTN3pKL3lqdXFmOHdjJiN4QTsvd0R5YWJDRUhrK2NmK2NWN3E1dXZPV28vV1pYbityYVY2VnY2akYvVGpXZEtJbGE4VkhJN0R4eTNKeWFjWE43L3dDZXZJK2llZE5BJiN4QTtrMGJWbFlRbDFsaG5pb0pZcEU2UEdXREN0Q1ZPM1FuS2dhYlpSc0pob0dqdG8rbFE2ZWIrNjFJUURpdDFmTWtrNVhzR2VOSWcxUEVpJiN4QTt2amlTa0Nrd3dKZGlyd3E4L01YenpkZm1GNW8wUzIxa1dkdHBiaVBUTEdDMGhtbGtkNktwZDVGUENKVHZMSXhvdGZETE9FVTA4UnNzJiN4QTtKZjhBUGY4QU03NnZxc1kxaTNMYVZJd1RVVXQ0REJjL3ZPQ3hyVlB0T0FYajQ5UURVVStJUzRBeDhRc2h2dnpWL01DeDh1YVhxOE91JiN4QTtmcEtXOFcyV2UyV3lnakVrMTVHWE1Oa3dSakxKYlVBa1BFcnlQRTc3WU9FSjR6U3p5cCtadjVpYXpxZXNXVW5taUoyc0hqaHMvcXRqJiN4QTtidjZ6U3N5bVoySzhJNElRbFpYSm9LaWg3NG1JVVNKNnZVUHllOCthejV2OHZ6ejZyYUNPNHNaamJEVVlnUmJYZ1d2NzJFSHAwK0x0JiN4QTs0ZUFoSVUyUWxZWjdrV2JzVmVkZm1IK1U3NjdxbHY1ajh1WHY2RjgyUlN4QjlVNVNVTnNpc2pwd1U4U3hERHFOd0tIYkpSbFRDVUwzJiN4QTtITjVKK2Fua3ZYdkplbVhXdWFwUGFlWTlSMWFXZXkvU3QyWkV1TGUxZUF3eHJEQ0pVVGtWYy9aUmdsUEE1WkUyMVRpUXdiVlB5OWkwJiN4QTtmeUZvL21xLzFPZjE5YTlRV3RwYlFDVkk0VitFK3JNMHNmSGx5cFFLZXRNbHhiMHhNYUZ2V2Y4QW5IajgwNHBwYlR5SzF0SWJlT054JiN4QTtwa3lSVTRGUkpjVEc0a01yMTVtdkhpZ3AwNzdWemoxYk1jK2o2QXl0dWRpcnNWVUwrL3M5UHNaNzY5bVczczdXTnBiaWR6UlVSQlZtJiN4QTtQeUdLdklOVzg4ZVlOTDA2ejE3eS9wbWo2VFo2N2UybGhCYlhpdkxkTkRLQ2tNMHl3U3dwQ3FydUloeXBYZWhybGdEVVpIbUdUL2w1JiN4QTs1djA2VFdML0FNblhWamE2WjVnMHBGWXhXVGVwYTNGclFHT1NCeU9RVlJJQjZiYnJYYnZTTWgxWlJQUm4rUlp1eFYyS3NIL05xNXQ3JiN4QTtYU2REdWJtVklMYUR6QnBNazg4akJFUkV1bFpuZG1vRlZRS2tuSlJZVFN2em5CK1EvbkthM3VOZjFyU2JpNHRWTWNNeWFuRkU0UW12JiN4QTtFbU9WYWl1Ky9UQ09JSWx3bm14di9sWEgvT01mL1YyMDcvdU1yLzFXdzhVa2NNRlB5RitUZjVVK1pMYlY3djZndHhhMm1xWE5uWXoyJiN4QTsxM08wY2x2RndNYmNoS3dZbmw5b0dtSmtRc1lBdmF0TDB2VDlLMCtEVHRPdDB0YkcyWGhCYnhpaXF2WGI5Wnl0dEFSV0t2bmI4OFBPJiN4QTtIbkhXNzUvTCtqNlRyZGhhYWJjU3BQZTJrVXpKZURpRUg5M3crQWZGVDRpRFhMWUFOT1FrN1BKTkowSHoxbzkwTHZTclRYckc1RlAzJiN4QTt0dlpUeHNRcERBSGl3cUtqb2NtU0dvQWg5ZjhBa0R6aGRlYTlFazFHNTBlNjBTYUs0ZTNhenZBUTU0cWppUmVTb1NwNTA2ZFFjb0lwJiN4QTt5WW0yUzRHVHNWZGlySGRSL0xyeUhxZDdMZmFob0ZqZFhrNTVUWEVzQ003bWxLc1NOenRoNGl4TVFwditXUDVlUEJIYnQ1YzA4d1FsJiN4QTtqRkg5WGo0cVgrMGFVNm1nM3g0aXZDSFFmbGorWGx1WGFEeTdwOGJPalJ1VnQwQktPS010YWRDTmpqeEZlRUtYL0txUHkwLzZsblR2JiN4QTsra2VQK21IaUs4QTdtVFd0cGEyZHRGYTJrS1c5dEFvamhnaVVJaUlvb0ZWVm9BQmtXU3JpcnNWZGlyQ1B6Wi9McXc4NitYSkltdGhQJiN4QTtxOWxGTzJqczByUktzMHFBZkV3clVWVlRRN1ZBcmtveXBoT05oODRlWVBKWG4veXY1ZWcwL1g0cHphV3pSM05xWXpKTmIycHVRM3FSJiN4QTtDWlU5TkpPU2ZHRWxBL3l0L2l0QkJhVEVnYnB2K1JLM2Q3K2FPbFhYcFBQSGJyY05MTXZPWklnMXJLbFRJV3VRbFdZRCs4WGNqWTdZJiN4QTtKOGs0K2I2dnlseUhZcTdGWGdIL0FEazNvMnJ5M1dsNnJjM0FQbHhBbHFzRG1VUVEzVG1Sbm1uRUlaeUdRS3E4ZS9oKzFiakxUbER6JiN4QTtHeS9JWDh4ZFdzcmZVOUswei9jZmVSSk5iL1dKNFk1T0xxRHVyTXA2OURRVkcrUzR3MStHUzd5OTVJOHlhZjU4cy9MMWdYMC96VmJ5JiN4QTtnaVZXa0x4T3NRbU1yOEFZV3RqWGhzM0k5ZW53NGs3S0ltNjZ2czNLSEtkaXJzVlkxK1luazJUemY1WmwwYUxVWk5LbGVTT1ZMeU5TJiN4QTs1VXhtdENvYU1rRWJmYUdHSnBqS05oODRlZnZ5czFqeXdyMjloNWcxalhkVlFvZnF0dnB0MnNQRjl5VGNpV1dQWWRscjRaYUpXMHloJiN4QTtTM3lCK1YydCtaeXR0cU91NnhvV3FNejhiZTQwNjdlRW9nNWN2ckpsaVFWSFpxWVRLa1JoYjZOL0xmeVJMNU44dWZvaWJVNU5XbE04JiN4QTtrNzNjcUdNL0dGQVVLWGxJQUMvelpUSTIzeGpRWlRnWk94VjJLdXhWMkt1eFYyS3V4VjJLdXhWMkt1eFYyS3V4VjJLdXhWMkt1eFYyJiN4QTtLdXhWMkt1eFYyS3V4VjJLdXhWMkt1eFYyS3V4VjJLdXhWMkt1eFZJZGI4bWFkckdyVzJwM056ZFJ5MnFla2tNVWdFTEl4Ym1IalpXJiN4QTtWdVliaVQxcDBwaEJRWTJ4OS95VzhyczhETGU2bENrRWJRaUtHNUVhdkc2ZW13a0NvT1JLN2NqdU9nSUFXaDRpeDRBckg4bi9BQ3orJiN4QTs4NDNOL0dzaEpLUlRpTUJpS0Vyd1JlUExxd0d6ZHdhQ2p4THdCbkdSWnV4VjJLdXhWaHEvbGJvaVRTU3czK294TklWcUJjQmdGams5JiN4QTtXSlZFaVBRUnRzdnRzYWpKY1RIZ2MzNVYrWGpDa0szTjZpUnBLZ0tTcXJmdmk1WnVRVGxXc2hydjhWQnk1Y1JSNGw0QWlQTG41YzZOJiN4QTtvT3JuVkxXN3Y1N2hvZnE1UzV1R2xqS1ZCWDRLQWNscFFId3hNclVScGxXUlpPeFYyS3NKdlB5ajh0WGwzTGMzRnpmTVptZG1pRXlyJiN4QTtHUFVEQmdxcWdDMTlSdmlYNGlUVW5sdmt1Smh3QjE1K1V1ZzNkN2NYaytvNm9aYm9scEF0MFZXcEZLcUZVVStMNHY4QVczeDRsNEFwJiN4QTtUL2s1NVpuVGpOZWFnNFBPcE02a2t5Q1FNM0lwVUdzek1LR2l0dUtZOFM4QVhXdjVQZVZiZWUzbE05N2NmVnBJNWhIUE9IamthTGp4JiN4QTs5VlN0Sk5rQStMdDg4ZUlyd0JuT1JadXhWMktzWTFqOHZkSDFiVTd2VUx1NXZDMTdDYmFlM1dVZWg2ZkFJQXNiSzNFaGh6QkcvTDIyJiN4QTt3aVRFeHRMWlB5ZTh0U1hQMWo2NXFDc0ZLY0Z1QUk2ZHYzZkRoeUcveFU1VlBLdkw0c1BFamdDbkIrVFBseUt4bXN2MGhxY2tWeHlFJiN4QTs3eVhLdkl3WnVaQmtLY3Z0QUViL0FQRW01UEV2QUdiMk5wSFoyVnZaeHN6eDIwU1FvMGg1T1ZqVUtDeDduYmM1Rm1yWXE3RlVoOHdlJiN4QTtUckRYTG1PNHVMbTZ0NVk0L1NWcmFSVUlVdHlOQ1ZabEo3OFNLN2VBb1FVR05wWEQrVm1neFhEemk4dml6eFNRaGZWalZVU1dONDJFJiN4QTtZU05lRzBob0ZvQnNCOElwaDRrY0FRbHgrVFBsZTVudDVKN3ZVWGp0eVQ5WFc0RVVVZ0pGUklzU1IxMkhFYjFDMFZhQlZBZUlvNEFpJiN4QTtybjhxZkxsd3NucVhGNkpKUkdqVEpNSTVPRUlZSWdaRlU4UXIwUGlBSzE3dkVuZ0RJdkwyaDJ1aGFSQnBWbzhrbHZiOCtEekZXYytvJiN4QTs3U0dwVlVIVnZEQVRhUUtUSEFsMkt1eFYyS3V4VjJLdXhWMkt1eFYyS3V4VjJLdXhWMkt1eFYyS3V4VjJLdXhWMkt1eFYyS3V4VjJLJiN4QTt1eFYyS3V4VjJLdXhWMkt1eFYyS3V4VjJLcFRyUG1qU05IdjlNc2IxM1c0MWVZd1dZVkdjRmh4SHhFRFljblVmVFhvR0lJQ0NhVGJBJiN4QTtsMkt1eFYyS3V4VjJLclpwb29Zbm1tZFk0b3dXa2tjaFZWUnVTU2RnQmlxRzByV05KMWUwRjVwZDVEZldqRXF0eGJ5TEtoSzlSeVVrJiN4QTtWR05JQnRGNHBkaXJzVmRpcXhaNFc0OFpGUEtuR2hCclVjaFQ2QlhGVitLdXhWMkt1eFYyS3V4VjJLdXhWMkt1eFYyS3V4VkM2bnF1JiN4QTttYVZZeVgrcDNVVmxaUWlzdHhPNnhvdGRoVm1JRzU2WXFTbE9nZm1CNUs4d1hKdGRHMW0xdmJwUnkrcnh5RDFDQnVTRU5HSUhlbUV4JiN4QTtJWWlRTElNREoyS3V4VmplcTJubktQelRhYWxwOXpIY2FFc2F3M21rc1JHL0ptWU5NakZTR0k1SzFHWWJMUWZhd2lxWW03ZWEvbUgrJiN4QTtmL2xqUnZOOFdtSFNialVKL0wxMDBodVVtU0ZCY05ieVc4aWhTcmx3cVhERGVueFpPTURUQ1dRQXM1MURVL01YbTd5OXBWMzVOdVAwJiN4QTtiYTZqR3QyK3B6bFE4YTBvc0loNHk4bTVHcmRGb3ZHdnhWRWVYTmtTU05tYWl0QlhjOXlOc2l6ZGlyc1ZkaXI1azFUek41cS9NajgwJiN4QTtJTFRRNXcyaXlVRmxFNWYwb3JTQ2Y0NzVramNEbVhpSUhxQUg0bFdtNE9YVUFHZ2t5S2QzUC9PS3JpUFZIdFBNbkdXOFJoYjJ5MnBoJiN4QTtnQk1xeWhKQ0pwU1kvaHBzTmpRNzBvUjRpZkNla2ZsTDVRMW55ejVlRm5xOXBwTnJkaElvcTZWQzBieXJBcFFTWFVySDk5SzNVa0tPJiN4QTsvamtKRzJjQlFaeGtXYnNWZGlyQmZPdm5PN2g4d2FWNVIweVdYVE5SMVpybm5xOHRvMHNNVUZ0WnZjTzBITW9rc2dZb051UVhldTlCJiN4QTtrZ09yQ1V0NmVRZVE3N1JML3dBejZOcG1pZWZMNTc2Q1NQOEFSME54cFVZaC93QkV0WkxkRlkrcFduMVozVDZmSGZKbmx5YTQ4K2IxJiN4QTtQeXQrWm1zZVovTEdoWFdrYVhLMnFhaHhTK3VMaTJuU3dqYUpYV2VSWms1S1Y5V0xpbzUxMzMzeUpqVFlKV0ZmVGRXOC9hajV0dERiJiN4QTtYbW1YZWdXenlRYXVOUGtTUkkzVkg1Skx6Sm5XWVA2ZkFMOE5PWEx0Z29Vb0p0bitSWnV4VklQTm5uenlwNVRpaGsxKy9XekZ4ekVJJiN4QTs0dTdOd1F1ZGtESG90QlhxZHNJQktESURtbXVsYXJwMnJhZkJxT25UcGMyZHlpeVF6SWFncXdxUGNIZmNIY1lLVUcwaTh5Zm1aNUk4JiN4QTt0Nm5GcGVzNm10cmZUSWtrY1JTUi9oZVQwMUpaRlpSOFhhdGFiOU1JaVNneUFaTEZMRk5Fa3NUckpGSW9lT1JDR1ZsWVZCQkd4QkdCJiN4QTtreGFYODAvSWNQbVErVzVkV2pUVnhKNkxRc3Jxb2YwL1ZvWkN2cC9aNzhxVjI2NUxoTEhqRjB5dklzbllxbFBtenpCRjVkOHRhbHJrJiN4QTtzUm5UVDdkNS9SVTBMbFI4SzEzcFUwRmUyRUMwRTBIeHArWWY1c2VhdlBadGsxY3d3MnRvenZCYTJ5c2tmSjl1VGNtY3N3QW9DZmZ4JiN4QTtPWHhpQTRzcGtzUXQ3bTR0cDBudHBYZ25qTlk1WTJLT3A4UXkwSXlURjZGK1Mzbm56TnBQNWdhUmF3WGswMW5xbDNGYVh0bzdzOGJyJiN4QTtPd2o5UXFTZmlUbHlERGZid3JrSkRabkNSdDluWlE1VHNWWTM1VzFienJmelQvcHZSN2ZUYldPUmxpa0U3Tk0zd2c3UkJIVXFHSlhuJiN4QTs2ZzVVcndBd2tCaUNYeXorZnZsZTYwZjh6YjVtbEV5YXlSZjJ4SlVFQ1ppcFJoWGJpNmtBbnRsMERzNCtRVVgxQjVVMEhXL0sza0xTJiN4QTt0R3MxaDFIVWJDQlVrVzRsYTNqWWtsblVTSkhPUnhMY1YrSHBsUk5seUFLQ1krVTlSMS9VTkorc2E1WURUcjMxR1VRQTlVRktOVGs5JiN4QTtPcFhydlN2ZW1BcEJLYzRFdXhWQmF4cmVqNkxaRysxYTloc0xNTUVNOXc2eHB5Ym90V0kzT0lDQ2FmS1AvT05PdmFMb3ZueTh1Tlh2JiN4QTtvYkNDYlRaSUlwYmgxalJwV3VJQ3FCbUlGU0ZKeS9JTm5IeEdpK3V3UVJVZE1vY2w1aCtkbWxhTmQyMWsyb2ExYVdFckNSSU5QMVM0JiN4QTthQ3l1RkZPYlVWWkNKSSthL0VGUGhrNE5jd24vQU9WbHBwZHY1WUEwM1ZvOVdoTXJlcEpiUytwYXhTYkV4UUQ5bFZCRzMwbmNuQkpsJiN4QTtEa3pESXNuWXE4cjgvd0RsbVRUL0FENW8zbnFVQ1RTYk0za1dwaTB0Skh1bzQ1OU9hRlpwREdaREtpdEhTdkZlUElkZHlKZzdVMXlHJiN4QTs5dkp2eTYwWDh1ZkwzblhTdFl0L05ON3FVMXZLUkJZcG90ekcwcnl4dEdxaHc4bjg5ZnM3NU9SSkRYRUFIbXovQU1sL2xkcStoZVV0JiN4QTtCbHY5R3ROYWxiNDlUMHBiYUpMMk9PY1NTai9TTG00dDBNa1RNaXNwQTdnVnBYSW1WbG5HRkJQZktVcmVXL05rT2lhZjVZMUN4czlXJiN4QTtLK3ZOcUV3bmtpamdoY1FpRTI1dWJjUVFDTVJrTk9IcTY3SEFkd2tiSGs5UnlEWTdGWGtuNXRmbGg1bDF6ekxZK1kvTDMxVzR1VWdGJiN4QTtsY1dsMEdpQWpWMmxNbnJJNnVlWDkzdzQ5Q2E3RTVPTW11Y1NUWVJubFg4bUJaK1I5TzBUVXRZMUMydVllVTl3Tkx1RFpvSlp5c2trJiN4QTtiQ0w0WnZUZGFLNzFOT2xCUUJNdDFFTm1KZWYvQU1qL0FEZmVlWjlSdk5Ba3RycXcxZUpQckRYYk1ra1RJbjFmalV1M3JzVmN5ODNIJiN4QTtWYTE1QWNpSmltTW9HOW5vMWorVmxuQkJvcVM2MXFoYlJvNEkwaXRycDdXMmsrcm9VQmEyaVBCZVFQeGNkejNQWEk4VFBnZVdYSC9PJiN4QTtQbm05dGZtc1k1N00rWFpyNFhSditBRWlySUJLL0d5WnBJYUk2TEg0bGY4QUpKQW54aGg0WnQ5RWpwNDVVM094Vkp2Ti9tRHk3b1dnJiN4QTszRjk1aWRVMGswaHVBNkdWV0V2d2NDZ0RjZzFkeFRDQmFDUUJ1OGM4bmVVL3kvOEFOT2hRK2FHc3RFZzBpeERYT3NXZHRhM0p1WVJGJiN4QTtFelBDOVpuclRyVVIvRUI4SXlaSkRWRUE3cDMvQUlEL0FDdS94TjZuK0ZaLzBSOVM0MC9SZW84ZnJQcTErejZYS3ZEdlNtQ3luaEY4JiN4QTttOUc4bVdubC93QXlXMnFlV1BMdG5xMXBjeUpleHlSMjZ3M2RwWjNZWUp4ZTd1WVFHSEJxQVI4cVZCcGlUYWlOSFo2MVpYY2Q1WndYJiN4QTtjUUlpdUkwbFFOc2VMcUdGYVYzb2NnMnEyS3NSL01iVC93QXlOUTArQzE4a1gxanBzc2hmNjlkM2hrRW9XZzRMQnhpbVVWK0xrU0tqJiN4QTthbVNqWFZqSytqd3ZVLzhBbkdiODF0VXZaTDdVdGIwMjl2SmpXVzRudWJ1U1JxYkNyTmJrN0RwbG5pQnBPSXZRUHk3OGpmbnA1WDFDJiN4QTt6aHY5ZjA3VXZMNk1zZHpaVFQzTXpyRFdoOUIzdHd5c2kvWlhueDdaQ1JCWnhqSVBZc2cydXhWMkt2SHZ6Yy9MVDh6Zk8ycHZiMjk1JiN4QTtwSCtHWUhqbDArMHVXdUk1bGtFUVdSNUdpaWF0V1o2RG5TbE5xNU9NZ0dxY1NYbm4vUXJubjMvZnVoZjhqNy8vQUtwWlB4QXc4SXZmJiN4QTsvSUZoNTNzZERhMjg0M2RwZTZra3hGdkxZaGhHTFlJZ1JXNVJ3L0VHRGZzOUtiNVVhNk4wYjZzTy9QWDhxUE1Ybi84QVFuNkd1TE8zJiN4QTsvUnYxcjEvcmp5cFgxL1I0OFBUamxyVDBqV3RNbENWTWNrQ1U3L0pueUhxL2tqeWcramFyTmJ6M1RYY3R3SHRXZDQrRHFpZ1ZrU0kxJiN4QTsrQTlzRWpaVENOQm5lUlp1eFYyS3BMWWVUZkxkZzFrMXBaK20ybitqOVRQcVN0dytyMnIyY1gybVBMamJ6T254VnJXcDMzdzJqaENkJiN4QTtZRXV4VjJLdXhWMkt1eFYyS3V4VjJLdXhWMktwSjVxMEcyMW0ydElicXdoMUszdDdqMXBiU2ZqeFllakpHS2NnUlVNNE9FRkJGcExZJiN4QTsrUTdXS0x6QmIyT24yK2gyMnNhZEhZb0lBcjhaS1hBZVZsVGhYYWROdVc5TzJHMGNLYW1mem4rbVJaK25BZFBNWFA4QVNub0RnSksvJiN4QTszZnBmVy9WNmZ0Y2V2MzRObDNRTnl2bW5RWkxWZEswY2E4bjFDM3RKcFZ1SXJQakphbDkrRXBmYVQxZXhOS1lkaXU0WkZvdHJOYWFQJiN4QTtZV3M0QW5ndDRvcFFwNUx6UkFyVU5CVVZIaGtTa01iMW44MnZJMmpYOTNZYWhmTkZkMkxjSjRoRkl4cnc5VDRlSVBJVVBVWklSS0RNJiN4QTtCRGo4NS95K0lRaStrSWZ2NkV1M3hLbS93K0xqSGhLT01LNi9tejVLY3hMSGN6TzBzU1RvcXdTMTlOK2hOVkFIeXg0U25qRGorYm5rJiN4QTtRV1VWNGI4aU9hbkJQVGN2dnlwVlFLajdIZjI4Y2VFcnhoUmwvT2J5QkVWOVM5a1VPWENNWUp1SjRGbE5HNDA2b2Y4QU1qSGhLT01NJiN4QTt2MDNVTGJVZFB0cisxWXRiWFVhelFzUlFsSEhKU1FlbXh5TE1JakZVczEvekhwV2cyME56cVVqUngzRXkyOFBGV2N0S3lzNFVCUWYyJiN4QTtVUDZ1dUVDMEUweHVIODVQSVUwd2hTN205UXllbHhOdk1DR3FnM0JXby92Qmg0U3g0d3JYSDV0ZVNyZUZwWnJpZEZVdU43YWZmMHdXJiN4QTtZajRPbkZTMWZENWlyd2xQR0YwWDVzK1JKTHVHMEdvOFpwNUZpaUR4eUtDN3VJd0NTQUYrSnYycWVQVEhoSzhZWmZrV1RzVmRpckI3JiN4QTtqODZQeSt0NzZXeGx2cEZ1WVdLeUo2RXBweG1NQk5RdEQrOEZNbHdsaHhoYy93Q2Nua0pFalpyeVFlc29hTmZSa0xFRmVRMkFydU1lJiN4QTtFcnhoZkorYjNrZU9HS1ZycVl4eXdQZEtVdHAzcENraGlaMjRvZUk1clRmSGhLZU1LVC9uUDVBam10WVpieVdNM3ZwbTFab0phT0ppJiN4QTs2eGtVVTdNWW14NFNqakRPTWl6ZGlyQnJyODZmeSt0aEVaYjJVZXR4NEFXOHhQeEFOVWpqVUNoRy9USmNKWWNZWGo4NVBJWkE0M2tqJiN4QTtNemNFVllaR3ExYUNoVUVVTlJScTBQWTQ4SlhqQ01QNW5lVEJhM055YjBoTE9RUTNLaU9RdXJrdUI4QUJZZytrYUViSGJ4R0RoS2VJJiN4QTtJT1Q4NVBJa1NTTkxkU29JZ1N3TUV0ZGk2N0FEZmVOaHRoNFNqakRaL09MeUo5U0Y4THVVMmhkSXhNSUphZXBJZ2NKMHJXblh3TlIyJiN4QTt4NFN2R0dTYUQ1ZzB2WGJKcjNUWkdrdDFrYUlzNlBHZVNVcjhMaFQzNjRDS1pBMm1PQkxGOWEvTW55cG8xL2RXRjlQS2x6WkJXdVFzJiN4QTtNanFxdjZkRHlDMFA5K2xhZU9FUkxFeUFTOC9uUDVDQlJUZHpjcENpeHI5WG0rSXlVNDBQR243WGpoNFNqakNaajh3L0xaMUd4MDBQJiN4QTtPYi9VVlY3VzNFTWhZcTZHUlMxQlJSd0hLcC9yZzRVOFFTNmY4NVBJTnZCRlBjWHNzVWN3VW96VzgzN1ZlUFJEMXAvRHJoNFNqakNlJiN4QTsrV3ZOMmhlWklaNXRJbk02V3pLa3hLTWxDNkNRVTVBVjJicU1CRk1nYlRoa1J2dEtEc1J1SzdIcmdTNElnRkFvQXJXbE8vV3VLdENHJiN4QTtJR29SYTdiMEhicDkyS3RzcXNDckFNRHNRZHh2dGlyaWlFMUtnbnJXbmhpcmVLdXhWeFZUU29Cb2FpdmlNVlk5NWw4cjZqcTl4YXlXJiN4QTtldFhPbFEyNk5HOEZzUGhrNXVocTN4QWJJaklOdHVWUmhCWWtXa0xmbHA1aEVhTEg1eHYwY0txTTVEdlZRc2FQUldsS2d2NlozcHR5JiN4QTt3OFhramhQZXl6eTVvOXhwT2tXOWxkM3I2bGRROC9VdjVWQ3lTY25MRGx1MzJWSVhyMndFc2dFendKZGlyc1ZhNEp6NThSenBUbFRlJiN4QTtuV2xjVmJ4Vm9vakdyS0NlbFNNVmFNVVpYaVVCV3RhVUZLanZpcTdGWFlxdDlHSTlVWGFsTmgyNmZkaXJtampmN1NCdTI0QnhWeGpqJiN4QTtJQ2xBUU53S0NncHRpcnZUam9CeEZBYWdVRks0cTE2RVArKzE4T2d4VmVGVlJSUUFQQVlxN0ZWdnB4OGkzQWNqMWFncnQwL1ZpcnZUJiN4QTtqNWN1STVEb2FDdmYrdUt0aEVGS0tCUUFDZzdEcGlyWG94VkI0TFZkaHNOcWI0cTJxSWdvcWhSNEFVNkNtS3Q0cTdGWFlxN0ZYWXE3JiN4QTtGWFlxN0ZYWXE3RlhZcTdGWFlxN0ZYWXE3RlhZcTdGWFlxN0ZYWXE3RlhZcTdGWFlxN0ZYWXE3RlhZcTdGWFlxN0ZYWXE3RlVrODQrJiN4QTthOU84cjZGY2FwZU9oZEVmNnJiTS9CcDVsUXNzU2JNU1c0OWdjSUZva2FlRGY5REwrZmlkdEcwLzJIcFh1V2VHR254UzlwL0xQekg1JiN4QTtuOHcrV2hxbm1IVDQ5T3VKcFNiU09JT3F5V3hqUmxrNHlFdUt1ekRlblN1UWtLYllra2JzcnlMSjJLb1c1MWJTclc1aXRibTlnZ3VaJiN4QTt6U0dDU1ZFa2MwWnFLckVGdGtZN2VCeHBGb3JGTHNWZGlyc1ZkaXJzVlFXbDYxcFdxcmN0cDExSGRMYVR5V2x5WXpYMDU0alI0MjkxJiN4QTtyalNBVWJpbDJLdXhWMkt1eFYyS3NDODMvbTdwR2hYVnhaV2RxMnBYZG13UzlsYVdPMHNyZDJISVJ5M2M1Q2VvUnVJMERON1pJUllHJiN4QTtkSkhwUDUrMjkxY2NiblNvcExkUnlsazBtL2kxQ2FOQUtzN1czQzNuWkY2c1kxYWd3bUNCa2VrV25tTFJMeTFzcnExdkk1cmZVWTJtJiN4QTtzNUZOUkpHaThtY2VBVWRhOUR0MXlOTTdSZGplUTN0bGIza1BMMGJtTkpvdVlLdHhkUXkxVTdnMFBUQWxXeFYyS3V4VnB3eFJncG94JiN4QTtCb2ZmNlFmMVlxOFQvS1h5OStaTmw1KzFLVFhMMHkyOW9abzlWUDFzVHJOTE1UTEFVaTZ4ajk0emdjSXh4WWJWNjJTSXBxZ0RiMjNLJiN4QTsyMTJLdXhWU3ZMdTNzN1NlOHVYRWR0YlJ0TlBJYWtLaUtXWnRxbllERlh4OStiSDV1djV1OHdQOVdNamFIYThmMFpIVXdPdkpCNmpOJiN4QTt4K0lzemRhc1JzS2U5OFkwNDA1MlU1L0pMeUJONXkxUjc3VUlXSGwreUpTOVNTNGtZeityQzlJbFVHbyswckVuOW5wdlRCTTBtRWJmJiN4QTtWY1VVY01TUlJLRWlqVUtpS0tCVlVVQUFIWURLWElYWXE3RlhnUDV6ZmxMNW8xWHpIcVhtUzM5SzgwcDdkWkhFamhwN2RMU0lsa2lqJiN4QTs5RjJQT3A0S2grMTlyYkxJeWFad04ya21qL24xK1pkb21tYTlxc05yYytWNzJjV1N4QXd4VEY0SStNamNxaGs1c3dkbVljUlNnNGpxJiN4QTtUQUlHUTgzcC9tRVQzQ2VjZGVXK3VvN3pRTGlGTkhNTnhMSERHa2RoYTNackNyQ0tUMUh1SEQ4MU5WMjdESWhzUFVxbjVwYUw1cTgxJiN4QTtUbnl2b1dyL0FLSXBhQzlkeHlYMW1FM3ArbThpZkdxZ2IvQ056MXhpUU4xbUNka3cvS2p5ZHJubFhRNXJEVjU0cHBIbWtraTlHYTVsJiN4QTtVSzgwa24yWm05TksrcC91cEZyKzFVNzRKRzFoR21iWkZtN0ZXRytTNTlBMHVmV0xNU1d0alBkYXZlTkRiMWpoZVhnRTVGVStFdHhIJiN4QTtXblRKRmpHbDBQNWp4M0tQUFphSHFkOXA4ckdQU3I2MmhWNHJ4MTJQRDRnWTBKK3pMS0ZRZ1Y1VXBWNFY0bm1tbytaUE52bUxYYjJKJiN4QTs1cnkydTQ3cDdLSFNOSXZaL1Z0RXRuNFN2SkJiaTM5VnBXQk1jczh5UlUrVkdsUURXU1NYcC81Y2F0cWw3cGVvV2VwVHRkM09pNmpQJiN4QTtwZ3ZYQ2g1MGhDTWp5Y1BnOVJSSndmaiswcHlNbXlKWlprV1RzVmRpckNmekEvTDJEWEZqMUxUME1PczJ0ZUVrSldPV1JDU1dqaWxrJiN4QTtFa2R2STdVck9zWmVncFdtU2pKaEtOc2YwWDhxTlh1OVZpbDgxelNYTnBhRlpJNG52NTlSVjJvU3ZwVFhDUTNWckpFNFVsbzM0dU5xJiN4QTtEZkNaZHlCRHZUcjh3Zk0rbCtWdFg4cGw3TXlIVUwxOU5WSW1WRldDNkNySUdqSW95K3A2YlUyK3oxd1JGcGthcEcvbE41b3MvTXZrJiN4QTtiVDcrenQzdElJdVZvbHZKSjZySXR1M3BxQzVBNWZBQmpJVVV3TmhsK1JaT3hWMkt0TWVLbHFGcUN2RWRUN0RGWGpINVUvbXFmTVBuJiN4QTtyVXJYOUZRMncxaHBMZ3lReU04MFp0RkVhQzVCSEVGb2dsT1A3WEw1Q3lVYURWQ2RsN1JsYmE3RlhZcStlZno3L01rYWhkTjVVMHlmJiN4QTtoWjJzaVBlM2NKbGxXV1ZLMWdJaG92R052dFZiN1FvUnRsc0k5V25KTG84eThsK1NyanpUcjl0cGRpaU1KSEJ1WnZxVEJZWWhVdEk1JiN4QTtkbEZOcWZNZ2Q4a1RUWEdObDlnK1cvTCtuZVh0RXM5SDArTUpiV2tTeGhncXF6c3FnTkkvQUtPYjBxeHBsSk51U0JTWllFdXhWMktxJiN4QTtWMWEyOTNheld0ekdzMXRjSTBVOFRpcXVqZ3F5c080SU5NVmVNNnQrUWZsWFFOY3N2TkduVzk3Zlc5dGZKY1htbFJBU2NZbWtadVVNJiN4QTtjU283TEV4VDkyS2tvRDFPV0NaTFVjWUc3TFgwL1ZOWDhyK2RwN2V5bWhmWEo1SnRMdHJsREJOSWtlbjIxc3ZLT1NqUm1TUzJiaUhBJiN4QTtOS0UweVBjeXF3VXkwTzhuMWp6Yk5xMGRoZVdkakRwNldoYStnZTJkcDJtTWpJaVNBTXdRRGR3T0pQMlNjVHlTTnl5eklzbllxN0ZYJiN4QTtoOExmWE5ROHh6UmVYb0wrUFVOUWxXVTZqbzk5Y3lLRTQ4UXhVTXRGcVc5TUJkKzlUWExHcGtYMS93QXd4VzMraTZ4cmEzTEp3YU9UJiN4QTt5K3hzMTJvUFJoamlobWpDOXYzN1lFN3BWY1dIbGZTWTdBYWZhK2FiQzV1dnErblhrdWwyOTFhL1dHVkNvdUoxa1RpemppYXV2eDA4JiN4QTtjTzZOaDN0TDVqdWZ5bTgwMi9sN1VZaWZ5KzFTUjMwelZYcTh0cmNURU5KSE5MWDRrRDhtcXc1VU5lUm9SalhFUE5iNFRYUjdKbGJhJiN4QTs3RlVQcURNdGhjc3BJWVJPUVJzUVFweFY4WjIyczY5SjVQT3FQcldyRys5ZFkrWTFPNkVmRXlCYWVqOVZkYTBQWDZ6L0FMSHNjaXQzJiN4QTtGdlpPSG0xQWViSTlOR3NhMTlTYXk5Y3ArbUx6MVBVOVFyWDFmMGFHcFFmWitybi9BRisyRG9ucXc1dFkxbTYxV3hXOTFDNXZJNDlSJiN4QTtBdC9yVThrelIrazYvWmQrTk9YUDR2aEhRYllhWTIrai93RG5GeTQ5WDh0SkkrVmZxK296eDA4S3BGSlQvaDY1Vms1dCtMazlleURZJiN4QTs3RlhZcTRrQVZQVEZYbnZrWHpCNUx2UE8zbWFQUzlTc2JtOXVaa2VLS0NKWTVmVGpUMDVxU2VuR1pnWjBkaVF6ajlyOXJKRUdtRVNMJiN4QTtMMExJczNZcTdGWGozL1FyL2tqL0FLdk90LzhBU1RiL0FQWlBrL0VMVjRRWnQ1Qy9MWHk3NUpnbmowdHJpNG51dUludkx5UVNUTWlGJiN4QTtpaVZWWTFDcVhib3Z6d0dWczR4QVpYa1dUc1ZkaXJzVmRpcnNWZGlyc1ZkaXJzVmRpcmdxaXRBQlUxTlBFNHE3RlhZcWc5VzBYU05ZJiN4QTtzelphdFpRMzlvV1Z6QmNSckluSlRWVHhZRVZHSUtDTFJtS1hZcXRtaVNXSjRuK3hJcFZxZURDaHhWNW12L09PMzVlTGEvVkZiVVJhJiN4QTsxNWZWeGVTQ1BsV3RlSFN0Y254bHI4TUtoL0lEeU1ia1hSbjFRM0lUMHhQOWVsOVRoV3ZIbDFwWHRqeGxmRENtdi9PT241YkQwcXhYJiN4QTtiR0dWcDFMWERFODM0MUpOTi9zREhqSytHR1crU2ZJdWcrVE5MbTB6UkZsUzBubmE1ZFpuOVErb3lLaElKSDhzYTVFbTJVWWdNaHdNJiN4QTtuWXE3RlhNb1pTcEZRUlFqMk9LdlBQSlA1TDZONVU4eE5yRnRmM0Z5c1ltV3d0WkFxckFKejhkV1NucVZWVkh4ZUZja1pXd2pDaTlEJiN4QTt5TE4yS3V4VkovTTh2bXFPemdQbHVLMW11ek1vbkY1eTRDRXEzSWpnMFo1Y3VQYzdkamhGSU45R096MzM1eThiUDBOUDBlcjJvYTlMJiN4QTtOTDhGMzZyZ3FnRW8vZCtsd05ha2cxNjdERHN4OVNOOHNYMzVsdmZwSDVsMDZ3anMyamJsUFl1d1paTml0VmtrZjRkbUJwWHFQZkUwJiN4QTtrWDFaYmtXVHNWZGlxQjFrNjBMTC9jTUlEZTgwL3dCNmd4ajRWK1BaQ3ByeDZiOWNJUVdPQy84QXpVZVljZEwwMUlUSGNiU3l1R0VnJiN4QTtSemJWS000NGwrQ3ZRViswUlRhcDJSdWhyYTkvT2VRWFhyNmRvMExjV05sKzhtZGVYTWNSS1E0UDJkdmhIdnQ5a3V5UFUxOWQvT24wJiN4QTtvMi9SK2krcFQ5Nm5LYW5MNFNPSjlUY2ZhM05ONkNsUGl4MlgxTTd5TE4yS29QVnpxLzFCL3dCRWVoK2tDMFlqTjBHTVFVeUtKQ3dRJiN4QTtxeHBIeUlvZXVJUVdJVzk5K2N4S3BQcDJrQmdUeWtWcGVCQnJRQ3NwWVUyM29hK0F5V3pIMUtzdDMrYjZLelJXZWtUZFBUVWlXSmdQJiN4QTtTREhsKytrV3ZxQXBRSHVEVTAzZGw5VHJ5LzhBemVGMC93QlQwdlNHdFBVQmpFczBva01RQTVCcWZDSEpEVTdDcTlmaUlkbDlUamRmJiN4QTttOTlXaGxGcnBJbVppSjdjcExWVjlKQ0dWaGNjV1BxbDFDN1ZBQnF0ZG5aZlV5VHk5SjVnazA3bHIwVnZEZjhBcXlEaGFsakg2UWMrJiN4QTtrZmlMSGtVcFhmN3VnQlpDK3FaWUV1eFZnMDE5K2NvdjVsaDAzUjJzUXoraTd5VENRcUovZ3FBeEZUQVBiNHoyR1MyWWVwWFc0L05wJiN4QTtiSldhMTBlUzk5VDk1RURQSEg2WVdFa0svcVNIa1dNd0JLOWxxQnZqc24xS1gxajg0aERic0xmUm5ta1YvWFFyTWl4c1BzZkVKNU9RJiN4QTtQZWcvc2RrZXBsT2lOclRhY2gxbFlWMURsSUpGdGdWajRoeUl5QXpTR3JKUWtjalE3WUN5Q093SmRpckJWdS96bU53WW1zOUdTSUJqJiN4QTs5WkhyT0Q4UHdnSjZxdDlyclU5UGx2TFpoNmtWcGQvK2FRdVlQMHBwdW5OYTFwY2kyZDFsK0lweE1mT1JsSVZRNWJsVGNxQldoSmRrJiN4QTtpMUNPOC9PSGhFMHRocEJZbGhMRXJURDlwT0RCeko4T3pQVWNXK3oxM29IWkhxVTdlOC9PaVNlTlpyRFJvWVhaUFVsck03SXY3WHdDJiN4QTtVY2ovQUxJVThXeDJYMUpuNWR1dnpIazFWMDErejA2TFMrTEdPVzFhVDF1USt5T0xQSUNENDdmTHdCcEl2cXlqQXlkaXJzVmRpcnNWJiN4QTtkaXJzVmRpcnNWZGlyc1ZkaXJzVmRpcnNWZGlyc1ZkaXJzVmRpcnNWZGlyc1ZkaXJzVmRpcnNWZGlyc1ZkaXJzVmRpcnNWVXJ1N3RiJiN4QTtPMmt1cnVaSUxlSWNwWnBHQ29vSGNzZGhpcXJpcWxIZDJzbHhOYlJ6STl4YjhUUEVyQXVuTVZUa09vNUFiWXFxNHE3RlhZcTdGWFlxJiN4QTs3RlhZcTdGWFlxN0ZYWXFsK3QrWWREMEt6K3VhemZ3V0Z0WGlzazdoQXpkZUsxM1krd3dnSUpwYm9YbVRRTmZ0VGRhTHFFR29RS2VMJiN4QTt2QTRmaVR2UmdOMVBzY1NGQnRNc0NYWXE3RlhZcTdGWFlxN2t2SXJVY2dBU085RDAvVmlyc1ZkaXJzVmRpcUYxWFZ0TTBtd2wxRFU3JiN4QTtxT3pzWU9QclhNekJJMTVzRVdySFlWWmdNYVFUU1F3L21sK1hNMHFReGVaTlBlV1Jna2FMY0lTek1hQUFWN25Ed2xIR0dVWUdUc1ZkJiN4QTtpckN2elkxYlVvZkp1c1dlZ1F0ZmVZVmdobGlzSW9ubmtNTXR5a1RQNmNZcjlubngvd0JVbjlrNUtQTmhNN2JQbjNWL3ppL01tTFdOJiN4QTtXVWE1TERGcDk1Y3h5MnhrdElYWkJJeXhwQ2p3TTFZK1B4ZmFyN1phSWhwTXk5VC9BQ2o4KytZWlJlWDNuR1EyK2wzTUdtTHAycjNNJiN4QTtKaGp1TGllRTgxRXdDeE44ZTIzUTdaQ1E3bXlFajFleVpXMnV4VjJLdXhWOHYrZDlVOHgvbVorWmNHa2FKY0tMQ05wN1MxZ2w5SXBGJiN4QTtGRzNwWE4yNmMzWVNCdmpUa3F0UUtWM3k0YkJ4NUV5S2UzR3FmbmIrV0ZycStyNnpKQnJHZ2hnbHBGSk04NkpMUEtDakllS3pJaUNxJiN4QTs4V0tydUFPMkRZc3JsRjZ0K1d2bUx6WHJ1Z0M4OHlXTnRhM0w4WkxhZXdrV1MybWhrWGtwV2trcks2ZlpjTWZsN1FrQTJSSkkzWmJrJiN4QTtXVHNWZGlyc1ZmTHYvT1E5cnF1cGZtakJZM2R3bHRweVdLUFpTVHVGakVaNUdaa0RGUTBqT0NvVmZpYWlqTFljbW5KemQrUlYxZHQrJiN4QTtid2JTWUZ0OUl1ck9aN2lLRGtzWnQwV2tjam9Xa28vckJRZCtwTktEYkdmSlljMzFGbFRjN0ZYWXE3RldGK2NQemE4cWVWZFJYVGJ3JiN4QTtYRjdmR0dTZVMzc0kxdUhpRVNxMUpWRGhveTRZY2VRcDNKQXlRaVN4bE1CNTMrYWZublZQT01lamVWUExDd1Bvbm0wUVJqV2ZXcTBVJiN4QTs2eUxMTmJ1c0xrSzBVZkQxRmF2V2d5VVJXNWE1eXZZZFdHeVQzbmxSNC9QZmxYekZKNW1tMHViL0FBOWVwcXNNc1FVbU1pSXBXUlMwJiN4QTtXMVZCYmJ2a3VleFk4dHcrb2RMbXZadE10SnI2TkliMlNHTjdxR051YUpLeUF1cU4rMG9hb0J5bHlBaWNWZGlxWGVZZFpYUnRKbTFBJiN4QTt3UGNtTm80NDRFS3F6eVRTckRHdkppQUJ6a0ZUMkdFQkJOSkZxSGs3VWZOTmhQWitjTGhEcGx5cWh0RXNDeXdqaTZ5S1pibGdzMHJLJiN4QTt5Q2hVUnIva25yaHV1U09HK2J4YjhzdnlpanUvUCtwMld0NlJhUTJPZ09UNjFyY1RtVnB4SURiMVg2eEx3RG9ESjhhOU1uS1d6VkdHJiN4QTs3MmVlNzgxZVZoSEplM0NhOW9UVFF3RzRrQ3dhaEI2OHF3b1g0QVFYQ2huRlRTTnY5YkliRnQzRE1NaXlkaXJBL0sxOUd2NXIrZDdHJiN4QTs1azQzY3FhYk5aUk9RQzlwSGJjV2FNVXFWU1ozcnYxT1NQSU1CektsNXQvTUh6ZG8vbUM0aDAzeXlkVDh2NlpFa21yYWw2NnhOR1dYJiN4QTsxR0NLUWVYQ01xMUtiKzNYRVJDbVJCNUx2ejRzYlM4L0s3V0V1QVM2ZWkxcXE3czF3WmxTSlFLRW5relUyeGh6WEp5WnZwdHF0cHA5JiN4QTt0YW9naldDSkl4R0NTRkNxQnhCSkpvUG5rV1lSR0t1eFZBYTNyMmphRnA3NmpyRjVGWTJTRlZhZVp1SzhtTkZBOFNmQVlRTFFUVDVPJiN4QTsvSi96Tm9Pa2ZtOWRhdHFWN0hhNmJKOWQ0WFVoSVErcXhLYjAvYXk2UTJjZUJBaytyOWFiVGJueS9lU1hFRVdvNmU5czhyMjdjWGltJiN4QTtqQ0Y2YmhsSVlkOHBEa0hrOERuL0FPY2k5RnR2SU56RjVSMEpOQTFqMTBoanRvMGkrcXcrdUdacDA0TEdyTis3SW95RGNnN2l1V2NHJiN4QTsrN1Q0bTJ6UGYrY2R2TldzK1kvSU10eHE5ekplWFZwZnoyd3VabUxTT25DT2NjaWZBekZSNEFESXpGRm5qTmg2aGtHeDJLdkdmT1A1JiN4QTtzK2Jydjh4MDhoZVNVczRMeEN5VDMxL1VxMHFSR1prVUN0RlZSVDdKSmJ3SFdZaUtzdFprYm9KTDVIOHhhZjhBbXJyVStrL21EQmFTJiN4QTtUYUZieUMzZ2lMUlJ6TzhxcE5NWkZjTUNnUkZBVThUeUo4TUpGY2tBOFhORWVidFMwNzhzZGN0Tk0vTHUydEV1dGZ0dlR1SUpTOHlRJiN4QTttM2Y5M2NjeTdTRWxYa0JXcHJ4QnBYWmtiODFQcDVKN292NWgrZWRDODg2WjVWODhwYVRMcmtRZXd1N1VDT1NLUWtxSTVVVm5VMVplJiN4QTtQdytQVTcwQkFxd2tTSU5GNjNrR3gyS3V4VjR2NXo4bmVib2ZQK282dDVaaGcxWTZrdHZjWGxuRmNDd210SkxKQkphK3JKRzZ2S3R5JiN4QTs4YmloWGVncXkwREN3RVUxU2liMlNTNy9BQ0QxQzE4cldlcVI2aklubjJJL1dkTHM0R3Q3V0picDJGMDhDbXBFanhFU2tPSDNBSDdLJiN4QTtqRHg3K1NQRDI4MVNUOHR2elI4MGFocEZ0NS9lM1R5bUk1TlExUVdMVzlvWXJwbzMzbUNMOGMzSWdzd0JTaE8rRGlBNUx3azgrVDNYJiN4QTtTdE10TksweTAweXpYaGFXTU1kdmJvVFVpT0pRaTFQZllaVzNBSXJGWFlxeHY4eEpJNC9Lc3NrakJJMHVyQm5kaUFBQmZRRWtrOUFNJiN4QTtNZWJHWEpJOVovT1BRNGJ5Q3gwU0p0WXVaM0NwTEdTc0JVdHhMUnNGZDVnUDVvME1ZUDJuWENJb00zbFhrbi9uSTd6bnFIbVM0aHY5JiN4QTtQdGJpem1TV1lReEpKRzBJaVV1S3lSck03VlZlRzZIY2pwa3pBTmNjaHQ2VHEzNWtlV1BNZmxsWWJlZjZ0ZnkzZGdVc3JncUhmamZRJiN4QTtjdlJkQzhVd1h2NmJ0VHZUSWlOTXpJRVBUTWcyT3hWanorUk5BL3hoRDV1aFI3ZldFamVDZDQySVNlSjFweGtRMUh3bWpBclExNjF3JiN4QTszdFRIaEYyOHM4dzZML3prRHFHcWFoTCtqZE1lTzdhQmJXU0s0S3h3SmF5dEpGVkRKR0o5MjVIMW8zSGdCMHlZTVdCRW5wMm1hTnJPJiN4QTtzYU5vMG5uRklVMVd3bUYzUGEyYmsyenp4RmhBN2NoVThLaCtOYWM5OTZESVgzTXdMNXNtd01uWXE3RlhsdjVxZmw5K1pIbTY5K3I2JiN4QTtickdud2VYQUkzVFRyeTNTVSt1Z1lHUXMwRXAvYTIrTEp4a0ExemlTOCsvNkZzL01IL3E1NkYvMGh4LzlrMlM0d3c4SXZaZnk1MEh6JiN4QTt0bytqeTZmNXMxSzExUW9VanNQcXNTeEpIYm9nVDB5cXh3ZzlOdGprSkVkRzJJSTV2THZNSC9PTHJTWDF6K2dOVml0dE11cGtuVzN1JiN4QTtZM1o3ZmlXSEZHVWtPb0VyRUJnRHNCWHFja01qV2NYYzloOGorVGRMOG5lVzdiUXRONU5GQlZwWjNwemxsZmQ1R3A0OWgyRkJrQ2JiJiN4QTtZeG9KOWdTN0ZYaWZuYjhyL05tbitmcHZPdmxIUzdIWExpN0t5bTB2NUhqYTNuQzhHZU1DZTNqY09OL2pKb2VneXdTRlVXc3hOMkVaJiN4QTsrVlA1TFI2VGMzK3RlWjlLMCtPN3ZsRWR2bzhLbTV0N1pLOG1OWjJuK05pQjBZMEhmZWdFcExHSGV1L05yOGw1dFhPbmF6NUtodHROJiN4QTsxblMyNUNDSlV0bGxBWU9qS3lBS0pFWWJjdW9QWGJHTXU5WlE3a3A4bmZsZitZK3RlZjdUemwrWU1pUVNhYUVOdGJLOEx5TzBWVEVLJiN4QTtXOVlrUldibWQ2bnczcUNaQ3FDQkVrMlh1bVZ0cnNWZGlyeEx5RnBXdFFmODVCK2NUTnE3M0FnaGhrdTBhT2l6SmN4eHlSUmhlWjRlJiN4QTtoeUNvZDloN25MRDlMVkVlb3Jmenh0dk1FbjVrZmwrbGxxNXMwdXJwNDdKVmg1Q0NkSklROHovR3ZyY3hLRjQvRFFBajlvNHc1RmNsJiN4QTsyR1YvbjcrbGwvS3pWM3NicGJZS3NmMTA4U1drZ1p3anhJYS9EeUxDcDMrR283NUdITmxrNUoxK1ZZMVQvbFhYbDU5VHVoZVhNdGpCJiN4QTtLczRVcWZTbGpEeHE5U2FzaU1GTGQ2VnhselREa3lySXNuWXFnOVkwaXgxalRMalRiNVBVdGJsT0VpMEJQV29ZVkJGVklCSHZpQ2dpJiN4QTszanZtdjhrRWF6Z3Q1SVo5VnNMV1JwaGZXRHh3YXhWcURsY0NVTkRlbFF1elZqY2RCWExCTnJNRWl1Znk2OHRhdWpXRnJyV3NhM2VTJiN4QTtrRzkweTBzWUxLNkxLYWo5STNFc1VmRWc3LzZRUzNkUWNQRXg0UVdmK1YveWV0YmE0MCs5MU5ZYmNhZXFlaHBsb1RJam1NOG8zdmJpJiN4QTtVQnJxU00vWVBCQW43UFFaRXlaaUQweklOanNWZGlyc1ZkaXJzVmRpcnNWZGlyc1ZkaXJzVmRpcnNWZGlyc1ZkaXJzVmRpcnNWZGlyJiN4QTtzVmRpcWpOWjJjOHNVczhFY3NzQjVRU09pc3lFMDNRa1ZYb09tS3QzZG5hWGx1OXRlUVIzTnRJS1NRVEtyb3dCcjhTc0NEdU1WWFFRJiN4QTtRMjhNY0VFYXhRUktFaWlRQlVWRkZGVlZHd0FIUVlxdnhWMkt1eFYyS3V4VjJLdXhWNHpvZitDdlZINk4vVHZyY1VwVDZwWGo2aThlJiN4QTt1Mzk1eDY5K1hmMU1zTnRRcExydi9sWEhDOCt1ZjRsNWNEOWE5WGg2djI1dWRLL3ZPWFAxUHMvczh1UDd2bGp1amJ6Vm9mOEFsVlgxJiN4QTtFZXArbXZWNVJjZlUvd0I3UFI5RWVueDQvdlBxM3A4ZnMvQlgvSzVZN3AyVnIvOEE1VmxYUjZmcGpuOVVmMFBxL3AwOUw2M1AvZmZzJiN4QTtlcDYzcWNhZkZXbFBqcGp1dXlGaS93Q1ZVL1ZwT2Y2VzlUNnRiK2g2bjFmMXZUK0RqNlZQMnVOUFU1ZnNmNUZNZDBiUFJQeXQvUUg2JiN4QTtEdlAwSjlkK3IvWFg5ZjhBU0hEMVBXOUdMbHc5UDRPSEhqVGp0V3VSazJRcE9mT0g2Ty93M2UvcEgxdnFYRmZXK3JVOWFuTmFjSys5JiN4QTtNQVNlVHgyNC93Q1ZaMHVLZjRrOUgwcFBXNDhmc2NFcno1L3ZlVk9QMi9qL0FKdHFaUGRxMjgwVTMvS3J2cnQ1OVQvVFZmVWo5ZjZsJiN4QTt4OUt2UDkxeDQ3VTlhblQ5cjdXMk82ZGt5MWYvQUFSK21ybjY5K2x2MGo2TVAxbm45UjQ4ZnF5ZW55NS91Lzd2cit6OXV2d2M4RzZUJiN4QTtTU3YvQU1xbStweStyK25LK3ZKejlXdnFmM2MzcWZiMjQ5ZVg3VmVOY083SDBvcTAvd0NWWC80cnN2cW42YSt0L1dsK3ErangrcDgvJiN4QTtyNjAreDhQSDFxZjVYREhlazdXOXV5dHRkaXJCUHpWL3d0OVcwMy9FSDE3MGZVbjlINmp3cFgwVHo5WG50eDRWcGtvMnduWFZodHIvJiN4QTtBTXFyOUorZjZXOUQxTnZyUEgwL1g5Ui9WNGN2aDlUbng1MC95S2JaTGRqc3MvNUJkNlg3NzlNK3A2aStqWDAvVS92NWY3ajB0cWVyJiN4QTs2dkwwOS9IYmhqdXV6T2Z5Mi93ejYycC9vWDY5ejRXdjF2NjdUMC9zeWVuNkhEOTFTbGErbDhIU21Sa3lqVE44aXpkaXJCdnpNL3dyJiN4QTs2MmovQUtmK3YwNVhQMVg2alhqeTlJY3ZVcHZXbjJLYjF5VWJZU3JxODZ1UCtWUWZWSVBUL1RQMXYwcDZmVnZTK3VjdlYvYTRmRjZ2JiN4QTsrK3Fmc2RQaHlXN0QwcHZmZjhxeDlkL3J2Nlc1MGxwNi9IaC92Tkp5NGVwKzc1Y2E5TitYSGx0eHgzVHNsa2YvQUNxMzlLVFYvd0FRJiN4QTtWb1BYcncrcmVoNjYwOVRqOFBwZXRUbnovd0JudFhIZEd5ZWVYdjhBbFh2K0o0djBYK2wvVit0cDZQRGo5VDVjdmcvdS93RGRIVGp5JiN4QTsrSHB4M3dHNlpDcmV2WkJzWTU1OC9SbjZGaS9TWDEzNnI5YmdwOVEvdlBWNS91T1grVDYzRC9aVXI4TmNJWXllYkwveXF2aGQvV2YwJiN4QTtsNmZBVTliME9IUDBXNGVodytEMU9IOTN4N2NlSHdjY251dzJRMG4vQUNyWDZvZnF2K0l1WDZTczZmVjZmV2ZyUG9ONlZlWHgrblRsJiN4QTtYbnR5clR2anVqWncvd0NWWDhyVDFmOEFFSDFQbEYvdlQvY2VuUStuNm5xNytudzY4ZjhBWmZGWEhkZGxhTC9sV2ZvU2VwK212cmZLJiN4QTtINm45WTlINjdUaDhIb2VwKzk0Y09OZWUxS2UrTzZka1BxSC9BQ3EvNnN2SC9FSG9WYmg2TlBTNWNqejVlcCs3NWMrWDI5NjE0NDdvJiN4QTtOUDhBLzlrPSIvPg0KCQkJCTwvcmRmOkFsdD4NCgkJCTwveG1wOlRodW1ibmFpbHM+DQoJCQk8eG1wTU06RGVyaXZlZEZyb20gX2RmbHRfOmluc3RhbmNlSUQ9InhtcC5paWQ6ZWUxZDc0YWQtYjZiNy0wODRhLWI5NjMtY2M4M2JmNTk2NzJmIiBfZGZsdF86ZG9jdW1lbnRJRD0ieG1wLmRpZDplZTFkNzRhZC1iNmI3LTA4NGEtYjk2My1jYzgzYmY1OTY3MmYiIF9kZmx0XzpvcmlnaW5hbERvY3VtZW50SUQ9InV1aWQ6QzFCQ0NFMTg3MUI4REIxMTk5MzE5MEZDRDUyQjRFOUYiIF9kZmx0XzpyZW5kaXRpb25DbGFzcz0icHJvb2Y6cGRmIi8+DQoJCQk8eG1wTU06SGlzdG9yeT4NCgkJCQk8cmRmOlNlcT4NCgkJCQkJPHJkZjpsaSBfZGZsdF86YWN0aW9uPSJzYXZlZCIgX2RmbHRfOmluc3RhbmNlSUQ9InhtcC5paWQ6ZGM2YjE2ODctMTUxYS03NTQ2LThmM2UtMzE1MzJkMDg3MjVjIiBfZGZsdF86d2hlbj0iMjAxOC0wNS0yMlQxMTo1MjoyMyswMzowMCIgX2RmbHRfOnNvZnR3YXJlQWdlbnQ9IkFkb2JlIElsbHVzdHJhdG9yIENDIDIwMTcgKFdpbmRvd3MpIiBfZGZsdF86Y2hhbmdlZD0iLyIvPg0KCQkJCQk8cmRmOmxpIF9kZmx0XzphY3Rpb249InNhdmVkIiBfZGZsdF86aW5zdGFuY2VJRD0ieG1wLmlpZDoxMzYzN2M2OS1hMDZlLTNmNGItYjgxNS0zODI1ZTg4NGFkOWIiIF9kZmx0Xzp3aGVuPSIyMDE4LTA5LTI5VDE1OjQwOjMyKzAzOjAwIiBfZGZsdF86c29mdHdhcmVBZ2VudD0iQWRvYmUgSWxsdXN0cmF0b3IgQ0MgMjIuMSAoV2luZG93cykiIF9kZmx0XzpjaGFuZ2VkPSIvIi8+DQoJCQkJPC9yZGY6U2VxPg0KCQkJPC94bXBNTTpIaXN0b3J5Pg0KCQkJPE1pY3Jvc29mdFBob3RvOkxhc3RLZXl3b3JkWE1QPg0KCQkJCTxyZGY6QmFnPg0KCQkJCQk8cmRmOmxpPmljb248L3JkZjpsaT4NCgkJCQkJPHJkZjpsaT5hdXRvbWF0aW9uPC9yZGY6bGk+DQoJCQkJCTxyZGY6bGk+cm9ib3Q8L3JkZjpsaT4NCgkJCQkJPHJkZjpsaT5hcm08L3JkZjpsaT4NCgkJCQkJPHJkZjpsaT5wcm9kdWN0aW9uPC9yZGY6bGk+DQoJCQkJCTxyZGY6bGk+cm9ib3RpYzwvcmRmOmxpPg0KCQkJCQk8cmRmOmxpPm1hbnVmYWN0dXJpbmc8L3JkZjpsaT4NCgkJCQkJPHJkZjpsaT5tYWNoaW5lPC9yZGY6bGk+DQoJCQkJCTxyZGY6bGk+dmVjdG9yPC9yZGY6bGk+DQoJCQkJCTxyZGY6bGk+aW5kdXN0cnk8L3JkZjpsaT4NCgkJCQkJPHJkZjpsaT5wcm9jZXNzPC9yZGY6bGk+DQoJCQkJCTxyZGY6bGk+bGluZTwvcmRmOmxpPg0KCQkJCQk8cmRmOmxpPmZhY3Rvcnk8L3JkZjpsaT4NCgkJCQkJPHJkZjpsaT5pbmR1c3RyaWFsPC9yZGY6bGk+DQoJCQkJCTxyZGY6bGk+aWxsdXN0cmF0aW9uPC9yZGY6bGk+DQoJCQkJCTxyZGY6bGk+YXV0b21hdGVkPC9yZGY6bGk+DQoJCQkJCTxyZGY6bGk+dGVjaG5vbG9neTwvcmRmOmxpPg0KCQkJCQk8cmRmOmxpPmRlc2lnbjwvcmRmOmxpPg0KCQkJCQk8cmRmOmxpPnBsYW50PC9yZGY6bGk+DQoJCQkJCTxyZGY6bGk+bWFudWZhY3R1cmU8L3JkZjpsaT4NCgkJCQkJPHJkZjpsaT5jb21wdXRlcjwvcmRmOmxpPg0KCQkJCQk8cmRmOmxpPmlzb2xhdGVkPC9yZGY6bGk+DQoJCQkJCTxyZGY6bGk+aGFuZDwvcmRmOmxpPg0KCQkJCQk8cmRmOmxpPmlvdDwvcmRmOmxpPg0KCQkJCQk8cmRmOmxpPnN5bWJvbDwvcmRmOmxpPg0KCQkJCQk8cmRmOmxpPnNpZ248L3JkZjpsaT4NCgkJCQkJPHJkZjpsaT5jb252ZXlvcjwvcmRmOmxpPg0KCQkJCQk8cmRmOmxpPnByb2R1Y3Q8L3JkZjpsaT4NCgkJCQkJPHJkZjpsaT5tZWNoYW5pY2FsPC9yZGY6bGk+DQoJCQkJCTxyZGY6bGk+ZnV0dXJlPC9yZGY6bGk+DQoJCQkJCTxyZGY6bGk+dGVjaDwvcmRmOmxpPg0KCQkJCQk8cmRmOmxpPmF1dG88L3JkZjpsaT4NCgkJCQkJPHJkZjpsaT5tb2Rlcm5pemF0aW9uPC9yZGY6bGk+DQoJCQkJCTxyZGY6bGk+cm9ib3RpY3M8L3JkZjpsaT4NCgkJCQkJPHJkZjpsaT5lcXVpcG1lbnQ8L3JkZjpsaT4NCgkJCQkJPHJkZjpsaT5pbnRlZ3JhdGlvbjwvcmRmOmxpPg0KCQkJCQk8cmRmOmxpPnN5c3RlbTwvcmRmOmxpPg0KCQkJCQk8cmRmOmxpPjQ8L3JkZjpsaT4NCgkJCQkJPHJkZjpsaT40LjA8L3JkZjpsaT4NCgkJCQkJPHJkZjpsaT5sb2dvPC9yZGY6bGk+DQoJCQkJCTxyZGY6bGk+YmxhY2s8L3JkZjpsaT4NCgkJCQk8L3JkZjpCYWc+DQoJCQk8L01pY3Jvc29mdFBob3RvOkxhc3RLZXl3b3JkWE1QPg0KCQkJPHBob3Rvc2hvcDpIZWFkbGluZT4NCgkJCQk8cmRmOkFsdD4NCgkJCQkJPHJkZjpsaT5BdXRvbWF0aW9uIGljb24uIE1vbm9jaHJvbWUgc3R5bGUgZGVzaWduIGZyb20gaW5kdXN0cnkgNC4wIGljb24gY29sbGVjdGlvbi4gVUkgYW5kIFVYLiBQaXhlbCBwZXJmZWN0IGF1dG9tYXRpb24gaWNvbi4gRm9yIHdlYiBkZXNpZ24sIGFwcHMsIHNvZnR3YXJlLCBwcmludCB1c2FnZS48L3JkZjpsaT4NCgkJCQk8L3JkZjpBbHQ+DQoJCQk8L3Bob3Rvc2hvcDpIZWFkbGluZT4NCgkJPC9yZGY6RGVzY3JpcHRpb24+DQoJPC9yZGY6UkRGPg0KPC94OnhtcG1ldGE+DQogICAgICAgICAgICAgICAgICAgICAgICAgICAgICAgICAgICAgICAgICAgICAgICAgICAgICAgICAgICAgICAgICAgICAgICAgICAgICAgICAgICAgICAgICAgICAgICAgICAgCiAgICAgICAgICAgICAgICAgICAgICAgICAgICAgICAgICAgICAgICAgICAgICAgICAgICAgICAgICAgICAgICAgICAgICAgICAgICAgICAgICAgICAgICAgICAgICAgICAgICAKICAgICAgICAgICAgICAgICAgICAgICAgICAgICAgICAgICAgICAgICAgICAgICAgICAgICAgICAgICAgICAgICAgICAgICAgICAgICAgICAgICAgICAgICAgICAgICAgICAgIAogICAgICAgICAgICAgICAgICAgICAgICAgICAgICAgICAgICAgICAgICAgICAgICAgICAgICAgICAgICAgICAgICAgICAgICAgICAgICAgICAgICAgICAgICAgICAgICAgICAgCiAgICAgICAgICAgICAgICAgICAgICAgICAgICAgICAgICAgICAgICAgICAgICAgICAgICAgICAgICAgICAgICAgICAgICAgICAgICAgICAgICAgICAgICAgICAgICAgICAgICAKICAgICAgICAgICAgICAgICAgICAgICAgICAgICAgICAgICAgICAgICAgICAgICAgICAgICAgICAgICAgICAgICAgICAgICAgICAgICAgICAgICAgICAgICAgICAgICAgICAgIAogICAgICAgICAgICAgICAgICAgICAgICAgICAgICAgICAgICAgICAgICAgICAgICAgICAgICAgICAgICAgICAgICAgICAgICAgICAgICAgICAgICAgICAgICAgICAgICAgICAgCiAgICAgICAgICAgICAgICAgICAgICAgICAgICAgICAgICAgICAgICAgICAgICAgICAgICAgICAgICAgICAgICAgICAgICAgICAgICAgICAgICAgICAgICAgICAgICAgICAgICAKICAgICAgICAgICAgICAgICAgICAgICAgICAgICAgICAgICAgICAgICAgICAgICAgICAgICAgICAgICAgICAgICAgICAgICAgICAgICAgICAgICAgICAgICAgICAgICAgICAgIAogICAgICAgICAgICAgICAgICAgICAgICAgICAgICAgICAgICAgICAgICAgICAgICAgICAgICAgICAgICAgICAgICAgICAgICAgICAgICAgICAgICAgICAgICAgICAgICAgICAgCiAgICAgICAgICAgICAgICAgICAgICAgICAgICAgICAgICAgICAgICAgICAgICAgICAgICAgICAgICAgICAgICAgICAgICAgICAgICAgICAgICAgICAgICAgICAgICAgICAgICAKICAgICAgICAgICAgICAgICAgICAgICAgICAgICAgICAgICAgICAgICAgICAgICAgICAgICAgICAgICAgICAgICAgICAgICAgICAgICAgICAgICAgICAgICAgICAgICAgICAgIAogICAgICAgICAgICAgICAgICAgICAgICAgICAgICAgICAgICAgICAgICAgICAgICAgICAgICAgICAgICAgICAgICAgICAgICAgICAgICAgICAgICAgICAgICAgICAgICAgICAgCiAgICAgICAgICAgICAgICAgICAgICAgICAgICAgICAgICAgICAgICA8P3hwYWNrZXQgZW5kPSd3Jz8+/+0EGlBob3Rvc2hvcCAzLjAAOEJJTQPtAAAAAAAQAZAAAAABAAEBkAAAAAEAAThCSU0EBAAAAAAD4hwBAAACAAQcAgUAokF1dG9tYXRpb24gaWNvbi4gTW9ub2Nocm9tZSBzdHlsZSBkZXNpZ24gZnJvbSBpbmR1c3RyeSA0LjAgaWNvbiBjb2xsZWN0aW9uLiBVSSBhbmQgVVguIFBpeGVsIHBlcmZlY3QgYXV0b21hdGlvbiBpY29uLiBGb3Igd2ViIGRlc2lnbiwgYXBwcywgc29mdHdhcmUsIHByaW50IHVzYWdlLhwCaQCiQXV0b21hdGlvbiBpY29uLiBNb25vY2hyb21lIHN0eWxlIGRlc2lnbiBmcm9tIGluZHVzdHJ5IDQuMCBpY29uIGNvbGxlY3Rpb24uIFVJIGFuZCBVWC4gUGl4ZWwgcGVyZmVjdCBhdXRvbWF0aW9uIGljb24uIEZvciB3ZWIgZGVzaWduLCBhcHBzLCBzb2Z0d2FyZSwgcHJpbnQgdXNhZ2UuHAJ4AJ1BdXRvbWF0aW9uIGljb24uIFNpbXBsZSBzdHlsZSBkZXNpZ24gZnJvbSBpbmR1c3RyeSA0LjAgY29sbGVjdGlvbi4gVVggYW5kIFVJLiBQaXhlbCBwZXJmZWN0IHByZW1pdW0gYXV0b21hdGlvbiBpY29uLiBGb3Igd2ViIGRlc2lnbiwgYXBwcyBhbmQgcHJpbnRpbmcgdXNhZ2UuHAIZAARpY29uHAIZAAphdXRvbWF0aW9uHAIZAAVyb2JvdBwCGQADYXJtHAIZAApwcm9kdWN0aW9uHAIZAAdyb2JvdGljHAIZAA1tYW51ZmFjdHVyaW5nHAIZAAdtYWNoaW5lHAIZAAZ2ZWN0b3IcAhkACGluZHVzdHJ5HAIZAAdwcm9jZXNzHAIZAARsaW5lHAIZAAdmYWN0b3J5HAIZAAppbmR1c3RyaWFsHAIZAAxpbGx1c3RyYXRpb24cAhkACWF1dG9tYXRlZBwCGQAKdGVjaG5vbG9neRwCGQAGZGVzaWduHAIZAAVwbGFudBwCGQALbWFudWZhY3R1cmUcAhkACGNvbXB1dGVyHAIZAAhpc29sYXRlZBwCGQAEaGFuZBwCGQADaW90HAIZAAZzeW1ib2wcAhkABHNpZ24cAhkACGNvbnZleW9yHAIZAAdwcm9kdWN0HAIZAAptZWNoYW5pY2FsHAIZAAZmdXR1cmUcAhkABHRlY2gcAhkABGF1dG8cAhkADW1vZGVybml6YXRpb24cAhkACHJvYm90aWNzHAIZAAllcXVpcG1lbnQcAhkAC2ludGVncmF0aW9uHAIZAAZzeXN0ZW0cAhkAATQcAhkAAzQuMBwCGQAEbG9nbxwCGQAFYmxhY2v/4gxYSUNDX1BST0ZJTEUAAQEAAAxITGlubwIQAABtbnRyUkdCIFhZWiAHzgACAAkABgAxAABhY3NwTVNGVAAAAABJRUMgc1JHQgAAAAAAAAAAAAAAAAAA9tYAAQAAAADTLUhQICAAAAAAAAAAAAAAAAAAAAAAAAAAAAAAAAAAAAAAAAAAAAAAAAAAAAAAAAAAAAAAABFjcHJ0AAABUAAAADNkZXNjAAABhAAAAGx3dHB0AAAB8AAAABRia3B0AAACBAAAABRyWFlaAAACGAAAABRnWFlaAAACLAAAABRiWFlaAAACQAAAABRkbW5kAAACVAAAAHBkbWRkAAACxAAAAIh2dWVkAAADTAAAAIZ2aWV3AAAD1AAAACRsdW1pAAAD+AAAABRtZWFzAAAEDAAAACR0ZWNoAAAEMAAAAAxyVFJDAAAEPAAACAxnVFJDAAAEPAAACAxiVFJDAAAEPAAACAx0ZXh0AAAAAENvcHlyaWdodCAoYykgMTk5OCBIZXdsZXR0LVBhY2thcmQgQ29tcGFueQAAZGVzYwAAAAAAAAASc1JHQiBJRUM2MTk2Ni0yLjEAAAAAAAAAAAAAABJzUkdCIElFQzYxOTY2LTIuMQAAAAAAAAAAAAAAAAAAAAAAAAAAAAAAAAAAAAAAAAAAAAAAAAAAAAAAAAAAAAAAAAAAWFlaIAAAAAAAAPNRAAEAAAABFsxYWVogAAAAAAAAAAAAAAAAAAAAAFhZWiAAAAAAAABvogAAOPUAAAOQWFlaIAAAAAAAAGKZAAC3hQAAGNpYWVogAAAAAAAAJKAAAA+EAAC2z2Rlc2MAAAAAAAAAFklFQyBodHRwOi8vd3d3LmllYy5jaAAAAAAAAAAAAAAAFklFQyBodHRwOi8vd3d3LmllYy5jaAAAAAAAAAAAAAAAAAAAAAAAAAAAAAAAAAAAAAAAAAAAAAAAAAAAAAAAAAAAAABkZXNjAAAAAAAAAC5JRUMgNjE5NjYtMi4xIERlZmF1bHQgUkdCIGNvbG91ciBzcGFjZSAtIHNSR0IAAAAAAAAAAAAAAC5JRUMgNjE5NjYtMi4xIERlZmF1bHQgUkdCIGNvbG91ciBzcGFjZSAtIHNSR0IAAAAAAAAAAAAAAAAAAAAAAAAAAAAAZGVzYwAAAAAAAAAsUmVmZXJlbmNlIFZpZXdpbmcgQ29uZGl0aW9uIGluIElFQzYxOTY2LTIuMQAAAAAAAAAAAAAALFJlZmVyZW5jZSBWaWV3aW5nIENvbmRpdGlvbiBpbiBJRUM2MTk2Ni0yLjEAAAAAAAAAAAAAAAAAAAAAAAAAAAAAAAAAAHZpZXcAAAAAABOk/gAUXy4AEM8UAAPtzAAEEwsAA1yeAAAAAVhZWiAAAAAAAEwJVgBQAAAAVx/nbWVhcwAAAAAAAAABAAAAAAAAAAAAAAAAAAAAAAAAAo8AAAACc2lnIAAAAABDUlQgY3VydgAAAAAAAAQAAAAABQAKAA8AFAAZAB4AIwAoAC0AMgA3ADsAQABFAEoATwBUAFkAXgBjAGgAbQByAHcAfACBAIYAiwCQAJUAmgCfAKQAqQCuALIAtwC8AMEAxgDLANAA1QDbAOAA5QDrAPAA9gD7AQEBBwENARMBGQEfASUBKwEyATgBPgFFAUwBUgFZAWABZwFuAXUBfAGDAYsBkgGaAaEBqQGxAbkBwQHJAdEB2QHhAekB8gH6AgMCDAIUAh0CJgIvAjgCQQJLAlQCXQJnAnECegKEAo4CmAKiAqwCtgLBAssC1QLgAusC9QMAAwsDFgMhAy0DOANDA08DWgNmA3IDfgOKA5YDogOuA7oDxwPTA+AD7AP5BAYEEwQgBC0EOwRIBFUEYwRxBH4EjASaBKgEtgTEBNME4QTwBP4FDQUcBSsFOgVJBVgFZwV3BYYFlgWmBbUFxQXVBeUF9gYGBhYGJwY3BkgGWQZqBnsGjAadBq8GwAbRBuMG9QcHBxkHKwc9B08HYQd0B4YHmQesB78H0gflB/gICwgfCDIIRghaCG4IggiWCKoIvgjSCOcI+wkQCSUJOglPCWQJeQmPCaQJugnPCeUJ+woRCicKPQpUCmoKgQqYCq4KxQrcCvMLCwsiCzkLUQtpC4ALmAuwC8gL4Qv5DBIMKgxDDFwMdQyODKcMwAzZDPMNDQ0mDUANWg10DY4NqQ3DDd4N+A4TDi4OSQ5kDn8Omw62DtIO7g8JDyUPQQ9eD3oPlg+zD88P7BAJECYQQxBhEH4QmxC5ENcQ9RETETERTxFtEYwRqhHJEegSBxImEkUSZBKEEqMSwxLjEwMTIxNDE2MTgxOkE8UT5RQGFCcUSRRqFIsUrRTOFPAVEhU0FVYVeBWbFb0V4BYDFiYWSRZsFo8WshbWFvoXHRdBF2UXiReuF9IX9xgbGEAYZRiKGK8Y1Rj6GSAZRRlrGZEZtxndGgQaKhpRGncanhrFGuwbFBs7G2MbihuyG9ocAhwqHFIcexyjHMwc9R0eHUcdcB2ZHcMd7B4WHkAeah6UHr4e6R8THz4faR+UH78f6iAVIEEgbCCYIMQg8CEcIUghdSGhIc4h+yInIlUigiKvIt0jCiM4I2YjlCPCI/AkHyRNJHwkqyTaJQklOCVoJZclxyX3JicmVyaHJrcm6CcYJ0kneierJ9woDSg/KHEooijUKQYpOClrKZ0p0CoCKjUqaCqbKs8rAis2K2krnSvRLAUsOSxuLKIs1y0MLUEtdi2rLeEuFi5MLoIuty7uLyQvWi+RL8cv/jA1MGwwpDDbMRIxSjGCMbox8jIqMmMymzLUMw0zRjN/M7gz8TQrNGU0njTYNRM1TTWHNcI1/TY3NnI2rjbpNyQ3YDecN9c4FDhQOIw4yDkFOUI5fzm8Ofk6Njp0OrI67zstO2s7qjvoPCc8ZTykPOM9Ij1hPaE94D4gPmA+oD7gPyE/YT+iP+JAI0BkQKZA50EpQWpBrEHuQjBCckK1QvdDOkN9Q8BEA0RHRIpEzkUSRVVFmkXeRiJGZ0arRvBHNUd7R8BIBUhLSJFI10kdSWNJqUnwSjdKfUrESwxLU0uaS+JMKkxyTLpNAk1KTZNN3E4lTm5Ot08AT0lPk0/dUCdQcVC7UQZRUFGbUeZSMVJ8UsdTE1NfU6pT9lRCVI9U21UoVXVVwlYPVlxWqVb3V0RXklfgWC9YfVjLWRpZaVm4WgdaVlqmWvVbRVuVW+VcNVyGXNZdJ114XcleGl5sXr1fD19hX7NgBWBXYKpg/GFPYaJh9WJJYpxi8GNDY5dj62RAZJRk6WU9ZZJl52Y9ZpJm6Gc9Z5Nn6Wg/aJZo7GlDaZpp8WpIap9q92tPa6dr/2xXbK9tCG1gbbluEm5rbsRvHm94b9FwK3CGcOBxOnGVcfByS3KmcwFzXXO4dBR0cHTMdSh1hXXhdj52m3b4d1Z3s3gReG54zHkqeYl553pGeqV7BHtje8J8IXyBfOF9QX2hfgF+Yn7CfyN/hH/lgEeAqIEKgWuBzYIwgpKC9INXg7qEHYSAhOOFR4Wrhg6GcobXhzuHn4gEiGmIzokziZmJ/opkisqLMIuWi/yMY4zKjTGNmI3/jmaOzo82j56QBpBukNaRP5GokhGSepLjk02TtpQglIqU9JVflcmWNJaflwqXdZfgmEyYuJkkmZCZ/JpomtWbQpuvnByciZz3nWSd0p5Anq6fHZ+Ln/qgaaDYoUehtqImopajBqN2o+akVqTHpTilqaYapoum/adup+CoUqjEqTepqaocqo+rAqt1q+msXKzQrUStuK4trqGvFq+LsACwdbDqsWCx1rJLssKzOLOutCW0nLUTtYq2AbZ5tvC3aLfguFm40blKucK6O7q1uy67p7whvJu9Fb2Pvgq+hL7/v3q/9cBwwOzBZ8Hjwl/C28NYw9TEUcTOxUvFyMZGxsPHQce/yD3IvMk6ybnKOMq3yzbLtsw1zLXNNc21zjbOts83z7jQOdC60TzRvtI/0sHTRNPG1EnUy9VO1dHWVdbY11zX4Nhk2OjZbNnx2nba+9uA3AXcit0Q3ZbeHN6i3ynfr+A24L3hROHM4lPi2+Nj4+vkc+T85YTmDeaW5x/nqegy6LzpRunQ6lvq5etw6/vshu0R7ZzuKO6070DvzPBY8OXxcvH/8ozzGfOn9DT0wvVQ9d72bfb794r4Gfio+Tj5x/pX+uf7d/wH/Jj9Kf26/kv+3P9t////2wBDAAIBAQIBAQICAgICAgICAwUDAwMDAwYEBAMFBwYHBwcGBwcICQsJCAgKCAcHCg0KCgsMDAwMBwkODw0MDgsMDAz/2wBDAQICAgMDAwYDAwYMCAcIDAwMDAwMDAwMDAwMDAwMDAwMDAwMDAwMDAwMDAwMDAwMDAwMDAwMDAwMDAwMDAwMDAz/wAARCAJUAs4DASIAAhEBAxEB/8QAHwAAAQUBAQEBAQEAAAAAAAAAAAECAwQFBgcICQoL/8QAtRAAAgEDAwIEAwUFBAQAAAF9AQIDAAQRBRIhMUEGE1FhByJxFDKBkaEII0KxwRVS0fAkM2JyggkKFhcYGRolJicoKSo0NTY3ODk6Q0RFRkdISUpTVFVWV1hZWmNkZWZnaGlqc3R1dnd4eXqDhIWGh4iJipKTlJWWl5iZmqKjpKWmp6ipqrKztLW2t7i5usLDxMXGx8jJytLT1NXW19jZ2uHi4+Tl5ufo6erx8vP09fb3+Pn6/8QAHwEAAwEBAQEBAQEBAQAAAAAAAAECAwQFBgcICQoL/8QAtREAAgECBAQDBAcFBAQAAQJ3AAECAxEEBSExBhJBUQdhcRMiMoEIFEKRobHBCSMzUvAVYnLRChYkNOEl8RcYGRomJygpKjU2Nzg5OkNERUZHSElKU1RVVldYWVpjZGVmZ2hpanN0dXZ3eHl6goOEhYaHiImKkpOUlZaXmJmaoqOkpaanqKmqsrO0tba3uLm6wsPExcbHyMnK0tPU1dbX2Nna4uPk5ebn6Onq8vP09fb3+Pn6/9oADAMBAAIRAxEAPwD9/KKKKACiiigAooooAKKKKACiiigAooooAKKKKACiiigAooooAKKKKACiiigAooooAKKKKACiiigAooooAKKKKACiiigAooooAKKKKACiiigAooooAKKKKACiiigAooooAKKKKACiiigAooooAKKKKACiiigAooooAKKKKACiiigAooooAKKKKACiiigAooooAKKKKACiiigAooooAKKKKACiiigAooooAKKKKACiiigAooooAKKKKACiiigAooooAKKKKACiiigAooooAKKKKACiiigAooooAKKKKACiiigAooooAKKKKACiiigAooooAKKKKACiiigAooooAKKKKACiiigAooooAKKKKACiiigAooooAKKKKACiiigAooooAKKKKACiiigAooooAKKKKACiiigAooooAKKKKACiiigAooooAKKKKACiiigAooooAKKKKACiiigAooooAKKKKACiiigAooooAKKKKACiiigAooooAKKKKACiiigAooooAKKKKACiiigAooooAKKKKACiiigAooooAKKKKACiiigAooooAKKKKACiiigAooooAKKKKACiiigAooooAKKKKACiiigAooooAKKKKACiiigAooooAKKKKACiiigAooooAKKKKACiiigAooooAKKKKACiiigAooooAKKKKACiiigAooooAKKKKACiiigAooooAKKKKACiiigAooooAKKKKACiiigAooooAKKKKACiiigAooooAKKKKACiiigAooooAKKKKACiiigAooooAKKKKACiiigAooooAKKKKACiiigAooooAKKKKACiiigAooooAKKKKACiiigAooooAKKKKACiiigAooooAKKKKACiiigAooooAKKKKACiiigAooooAKKKKACiiigAooooAKKKKACiiigAooooAKKKKACiiigAooooAKKKKACiiigAooooAKKKKACiiigAooooAKKKKACiiigAooooAKKKKACiiigAooooAKKKKACiiigAooooAKKKKACiiigAooooAKKKKACiiigAooooAKKKKACiiigAoozSF8CgBaK8g/af/bx+EH7G+lLc/Ev4geHfCrzLuhtLi48y+uB6x2yBpZPqqEe9fBnxh/4OvPgv4Qu3t/Bngf4geNGjYj7RLHBpFs+O4MjtKQfeIH2rWFGpP4UY1MTSp6Tkj9Us0bq/E++/4O8rg3Z+zfAOP7P/ANNfGHz4/CzxXafDf/g7g8B6nexx+LPg74y0O3YfPNpOq2up7ffbIID/ADNa/U63YxWYUH9r8z9fM0Zr5V/ZV/4LRfs4/thXttp/hf4iabp/iC6+WLRtfRtJvpGz91Fmwsp/65M3WvqhJFKjmueUZR0kjqhUjNXi7jqKCwH86KkoKKKKACiiigAooooAKKKKACiiigAooooAKKKKACiiigAooooAKKKKACiiigAooooAKKKKACiiigAooooAKKKKACiiigAooooAKKKKACiiigAooooAKKKKACiiigAooooAKKKKACiiigAooooAKKKKACiiigAooooAKKKKACiiigAooooAKKKKACiiigAooooAKKKKACiiigAooooAKN2DRVe/uY7WCSSZ1jijQs7M21VA5JJPQADOf8KAM7xz410n4d+FNQ1zXNUsdH0fSoHu7y9vZ1gtrWJFyzyOxAVQO54H5Cvw6/4Kf/8ABzB4j+IOqal4N/Z3km8N+HUZrefxjcQbdS1MDg/Y42GLaM8kSSDzG6gRcE+N/wDBc/8A4LC337dPxNvPh74F1OaH4O+GbvYGiJUeLbqNv+PqTubdWH7lDwceY2Syhfz1zn/69ethcGkuepv2PBxuYSb5KT07lzxN4k1Hxj4hvNY1fUL/AFjVtQYy3V/fTvcXV05PLPI53kn1JJ9ap4xRRnivS2PJCijOaN1ADZEWVNrLuU9iMj/P+c19xf8ABOj/AILx/GH9hO/s9H1a+uviR8OYyEk0PVrpnurJM8mzum3NHgHiOTfGTwAn36+H8/40VEqcZq0kaU6soPmg7H9b/wCxP+3z8Mf2+vhkviX4b69HqSw7Vv8ATLgCHUdHlI4iuICSUJwQGXKNglWYc17Wh+X9K/jv/Zw/aX8b/sj/ABc0zxz8P9evPD/iLSmBWWE7o7mPOWgmjJ2ywvgbkYcgdVIVq/pg/wCCUn/BUrwv/wAFM/gpJqtqsWh+OvD6xw+JtAEu77HKQdtxAW+Z7aQhijEbgQyPyteNisI6fvR1R9Bg8cq3uy+L8z6yopE+7SlsVxnoBRQDmjOaACiiigAooooAKKKKACiiigAooooAKKKKACiiigAooooAKKKKACiiigAooooAKKKKACiiigAooooAKKKKACiiigAooooAKKKKACiiigAooooAKKKKACiiigAooooAKKKKACiiigAooooAKKKKACiiigAooooAKKKKACiiigAooooAKKKKACiiigAooooAKKKKACiijdzQAhcA4yMjnFfkv/wco/8ABU5vg54Ek/Z/8Daky+LPF1oH8VXUEu1tK0yQcWoYcrLcg/N02wknrKuft3/gp3/wUD0H/gnT+y9rHjfUltr/AFyY/YPDekPJhtW1B1OxDj5hGnMkjDoiHHJAP8rnxR+JuvfGj4j674u8Ualca14i8SXsmo6jeTHDXEzNuzj+EAnCoOFUBQOK9DA4fmfPLZHl5liuSPs47v8AIwlxtG3pj02/p2+lFB6nvzyc5yaK9g+fDv8ArXsH7Gn7BvxS/b4+IzeG/hn4am1iS12NqOozt9n03SUbPzT3GMISBlVXc7YOFNZv7Gn7K/iD9tj9pjwn8M/DeIr/AMRXeJrpk8yPTrVBuuLpx/djjBOMjcxRQQWJr+q79k39kvwX+xZ8DdF+H/gPSY9N0PRoyXfAM+o3DY8y6nfA8yaQgFmI7BRhQAOPFYr2SstzvwWDdZ8z2Py++BX/AAaS6DDpNvP8Tvi1rl/qDqDNZ+F7CK0toj3AmuBI8g/2tkZ9q6/4i/8ABpd8JtT0tl8KfEz4kaHfBSI5dRWz1OEH3RYoG/ASD61+sKDaoB5pa8365WvfmPZWAoJW5T+XX/goT/wRH+NH/BPOwn17VLO18Y+AYXUv4l0JXaGxycf6XA/z2/UfPl4ySB5mTivj0DIzj36V/aBrej2uv6dcWV9bQXlndxNDNBNEJI5kYFWRlYEMrA4II5BPbNfzX/8ABej/AIJcWn/BPj9oqy1zwdZvb/DH4gtLPpUJG9dEvE5nsQc58vDCSLPRSVydhNd+Fxjm+Se55eOwPs1z09j4Pr2D9hP9s3xN+wR+014d+JPhiSSWTS5PK1LT95EesWDlRPauOnzLhkJ5WRUboOfH85H8uc4HpQDj8+3bpz/9au6UU1Znmxk4vmR/ZH8E/i5oHx5+Enhzxp4XvY9Q8O+J9Ph1HT51x88MihlBHZhnDL1DAg8ivlj/AIKlf8FQ9c/4Jg+MfAuuax4Dbxh8LvFrS6bd3enXX2fVNH1BP3i4Eg8mVJIQ5VC0bboZPmbIA+Zf+DU/9rWbx7+zx4y+D+qXPmXHw9vk1TR1eQll0+8L74l/2Y7hJD/28AV9a/8ABb39mxP2n/8Agmf8TtJit1uNX0DTT4l0rjLLc2J+0YX/AH40lj+khrwfZxhW5J7XPpvbSqYf2kN7fibP7Hf/AAV2+Af7bqW1r4L8e6db+IbhR/xT+sj+zdV3f3VhlP70+8TSD3r6aVwR97p19q/izDJMI5BnBIdCCMjuCD2PoRivr/8AY+/4Ll/tF/scraWOn+MpPGfhq1wBofisPqMKKBwscxYXEQHosm3/AGMV11MutrTf3nFRzZPSqvmj+o/NFfmD+yB/wdD/AAX+MgttN+KGm6p8JdZcKsl1KW1DRZGPG4XEaiSIFuf3kYUd3PWv0e+HPxR8N/Frwlb674X17RvEei3QJiv9MvI7q2k9cPGSv1GcivPqUZw+JHp0q9OorwdzoKKA2TRmszYKKKKACiiigAooooAKKKKACiiigAooooAKKKKACiiigAooooAKKKKACiiigAooooAKKKKACiiigAooooAKKKKACiiigAooooAKKKKACiiigAooooAKKKKACiiigAooooAKKKKACiiigAooooAKKKKACiiigAooooAKKKKACiiigAooooAKKKKACsfxt4v0zwB4W1TXNavrfTNH0e1kvL28uH8uK1hjUu8jt2VVBJ9MeuK12cL3r8Qv+DmL/gqd/wAJDq8/7OXgXUsWdk8c/ji9t5crNJw8WmAqfuqcSTD+95aHGHA2o0XUlyowxGIVKDmz4U/4K3/8FH9U/wCCkv7U154iV7q38B+Hd+neE9NlG0xWe75riRc4E9wQHbuqiNDjYM/LgG0Y9OOlGc//AF+3+fWivoIxUVyo+UqVHOTlLcKKKCcVRJ+v/wDwaSfBmz1r4q/GD4gXEaNe6Dp9h4fsmZQxi+1PLPMV9CRbwjPoT2NfuWnCD/OK/EX/AING/itZ6f4w+NngmZgt9qNppmv2y5+9FC09vNj1wZYfpn3r9vAeK8HG39s7n02XW9greYUUUVyncFfC/wDwcX/Bmx+LP/BKzx9e3EatfeCZrPxHYSEfNC8U6Ry49jBLKCO+fpX3RuxXxL/wcK/FOz+GX/BKP4nR3Eyx3HihLPw/ZKcfvZbi6i3D8IlkbjspPatqF/aRt3McTb2Ur9mfzGnIJyMHPI9KKGOTRX0R8iff/wDwbRfFG4+H/wDwVM0PSY5jDbeN/D+p6PMM/K5SIXkfHchrY4/3iO9f0e+ItEtfEug3mm30Yms9Qge2njPR0dSrKfqDj8a/l5/4ITCY/wDBWv4Ki33K51S6LEf3Bp12W/QV/UgP9SvZsA8/hXi5hpVT8j6DK9aTT7/5H8Znjbwu3gjxprWhyf6zQ9SudOb6wTPF/wCyVmV6J+135Z/ay+KnkY8n/hM9a2Y6Bf7QnxXndezHY8GW4o/XPH+Of8iu3+Af7S/xC/Za8Wrrnw58ZeIvBupbgZJNLu/JS5xyRLEcxSDpw4YHpx0rh6KGk1ZijJp3R+t37Hv/AAdZeNfBa2ml/GvwXZ+MrNQBJrnh0JYakB3Z7Vz5Ep9djw/7pr9Uv2QP+CqfwJ/bgihh8BePtKuNbkUFtC1AnT9WiPdRby4Z8d2jLr71/J/SoxjmjkVmSSFt0bKcMjDowbqpHqK46mBpy1jod9HMqsNJan9pKOMde570oYHuK/mC/Y//AOC9f7Rv7Iv2WxXxafiD4atwF/sjxaXvtqjoIrrcLiIAcAFnUdk7V+qH7H//AAc5/A346fZ9N+IcOpfCPXJMK8mo5vNHdjgZW7jXMYJ5/fxoB/erzqmDqQ815HrUcwo1NG7PzP0uzRWN4I+IOhfEjw3b6x4e1nSte0i8GYL7TruO6t5h/syISp/A1sFgB1Fcp3X6oWigHIooAKKKKACiiigAooooAKKKKACiiigAooooAKKKKACiiigAooooAKKKKACiiigAooooAKKKKACiiigAooooAKKKKACiiigAooooAKKKKACiiigAooooAKKKKACiiigAooooAKKKKACiiigAooooAKKKKACiiigAooooAKM0Z5rjfjz8cvDP7N3wh8R+OvF+pRaX4c8L2T399O3O1F6Ko/id2wiqOWZlUZJAoSb0QN2V2fM3/Baj/gptZf8ABOb9mOa40ie1n+Jni4S6f4WsnAfyX24lvpFP/LOAMD/tO0a9C2P5htY1i88Ratd6hqF1cX19qEz3d1c3DGSa6ldizSOx5ZmYliT3Nexf8FBv23/E3/BQX9p/XviJ4j86GC5b7LoultJuj0bT0J8i3XHBbku7j7zu56Fa8VIwfXnr6+9e9hcP7KOu73Pl8ZivbT02WwCiiiuo4wooooA9n/4J8ftk6r+wR+1t4V+JulwyXlvo8xg1exQhf7S0+XCzw5PAbb86HoHjQ1/Vp8BPjr4W/aT+Euh+NvBmrW2t+G/ENsLmzuoWzwchkcdUkRgyuhwVZWUgEEV/HIRu9+2CeK+jv+CfH/BU34rf8E3vFc0/gnUbfUvDOoTLJqfhnVd0um3zY2+auDuhm2gL5sfYAMrgAVx4rC+096O56GBxnsfdlt+R/V8G3DjmjNflv8Cv+Dqv4G+M9Ft18deGfHHgLVuPOEVmNYsc99ksJEpH+9Cp9vXrviF/wdAfsxeEtNkm0i68eeLLnaTHbWHh2S23HsDJdGJVHuM/Q15X1are3Kz2/rlC1+ZH6KTMqPuJ/X2/+tX863/BxP8A8FOtP/bP+OenfDnwRqMWo/D/AOHM8jz39tIWt9b1Ujy3kQ9GhgQtGjDIZnlYEjaayP8Ago//AMHDnxS/bd8OX3g/wnY/8Kv8A36GC9t7K7M+q6vERgxz3OFCRHnMUSjIJDuynbX58Ku1cfL+HSvQwmDcHzz3PKx2PVRezp7dxSc+/v60d6KM5wvv+Qr0TyT9Af8Ag2d+FU/xB/4KmaLrCxCS18E+HtT1eYkZCs8Ys4/pk3Rx67T6V/R14m1218K+HL3Ur2VYbPTbaS5ndjgIkalmOfYAn8K/K3/g1U/ZHm+Hn7Nvi74vapaeXefEa/TT9JZ0Ib+zrJpAXBPZ7l5enBEK19U/8Fxv2lF/Zi/4JnfEvU4bkW+reJrEeFtL/vNcXx8glfdYmmk46eXXh4p+0xHKvJH0WDj7LDc0vNn8v/jLxVJ458Z6xrkpLSa5qNzqTE9czzPLz/33WbQqqiqqjaqgKB/dA4A/DpRXuHzu+oUUUUAFFFFABQOD1/8ArH+f9KKKAPQ/2df2s/iX+yR4lGrfDXxx4i8G3jNmVdOuSLe5xz++t33Qyj2dWH0r9Qf2Mf8Ag6y1zRLiy0f47+DbfV7HhH8ReF08m7iX+/LZO2x8ZyTDIhx92Nj8tfj3Rn8O+axqUIVPiR0UcVUpfAz+wz9m/wDag8A/tafDG08X/DvxPpfijQbslPtFnJloJOrRSxsA8UgyCUdVYZBxgivQNwPev5Ev2KP24/iF+wJ8ZLbxn8PtW+xzZWPU9NnLPp+uW+cmC5iGAw64YfOhbKkHOf6c/wDgnv8At9eDf+Cin7PWn+OvCbtazBvsmtaPPKHu9CvQPngfHUchkkHEiEEAHIHkYnCulqtUe9g8bGt7r0ke9UU2M5WnVyHcFFFFABRRRmgAoozRmgAoozRuxQAUUbqM0AFFFFABRRRQAUUUUAFFFFABRRRQAUUUUAFFFFABRRRQAUUUUAFFFFABRRRQAUUUUAFFFFABRRRQAUUUUAFFFFABRRRQAUUUUAFFFFABRRRQAUUUUAFFFFABRRRQAUUUjNgUARynJYd//rdvSv58P+DjL/gqh/w1H8X5Pgz4J1LzPh/4CvSNZuraTdHrurR5Vlzn5obc5QdVaTe3REz9/f8ABwV/wVPb9iT4Er8P/BupfZ/in8Q7Z44JoGHm+H9NOUlvfUSsQyQ9Pm3uOYuf5yV4H/1yf5816mBw+vtZfI8bMsV/y6j8/wDIP/149KKKK9Q8QKKKKACiiigAooooACM+tGMdzRRQAUUUUAFe1f8ABP39iXxJ/wAFA/2oPD/w58OrNbwXj/bNZ1JULR6Pp8ZUTXLdsgNsRTjdJJGP71eO6TpV5ruq2tlYWtzfX17KlvbW9uheWeVmCpGijlmdmCqBzux61/Tl/wAEUf8AgmHa/wDBOT9mKGPWILWX4meMki1DxPdR4b7M23MVhG3/ADygBKkj77tI3QjHNisR7KPm9jswWGdadnstz6t+Enwv0P4IfDDw/wCD/DNjHpfh7wxp8OmadaoMLBBEgRB7nA5J5JyTya/B3/g6C/bnh+Nv7TOjfB/QbwXGh/C4NdauYn+SbV50AKHBwfIgIXHUPNIOqGv1P/4LDf8ABSbT/wDgm9+yzeazayW9x4/8TeZpvhOwkw++52/PcyL3ht1YO/ZjsTq9fy66/r974r16/wBU1S6uNQ1HVLmW9vLqd9813PI5d5HbuzMxY+5riwNFt+1l8j0MzxCjH2Mfn6FXpRRRXrHhhRRRQAUUUUAFFFFABRRRQAV9Yf8ABGv/AIKFXv8AwT2/bI0fV7q7lj8B+LJItF8V2wY+X9mdsJd46b7d2D5HOwyr/EcfJ9I6+YhVl3qcjbn749PaplBSXKy6dRwkpR6H9o9ncx3NrG8bxujqGVkIKsp6Eex7VMGz/KvkH/ghl+0lP+0//wAEyfhrq2oXTXmseH7WTw1qMjHLSS2LmBWY9dzwiFznqWz3r64Zx75x0PWvm5R5W4vofX05qcVJdSbcAab56lsZz9K/FX/gtV/wX7+IXwh/aP1r4R/BHUNP8Pw+EJBaa94i+xxXdzcXuAZIIFlVo40izsdirsZAwG0I2786fF3/AAVx/ae8blzffHb4kR+Z95bLU/sK89Ri3EfH04rsp4Gc1zXscFbMqcJONm7H9YHmAH+L8q5nxf8AGrwf8P1Zte8VeG9FVerX+qQWwH/fbCv5C/F/7Q/xC+Ibs2vePvHWtFzlv7Q8Q3lyG+oaQiuNngjupvMlRZJO7uoZvzOT+tbLLe8vwOaWcLpH8T+svx5/wVZ/Zt+Gwf8Atb45fC+F06pD4ht7px7bYmc/pXk3jL/g4c/ZJ8HxsU+KJ1mT/nnpehahdEn2YQBf/Hq/mPjXyV+QKnsvA/Lp+VA4NaRy6HVsxlm1R7JH9DHi3/g6r/Zx0OJl0vQ/ilr0y52iHRILVH/Ga4Uj8q8n8Xf8HdPhe3LroHwP8TXn919S8Q21mPxEUcpr8P6K0jgaK7/eZSzKu+q+4/ZLwP8A8Hcmpf8ACewt4m+Ctnb+GXIFw2l+Imm1CBD1dBLCschABOxjHkgfMM8/sV8CPjj4Z/aP+EPh/wAceDtTh1bwz4mtFvLG6TKlkPBVlPKurAq6NhlZWUgEEV/HGGPbt09V/Pj8K/Sf/g3m/wCCq4/ZC+Mi/CfxxqAi+Gfj69VbG4nlIi8O6o5VVkOeFgn+VH5AR9j9DIRjisFHl5qa1R0YPMJ8/LVej/A/olopkT/uxk80+vJPdCiiigAooooAKKKKACiiigAooooAKKKKACiiigAooooAKKKKACiiigAooooAKKKKACiiigAooooAKKKKACiiigAooooAKKKKACiiigAooooAKKKKACiiigAzzXkv7bH7W/hb9h79nPxJ8SfF03/Et0GD9xaRuEn1K6c7YbWLPV5HIXP8Iyx4UkerSLkN/hmvhX9v/wD4JQeJ/wDgqJ8eNNk+JHj648K/CHwa4Oi+GvD8SyX2p3DDE17c3EoaOJyP3capG5RAW3KZGA0pqLl770M60pqP7tXZ/O9+1H+0j4o/a7+O3ib4jeM7z7Rrnia4M8qqzeTZRKMRW0QP3Yoo9qKO+3J5JrgreT+0JGWBhcNnkRfvD+Qr+pL4A/8ABDf9l79nyC2bT/hToPiDULcc3/ibdrM7n+9ictGrf7iKPavpbwj8KvDPgK1WHQfDuh6LCgwqWGnw2yqPQBFFel/aEIq0YnjLK6knzTlr95/G9PpN3Zpuls7yFeu6S2dF/MiqkN1HcOVjkjkYdQjA4r+0a702G+gMU8MM0bcFHQMrD6HNeWfFj9g74L/HOzmt/F3wq+H/AIg84YaS80C2aUf7soQOp9w2aUcyXWI5ZQ/sy/D/AIJ/IgeDRnFf0NftO/8ABrv8Bfiza3Fx4BvPEvwr1Z+Y1s7k6npgP+1bXDFuv/POVD6elflP+3X/AMEO/jv+wjDeaxqGiR+NvBVrukfxF4cWS4htYx0a5tyPOg93IaMH/lpXVSxVOeiepx1sDWpq7WnkfHpGKKajKybl27cbvlIIwfccfjTuldJxhRRRQAUUUUAFG35vqOvoM4/nRnFfUH/BJb/gnHq3/BSX9qix8NeXdWvgjQdmpeLNTi+U29puIWCNj0mnIMaY5A8x8fu6mUlFc0iqcHOSjHdn3P8A8G0H/BLL/hKtUg/aQ8caZu0/T5Xi8C2dzF8tzMuUk1Mg9ky8cJ5+bzH/AIUr9m/jF8WtA+BHwu1/xl4p1KDSPD3hmyl1G/u52wsMUaljgd2PAVRyzEADJFangXwZpfw58G6XoOiafb6Xo+i2sdlY2duu2K1hjUIkaj+6qgAfSvxt/wCDpv47fFzUjpHw90/wb4q0v4O2Ih1PVvEaWjPp+vXv3o4HlTcscUH3tsm3fKQeREu7w9cRW1/pH0lo4Whpr+rPzV/4KRft4+IP+CiP7Ums+PNW+0Wmjxk2Hh3SpJSy6Tp6M2yIjp5j/wCskbqXcjoorwU/ifc9TQp3KCp3Ljgg5BH+FBGDXuRiorlWx83KTk3KW4UUUVRIUUUUAFFFFABRRRQAUUUUAFHT880UBd3GfvHFAH75/wDBpn4mmv8A9iz4i6SzMYNL8bPLCCfu+dY2pIH/AAJCfxr7s/4KFftbWP7D37Hnjr4lXnlPceH9Pb+zLeRgPtl/KfKtosdw0rLnHRQx6A18Wf8ABqX4Afw7/wAE/vFGvTKYz4q8Z3ckBIxvigtraDP4SJIPwNfM/wDwdVftrf8ACZfFbwl8C9FvD9g8KoviPxAI24e+mjK2kTDuYoGeQg8f6TH6CvGlTVTEuPS+p9DGt7LBqT3tp+h+S/iDXr7xZr99quq3Ut9qmp3Ml5e3EhJkuJ5HLyOxPOWcsfbNU859qAcjpj2znFFeyfPBRRRQAUUUUAFFFFABSSKrxsrKrK3BVhuDjqR249R/jS0UAf0Gf8G63/BV1v2qfhUvwf8AHep+d8RvA1kP7LvLmTM3iLS0wquSfvzwZRH/AImQo/Uvj9Pkb5Rnr35r+Nz4LfGPxJ+z18WfD/jjwhqcmkeJvDN4l7YXaDIjdf4XH8UbhnV06OrMp4OR/VF/wTb/AG+PDf8AwUU/Zg0fx9ophs9RH+h6/pPmb5NG1BFBlgOeqHKvG/8AFGynrmvFxuH5Jc8dmfQ5di/aR9nLdfkfQYORRSJ931pa4T0wooooAKKKKACiiigAooooAKKKKACiiigAooooAKKKKACiiigAooooAKKKKACiiigAooooAKKKKACiiigAooooAKKKKACiiigAooooAKKKKACiijNABnFZviLxJp/hDRLrU9UvbPTdOsYzNcXV1MsMECDks7sQqgAZySAK+eP+Ck3/AAVG+HP/AATU+Gq6p4qnk1bxNq0b/wBheGrKVVvdWdeC2SCIYVJG+ZhgdAHbCH+dT9vj/gqJ8XP+CiniiWbxxrz2fhmKUvY+F9MZ4dIsgD8pZM7p5B3lm3NknAjGBXVh8LOrrsjhxWOhR93dn7XftU/8HL/7PX7P15dab4TuNZ+LGsW+Rjw/GsenAg4IN5MQjD3iEgr4j+KH/B2X8W9bu518H/DP4f8Ah21Ynyzqd1d6pcAdslGt0z+dflKSTy315OcfoKK9KGBpR3Vzx6mY15bO3ofogv8Awc+/tRC6Miy/DVVPJiHhtwp9s/aM/rXo/wAL/wDg7K+L2hXUK+Lvhp8PfEVmn+s/s2e60qd/XBZp0/Nce9flRmjNaPC0nvFGccZXTvzM/oy/ZW/4OaP2ffjxe22m+Lm1r4T6tcHbnXo1m0wseg+2Qkqo95VjHuK/QTw74h03xx4ftNT0u+0/VtLv4hLbXdpOtxb3KMPvI6kqykdwSPrX8ZI4PfPoPyPX2+or6C/YO/4Kb/Fv/gnb4sW58A6+0nh2eUPqHhjUS02j6gM85iHMMhAx5sJRhwTvGVrkrZerXp/cd1DNZJ2q/efsL/wVe/4N1/CP7S1jqfjr4L2+meB/iIoa5n0lf3Gi+IH+82VAxa3Df89EAjc8uuSZB+CHxA+HuufCbxvqnhnxNpGoaD4g0O4ayv8ATr6IxXFpKvVHUk84wQQSCCCCQQT/AFJf8E1P+Cqfw7/4KYfDmTUPDUjaL4s0eJG13wxeyqb3Sixx5isOJrdjwsqDBPDBWO0eRf8ABbf/AII7aX/wUH+F83i7wfZ2Nh8YvDNowsJ8LGniK3TJ+wXDevJMUh/1b8E7GbEYfFSpy9nVNMVg4VY+1of8P/wT+bKirGq6Td6Bqtxp9/a3Flf2Uz21xb3EZjmhlRiro6nkMrAgg8gg1XByK9Y8MKM0UFsDqPXnGO45zxgdT6jigDc+Gfw3134x/ETRPCXhnTbjV/EPiO+i03T7KE4e5nkYKq5/hXqSx4UBmPAr+qD/AIJf/wDBPnQ/+Ccn7LOk+CdP+z33iC8xqPiTV4o9rapqDqodxnkRIAI41/hRB3Jz8P8A/Btd/wAErm+EPgOP9oDxxpskfinxZZmLwjaXKbX0rTJB810QfuS3A+7gZWHufNIr9bohiNev414+OxHNLkjsj6DLcLyR9rLd7egIML/niob/AE6HUoJIZ4Y7iGZSkkToGWRSMEEHgj2OasUV556h8L/tif8ABvf+zv8AtX/bNRs/Dcnw38T3GX/tPwpstI5XPeW1ZTA/PJIRHbn5xX5W/tgf8G0vx8/Z4+1al4JXTfi74fhLP/xKF+yasqf7VlK2HJ54hkc+imv6OqZKm4cru9sda6qeLqQ66HHWwNGpraz8j+MXxT4V1TwJ4jutG1zS9S0XWLElbiw1C2e1urcjqHjcBlx7gVQzX9e37S37FPwr/bF8M/2X8TPAvh/xdAoKwy3lqFu7Xv8AubhNssRzzlGU1+Xn7YX/AAagafqLXWrfA3x5NpczZddA8V7p7cnriO8iHmLjoPNjkPq3evQpZhCWktPyPKrZXUjrDX8z8TCMNjv6UV7R+1b/AME8fjR+xJfyR/En4f61oOn+YUj1ZE+16TOeuVuoy0OTnO1treoB4rxcHcFP94ZHuPWu2Mk1dHnSi4u0lqFFHb8M0UyQooooAKKKOlABU1hY3Oq38FrZ28t3eXUiQW9vECXuZHbaiKByWZiAAOTkCoTwK/Uj/g26/wCCX118ePjVafHTxhpxj8D+Brot4eiuF2rruqoQBMv96G1OWz0abYP+WbCs6tVU4uTNqNGVWahE/WL9mLwRov8AwSl/4JaaFaeJp47ez+F/hR9U16RWUebd7WubpVP8TPPI6L3PyjvX8wfx8+NWtftI/G7xZ4+8RSCTXPGGqz6rdgkkRNI5Kxr6JGu1APRBX7Rf8HVH7af/AAh3wi8J/AvRbwjUPGEqa74gCMQyadA5FvE3tNcKWx6Wx7Gvwv3bufXnk5P4n1rlwNN8rqvdnbmVRcypR2iGc0UUV3HmBRRRQAUUUZ/z/n6H8qADrRnIr3/9jn/gl58cP29LC81D4a+CZtS0TTpTb3Gr313Hp+niVcExJLIR5ki5G5UDbQRnFZH7WP8AwT1+M/7EF6q/EzwHrWgWMp2xasm270uY9cLdxM8QPP3GKt7VHtI35b6mnsZ8vNZ2PF85oozuOf73zDryD060pUjsaszEr6k/4JJf8FJNW/4JsftQ2fiBpLy68CeIjFp/i3TIvm+0WoY7biNf+e8Bcuvd1aSPjfmvlug8YP1+p6f/AK/c1MoqS5ZFU6jhJSjuf2aeA/HGk/EnwbpfiDQdRtdW0XW7SO+sL22kDw3UEih0kU9wVINbFfhT/wAG1/8AwVa/4Vt4otf2d/Huoyf2HrlwW8FXs8uVsLxzufTiWP8Aq5iSYs/dk3J/y0XH7qJINgzheM49K+fr0XTnys+qw2IjWhzL5jqKM0VidAUUUUAFFFFABRRRQAUUUUAFFFFABRRRQAUUUUAFFFFABRRRQAUUUUAFFFFABRRRQAUUUUAFFFFABRRRQAUUUUAFFFFABRRRQAUUUUABbFfPv/BSf9v3wz/wTo/Zm1Xx5r3l32osfsWg6P5myTWb91JjiB5KoAC8j4OxFY8nap9+n5Ur/e4x/er+Yb/gun/wUAuP26f22tYi02/a58B/DuSbQPD8cchMNwyNtur0DoxmlQhT2iiix1NdOFo+1nZ7dTjxuI9jTut3sfNX7SX7SHjD9rb4z654+8eavNrHiPXpjJLIxKx26DIjgiTJWOGNSVVBkDk5LHNcKDkfp/n/ACfqetGc/wCetKOWA79hXvpJKyPl3Jt8zEJAPPHHJPpX0t+yF/wSH/aB/bc0mHVvBPgO7i8N3AzFruuTjTNPlXJG6JpBvmXg8wo4yCM5r7f/AODff/gijpPx20Cy+Onxd0mPVPDLT7vCfh27Tdb6oY2IN9dIRiSEONscbAq5RnYFNuf3PsrOOwtI4YY0ihjUKkaKFVFAwAB2AGBj2rz8RjuR8sD1sLlvPHnqaI/n7H/BqD+0A+keefHHwlF0VybY3t/yf7vmfZsfjg/hXyz+13/wR6/aE/Yn0i41jxn4CurjwzbKTNrmhzDVNPt1/vStH+8hXnGZURffvX9WQHFV7uyS7DrJGskci7WUjIK46Ed85IweME/jyxzCot7M655XSa926Z/F2rBunYdsf04or9gP+Dgb/gibpHwg8N6l8d/hFpMOm6FbSiXxb4btIgtvYqx51C1QcRx7iPNiUbVyJFAAda/H8j5j1znJyOc+9erRrRqR5oniYihKlPlkdp+zz+0J4w/ZW+MWh+PfAusT6L4m8PzmW2uE+ZJEIw8MqZxJDIBtdD94HtgEf1Gf8Ezf+Cg/hr/gpB+zJpvjjRljsNZt3Fj4h0YS7pNIvlUF0/vGNwRJGxHzIw/iVgP5P6+wv+CIn7flx+wb+25otxqF80PgPx1JF4f8TRO22OKN2IgvM/wmCVgS3Xy5Jh6YwxmHVSPMt0dOBxTpT5ZfCz6w/wCDnf8A4JvQ/DfxzZ/tBeEbAQ6T4ruU0zxfBboFWHUCCIL0gf8APdV8tzwPMSMnmQ1+RoOR/hX9gX7Vv7O+i/ta/s3eMvhx4gjR9N8X6VNp8j7c/Z5HU+VMueQ0coSRfRkFfyK/EDwJqvwt8f654X1y3a11zw3qM+lahCRgx3EEjRSD6bkbHqKnA1uaHK90XmWHUKnPHZ/mY5OBX3L/AMELP+CXkv8AwUF/aS/trxNYO/wr+H88d1rbONqavc8NFpynuGADy45Efy8GRc/K37MX7N/ir9rr47eG/hz4Ls/tniDxRci3hLA+TaxgbpLmUgcRRIGkY+i4HLAV/Vn+xL+yJ4X/AGGf2cvDvw58Jwu2n6JDme8khCTapdPlp7qXH/LSRySR0UbVHC08ZiPZx5Y7snL8L7WfNLZHq9hZRWFnDDDHHDDCgSONFCqigYAAHAAHYdKmpFG1aWvEPpAooooAKKKKACjrRRQBT1fRbXXbC4s7y3hvLS6QxzQTRiSKVSMFWVshgeeDx7V8J/tg/wDBun+zz+1E15qGi6Hc/C3xJcEv9u8LhYbWVz0Mtk4MDeuYxGx/vCvviirp1JQd4szqUoTVpq5/Np+2F/wbe/tCfs1fadR8L2Nl8WvDsWWE/h8GPU0UH+OykYOW9oGlwO1fBGu6HfeF9dutM1OxvNN1KzYi4s7u3e3uLcg8h43AdSD6gV/Z9KmQeOvpXkP7Un7BPwh/bS0P7D8S/AWgeJ2RdkN5NB5eoWvp5V1GVmj/AAcD2Nd9PMJLSaPMrZTF/wAN28j+RXPFB4Nful8ev+DS3wT4hv7i8+G/xT8T+F1kyyWGuWMesQqTztWRGhkAHqxc/WvBL3/g0t+Mkd4Vtfih8MZrfd9+W0voXx67RG3P/AvxrsjjKLV7nnSy+utOU/Kgcj8cU15FiVmYgKvByffGPrntX7LfCj/g0a1Oa8WTxz8arWG3H3rfw9oDNI4zyBLcS7VPv5Zr76/Y4/4Iefs9/sV6lZ6voXhFvEnimzYPFrniaX+0ruBv70SsohhP+1HGrf7VRUx1KK01NKeW1pP3tD8lf+CUP/Bvf42/a61fTfGnxZsdV8C/C+Nlnjs5o2ttY8SJ12xoQHggYcGVxuZf9WCGEi/v74e8N+F/2fPhXb6fptppnhfwj4T08rFBCggtNNtIUyeB91UUE5+pNdREgiTH86/OT/g5c/bS/wCGdf2If+EB0q8aHxR8XZ20kCNsSQ6ZGA96/HIDgxw+/nnH3a86VSeIqKLPWjRp4Wk5o/Df/goV+1reftyfth+OPiXctILLXr4xaRA5ObXTYh5VrH7HykV29XkY968ZPX8aAcqMdMcUV7kYpKyPm5Scm5PdhRRRVEhRRRQAV0Hwk+FetfHT4qeHfBfhy3a817xVqMGlWEPZpppFRC3oikliewRu2a5+v1a/4NZf2LB8Tf2hPEfxq1iz87Sfh7CdK0NnT5ZNUuU/eyLkYJhtmx7G6HcCs61RQg5M2w9J1Kigftd+y1+zpon7J/7PfhD4d+G4Y49J8I6ZFp8LCMIbl1X95MwHRpZC0jHJyWNdprvh+z8U6VcWOo2dvfWN4hintrmISwzoeqsjAqwPowNXov8AVj/CnV83zNu7PrIxSVkfnL+2p/wbUfAz9pIXWqeBYrr4P+KJt0gfRohNo87nn97Ysdq/WBou556V+RP7av8AwQ8/aC/YjN3qGpeFG8Y+ErXLHX/C6PfQQp/fmhCieAepKFAQfnxiv6kKjkTcW6/UV1UcZUho9UcdbL6VTVaPyP4tkIZflxxnODnGODS1/Ub+2p/wRD+AP7bv2u+1nwjH4V8VXGWHiHw2EsL1nPRpVCmK47f61GPHUda/Ir9tX/g2o+OP7OL3mq+ATb/F7w1DufGmxC11qFOwa0ZiJT1/1LsTjOwdB6dLGU56PRnj1svrU9VqvI/Ou1uZbK5jmgkkhnhdZI5EkMbROpBVwy8qVIBBHIYA9hX9Kn/BCT/gqbH/AMFBP2d20HxPdp/wtTwDDFb61uwG1i3Pyxagq+r42ygcJKCeA61/Nlrug6h4X1260vVLG+03VLFzFc2d5A8FxbOOqvG4DKR6ECv08/4NU/gn4o8R/tn+KPiBZwXUHg/w/wCGrjSL69AZYbu7uJYGitgejFFjaQgZ2/ITjcuVjacZUm30Hl9SUayiuu5/QHGAEGOg4+lOpsPEa/Lt9vSnV4Z9KFFFFABRRRQAUUUUAFFFFABRRRQAUUUUAFFFFABRRRQAUUUUAFFFFABRRRQAUUUUAFFFFABRRRQAUUUUAFFFFABRRRQAUUUUAFFFFAHzX/wV2/aan/ZI/wCCeHxQ8ZWMy2+sR6SdL0l92GF7dsLaFh7o0vmf8ANfyjKnlqFBZgvygsdzED1Pc+p7mv39/wCDsX4hvoX7EHgXw5G3y+I/GkMk4BxvjtrS4kwfbe0Z+oFfgH09M98dM969rL42p83c+dzSo3V5ey/MK674BfCS4+P3x18FeBbRilz4y16y0SNsZ2faJ0iLf8BVmOPauRr2/wD4JneKLTwV/wAFFfgZq1+6xWVp440sTSMflQPcLGCc+jSKc+1dkm1FtHn00nJJn9YPw28A6X8K/AOi+GtDs49P0Xw/Yw6dY20Y+WCCJBHGo9gqgVuVHbsvlhc9MjrUgORXzO59l5BRRRQBj+N/B2m+P/CmraHrFnHf6TrVpJYXtvIMrPBIhR0YdwVY/ma/kB/aU+DU37On7RPjrwBMS8ngvX73RhJ/z1SCZ0Rv+BIFb8a/sSl5Vucds+ma/k1/4Kq+J7Txl/wUp+OuoWMiSWs3jTUIkdDlWMTeSxH1aNq9LLZPmaPHzaK5Yy63PAT1oZd42n8weR2yP89/ag0dvxr1jwz+qb/gjT+03N+1l/wTe+GHie+uhc63bab/AGHqz53M93ZMbZ3Y+riNZOf+envX4h/8HGvwFj+CX/BUXxVfW1v9n074gadZeJ4VC8GWRTbzke5lt2YjuXFfoH/waZfEKTWf2QfiR4ZkkzH4d8YC6hBGdi3VnCSPYb4nP4mvqv8Aah/4Jg6D+1h/wUD+FPxc8UJa32ifDHSLmP8AsuRd39pX/wBpils2k7GKFvPk2nO5zGMYDA+NCaoV5X2PoJ05YjDRtvp/kzxj/g32/wCCV7fsUfAj/hYnjLTTD8UfiLapJLFMP3ugaa2HitOmRK52yS5wQ2xDjy8H9GUGF6Y78URLhemPanVx1KjnLmkehSpxpxUIhRRRUGgUUUUAFFFFABRRRQAUUUUAFFFFABRiiigAooooAa/Q461/L7/wXr/aj1D9pv8A4KXePYbhpU0f4dTnwfplszH9ylo7ee+Om6S4MrZ/uqgr+oGQZPfiv59/+Dkv/gmVf/AD483Pxy8NW81x4J+I19/xO44wSdE1ZlxuP/TG527lJ4WUSDrIoruy+UVU1+R5uaRk6N47X1Py+Ocndy2eT6nvRQPmAP8Ae6YHH4UZzXtHzoUUUUAFFFFAE2n6dcaxqFvZ2dvLeXd5KsEFvEpMlzIzKqxqBySzMF4/vV/WJ/wTD/Y3t/2E/wBifwP8PfLi/tixshea7OgB+06nP+9uW3D7yrIxRT/djX0r8M/+Dcv9ij/hqb9vS18VatZm48KfCOJNfuty5jn1BiyWER7ZDiWfn/n3Getf0mpwteTmFW79mj3Mpo2TqvrohR0ooorzT2AooooAKjlj3bvl+vHWpKKAPKvj5+xL8I/2pJ7a4+Inw38G+MrqzG2G41bSYrieJeu1ZCN4U+mSPau0+HXwt8O/CLwla6B4V0HR/Deh2QIg0/TLOO1toc8naiKqgk8k4ySc10NFVzO1rkqMU7paiKcrS0UVJQUUUUAFFFFABRRRQAUUUUAFFFFABRRRQAUUUUAFFFFABRRRQAUUUUAFFFFABRRRQAUUUUAFFFFABRRRQAUUUUAFFFFABRRRQAUUUUAfj7/wd0nHwV+C2P8AoY9QOPX/AEIV+GtfuV/wd1f8kV+C3/Yx6h/6RCvw1r3sD/BR81mX8d/L8gqS2u5rG6huLeaS3uLd1lhlQ4aGRTuRxj0YA8c8VHRXUcB/Vx/wSw/bw0j/AIKFfsf+HfGlvPCviK1hTTPFFgr5ew1OJF80EdkfKyoehSQdwa+klb5f8a/kl/YJ/wCCgXxB/wCCdfxoXxh4Fu45YbtFt9Y0W7J+wa3bqSRHKAchgSxSVcMhJ+8pZT+937G//Bwn+zv+1LpVnBrPiaH4YeKpAFuNJ8UTLawhz18m8OIJFz0JZGOfuA5FeHiMJKDvHVH0eEx0JxUZuz/M+7gc0bsVwKftSfDQ6T9uHxC8C/YQNxuf7ftPJC/3t3mYx75r5V/bF/4OCv2df2WNHu49L8WW/wATvFEY/caP4VmW7jZscebdjNvEp7/MzgchCa5405ydkjtlWhFXk0ewf8FOv26NF/4J+fsleJPHd/cW7615Laf4dsHb95qWpSIfJjUddqkGRz2jiY+lfyg6lqd1repXN9fTvdX19M9zczv96eV2Lu592Yk/jXuH/BQP/gof8Qv+Cj3xlPivxxdR29lYrJBouhWbMtjokDEErGGPzSNgF5iA7kAcKFQeE/15zjGfw7V7WFw/so67s+cx2K9tPTZbBR2oo7V1HEft5/waIvn4cfHZeeNZ0kj6m3nH9K/ZAdK/G/8A4ND/APknvx2/7DOkf+k1xX7IDpXg4z+M/wCuh9Rl/wDAj/XUKKKK5TsCiiigAooooAKKKKACiiigAooooAKKKKACiiigAooooAK5D46fBXw7+0T8JvEPgjxZpsOreG/FFk9jqFrIOJI2GMg/wupwyuPmRlVhyBjr6CMijbVA9VZn8lP/AAUd/YM8R/8ABOf9qHWvh/rnnX+mjN74f1Zodia1pzkiOTPQSLgxyKvCyLkfKy58JYYY/Uiv6nP+CvP/AATY0n/gpL+zHd6Aq29n468Oh9Q8J6nIMfZ7ogbreQ4/1E6qEf8AukI+CUFfy6+NPB2rfDnxfqvh/wAQafdaRrmhXcthqNldJsms54m2PGw9Qwx7jB5zmvewuI9rHXdbny+Nwroz02exm0UEYOPTg+1FdRxhQeBRRQB+zn/Bpt+0X4V0JPib8LtQvLPT/Fut38Gv6Ws0gSTVbdLcRTRxZ+88RRXKDJ2ylsYVjX7XRuGXqPzr+LvS9TudD1S3vrK4uLO+tZVlguLeUxTQspBUqy4ZTk/eDZHav0A/Yq/4OQ/j1+zD9j0vxlcQfGDwxDhWi1yUw6tEg6+XfKpZj1P79JSem4da83FYKU5OcPuPYweYRhBU5r5n9Iu4eopc18XfsUf8F2f2f/203s9Ks/Ex8E+Lrnaq6F4oZbGaZ/7kMxYwze219x/uA5A+z4ZA8YbI5ry5RlF2kj2KdSM1eLuOoozQDkVJoFFFFABRRRQAUUUUAFFFFABRRRQAUUUUAFFFFABRRRQAUUUUAFFFFABRRRQAUUUUAFFFFABRRRQAUUUUAFFFFABRRRQAUUUUAFFFFABRRRQAUUUUAFFFFAH4+/8AB3V/yRX4Lf8AYx6h/wCkQr8Na/cr/g7q/wCSK/Bb/sY9Q/8ASIV+Gte9gf4KPmsy/jv5fkFFFFdRwBQ3zDbgEHqCOD9c5oooAh/s633f8e9v7fuV4/LFS9tuDt9BgUtFAB+tFFFABR2oo7UAft5/waH/APJPfjt/2GdI/wDSa4r9kB0r8b/+DQ//AJJ78dv+wzpH/pNcV+yA6V4OM/jP+uh9Rl/8CP8AXUKKKK5TsCiiigAooooAKKKKACiiigAooooAKKKKACiiigAooooAKKKKAI5AzE4H9K/ID/g5O/4JPt488PXP7RHw/wBLZ9c0K3UeNLG2T59Qs0Xat+oxkyQLhZeOYRu/5ZnP7B1X1Kxi1O0mt7iGO4guIzFJHIgdHVhggg8EEE5B4I4rSjVdOXNExxFGNWDhI/i6XCqPu46DAwD9KXpX3R/wXR/4JXzf8E9f2hv7e8M2Mi/Cfx5cST6MY8lNEueXl00nsoyXiJOTHleTG2PhfH098DivoadRTjzRPlatOVOThLcKKKKszCiiigBssazRsrqrK3BDDcp/D/I9q+rv2Lf+C0X7QH7D7Wtl4f8AGE3iTwtbnH/COeJS2oWIX+7E5bzbccn/AFbhQT909K+U6KmUIyVpIqFSUHeDsf0PfsW/8HNXwT+Pv2XSfiNBc/CHxFLtVpdQl+1aLM3A+S7VR5YJ7TIgHTcRyf0e8MeKdO8Y6DaappOoWOqabfIJLe8s51nt7hT/ABI6kqwPqCRX8YgP9c46kY9+3tzXrv7KH7eXxc/Yh1oXnwx8c6x4bhd/Mn00MLjS7s/9NbSTMLE/3wgf0YHmvPqZfF602erRzSS0qq5/XcGzQDmvgL/gil/wWZb/AIKY6DrnhnxZo+n6B8SPCdvHe3UenmT7Fq9kzeX9phV8tGyyFUdGYgF0YMQxVfvuL/Vr9O9eXOEoS5Zbns0qkakeeOw6iiipNAooooAKKKKACiiigAooooAKKKKACiiigAooooAKKKKACiiigAooooAKKKKACiiigAooooAKKKKACiiigAooooAKKKKACiiigAooooAKKKKAPx9/4O6v+SK/Bb/sY9Q/9IhX4a1+5X/B3V/yRX4Lf9jHqH/pEK/DWvewP8FHzWZfx38vyCiiiuo4AooooAKKKKACiiigAo7UUdqAP28/4ND/APknvx2/7DOkf+k1xX7IDpX43/8ABof/AMk9+O3/AGGdI/8ASa4r9kB0rwcZ/Gf9dD6jL/4Ef66hRRRXKdgUUUUAFFFFABRRRQAUUUUAFFFFABRRRQAUUUUAFFFFABRRRQAUUUUAeXfti/sn+Ff22f2e/Enw58ZWvnaRr9vsjnRQZ9OuF+aG6hP8Msb4YdjgqcqzA/yn/te/sp+LP2J/2ifEnw38ZW6x6voM+I7iNSINStmJ8m6hz/yzlXBA52nch+ZSB/YDXxD/AMFp/wDgkjaf8FL/AIQ2N54fm03R/ih4QDNouoXSlYb6BjmSxnZQSEY4ZGw2xxnG13B7MHiPZy5ZbM8/H4T2seaPxL8T+ZEc0Zr7Os/+De/9ru+1yaw/4VQsZgO03MviPTVtmPqrmYlh7hQfbNekeCf+DXn9p7xQyf2k3w38Nr3+2+IJLhl/CCB8/ga9Z4ikvtI8NYWs9ov7j86ScUE4Ffrd4O/4NIviNeOv/CQfGHwXpqn739naNeXrL9DJJED+Ir1nwh/waLeD7N0OvfGzxfqA/jGm6HaWX5GRpf61m8ZRXU1jl+If2T8OMc470AbjxX9D3hD/AINW/wBm3QVU6lqXxO15hy63WuxW6P8AhbwRkfg1eseEf+Dez9knwlGo/wCFT2+rOmCH1TWtQvM/VWn2/pWbzCktrmscrrPeyP5h3dYuWZUX1Y4otnW+mEduy3Eh6JF+8Y/gOa/rU8D/APBLz9nX4clf7H+CHwvt3T7sj+HLaeRfo0isa9X8KfCbwz4Bj26F4d0PRkX7q2Gnw24H4IoFZyzKPSJtHKJfakfkB/wa9f8ABPrx58MPHvir41+L9C1Twzo+qaL/AGDoNrfwNbXGqCSeOWa58pgGESiGNUZx8xZyuQAa/aCNdqAdMcURJsXv+NOrzq1Z1J87PWw9FUociCiiisjYKKKKACiiigAooooAKKKKACiiigAooooAKKKKACiiigAooooAKKKKACiiigAooooAKKKKACiiigAooooAKKKKACiiigAooooAKKKKACiiigD8ff8Ag7q/5Ir8Fv8AsY9Q/wDSIV+GtfuV/wAHdX/JFfgt/wBjHqH/AKRCvw1r3sD/AAUfNZl/Hfy/IKKKK6jgCiiigAooooAKKKKACjtRR2oA/bz/AIND/wDknvx2/wCwzpH/AKTXFfsgOlfjf/waH/8AJPfjt/2GdI/9Jriv2QHSvBxn8Z/10PqMv/gR/rqFFFFcp2BRRRQAUUUUAFFFFABRRRQAUUUUAFFFFABRRRQAUUUUAFFFFABRRRQAUEZFFFACBcUoUDtRRQAUUUUAFFFFABRRRQAUUUUAFFFFABRRRQAUUUUAFFFFABRRRQAUUUUAFFFFABRRRQAUUUUAFFFFABRRRQAUUUUAFFFFABRRRQAUUUUAFFFFABRRRQAUUUUAFFFFABRRRQAUUUUAfj7/AMHdX/JFfgt/2Meof+kQr8Na/cr/AIO6v+SK/Bb/ALGPUP8A0iFfhrXvYH+Cj5rMv47+X5BRRRXUcAUUUUAFFFFABRRRQAUdqKO1AH7ef8Gh/wDyT347f9hnSP8A0muK/ZAdK/G//g0P/wCSe/Hb/sM6R/6TXFfsgOleDjP4z/rofUZf/Aj/AF1CiiiuU7AooooAKKKKACiiigAooooAKKKKACiiigAooooAKKKKACiiigAooooAKKKKACiiigAooooAKKKKACiiigAooooAKKKKACiiigAooooAKKKKACiiigAooooAKKKKACiiigAooooAKKKKACiiigAooooAKKKKACiiigAooooAKKKKACiiigAooooAKKKKACiiigAooooA/H3/AIO6v+SK/Bb/ALGPUP8A0iFfhrX7lf8AB3V/yRX4Lf8AYx6h/wCkQr8Na97A/wAFHzWZfx38vyCiiiuo4AooooAKKKKACiiigAo7UUdqAP28/wCDQ/8A5J78dv8AsM6R/wCk1xX7IDpX43/8Gh//ACT347f9hnSP/Sa4r9kB0rwcZ/Gf9dD6jL/4Ef66hRRRXKdgUUUUAFFFFABRRRQAUUUUAFFFFABRRRQAUUUUAFFFFABRRRQAUUUUAFFFFABRRRQAUUUUAFFFFABRRRQAUUUUAFFFFABRRRQAUUUUAFFFFABRRRQAUUUUAFFFFABRRRQAUUUUAFFFFABRRRQAUUUUAFFFFABRRRQAUUUUAFFFFABRRRQAUUUUAFFFFABRRRQAUUUUAfj7/wAHdX/JFfgt/wBjHqH/AKRCvw1r9yv+Dur/AJIr8Fv+xj1D/wBIhX4a172B/go+azL+O/l+QUUUV1HAFFFFABRRRQAUUUUAFHaijtQB+3n/AAaH/wDJPfjt/wBhnSP/AEmuK/ZAdK/G/wD4ND/+Se/Hb/sM6R/6TXFfsgOleDjP4z/rofUZf/Aj/XUKKKK5TsCiiigAooooAKKKKACiiigAooooAKKKKACiiigAooooAKKKKACiiigAooooAKKKKACiiigAooooAKKKKACiiigAooooAKKKKACiiigAooooAKKKKACiiigAooooAKKKKACiiigAooooAKKKKACiiigAooooAKKKKACiiigAooooAKKKKACiiigAooooAKKKKACiiigD8ff+Dur/AJIr8Fv+xj1D/wBIhX4a1+5X/B3V/wAkV+C3/Yx6h/6RCvw1r3sD/BR81mX8d/L8gooorqOAKKKKACiiigAooooAKO1FHagD9vP+DQ//AJJ78dv+wzpH/pNcV+yA6V+N/wDwaH/8k9+O3/YZ0j/0muK/ZAdK8HGfxn/XQ+oy/wDgR/rqFFFFcp2BRRRQAUUUUAFFFFABRRRQAUUUUAFFFFABRRRQAUUUUAFFFFABRRRQAUUUUAFFFFABRRRQAUUUUAFFFFABRRRQAUUUUAFFFFABRRRQAUUUUAFFFFABRRRQAUUUUAFFFFABRRRQAUUUUAFFFFABRRRQAUUUUAFFFFABRRRQAUUUUAFFFFABRRRQAUUUUAFFFFABRRRQB+Pv/B3V/wAkV+C3/Yx6h/6RCvw1r9yv+Dur/kivwW/7GPUP/SIV+Gte9gf4KPmsy/jv5fkFFFFdRwBRRRQAUUUUAFFFFABR2oo7UAft5/waH/8AJPfjt/2GdI/9Jriv2QHSvxv/AODQ/wD5J78dv+wzpH/pNcV+yA6V4OM/jP8ArofUZf8AwI/11CiiiuU7AooooAKKKKACiiigAooooAKKKKACiiigAooooAKKKKACiiigAooooAKKKKACiiigAooooAKKKKACiiigAooooAKKKKACiiigAooooAKKKKACiiigAooooAKKKKACiiigAooooAKKKKACiiigAooooAKKKKACiiigAooooAKKKKACiiigAoo3YprSKgyTQA7OaM1yvxG+OXgv4QQxyeLvFvhjwvDICyvrGqwWKsB6eay5rz9v+Cj/AOz4rYPxw+Ev/hW2P/x2qUZPZEupFbs9q3Ubq8U/4eQ/s9/9Fx+Ev/hW2P8A8do/4eQ/s9/9Fx+Ev/hW2P8A8do9nLsT7WHc9r3Ubq8U/wCHkP7Pf/RcfhL/AOFbY/8Ax2j/AIeQ/s9/9Fx+Ev8A4Vtj/wDHaPZy7B7WHc/Oj/g7qP8AxZX4K/8AYx6h/wCkQr8Na/ZL/g6M/ab+HPx++EHwjt/Avj7wb4yuNN1++mu4tE1m3v3tUa0CqzrE7FFLcAnAJ4r8ba9zBpqikz53MJJ1m15fkFFFFdRwhRRRQAUUUUAFFFFABR2oo7UAft5/waHf8k9+O3/YZ0j/ANJriv2PBxX4df8ABrb+0r8Ov2f/AAH8Z4vHfjzwf4Nk1TVtLksk1vWYLBrtUgnDtGJXXeFJAJXIBIz1r9W/+HkH7Pn/AEXH4S/+FZY//Ha8PGRk6zaX9WPpcDUiqEU2e17qN1eKf8PIf2e/+i4/CX/wrbH/AOO0f8PIf2e/+i4/CX/wrbH/AOO1y+zl2Ov2sO57XuozXin/AA8h/Z7/AOi4/CX/AMK2x/8AjtKv/BR/9nt32/8AC8fhLknA/wCKtsR/7Vo9nLsHtYd0e1A5ork/hv8AHfwT8YY2bwj4w8L+KUjGWbSNVgvgo9/LZsfjXWBgal6aMtNPYKKM0UDCiiigAooooAKKKKACiiigAooooAKKKKACiiigAooooAKKKKACiiigAooooAKKKKACiiigAooooAKKKKACiiigAooooAKKKKACiiigAooooAKKKKACiiigAooooAKKKKACiiigAooooAKKKKACiiigAooooAKKKCcUAZ3ijX7HwloF9qupX1rpunabA91dXdzKIobaJFLPI7nhVVQSWbgAZPSvwg/4Klf8HJfi74reJtS8G/s+6hP4R8HWsj28nixY9ura1j5d9tvU/ZYDztYL5zcNmIHB9h/4Om/2/L7wjoHh/wCAHhq+a3k8S2y674qkhfa0lmrlbWzYjnZJIjyuOpWJByrMD+IX5/j1r1MHhYte0n8jxMwxklL2UH6lzxV4h1Dx1rtxqmvahfa3qd05kmvNQuHuriVj1LO5Zmb1JJ/KqIhXH3V/z+FOor1Dxru9xvkr/dX/AD+FHkr/AHV/z+FOooC43yV/ur/n8KPJX+6v+fwp1FAXGiML0AX8adRRQAUUUUAFFFFABRRRQAUUUUAFFFFADWjWQYZQc0GFf7q/5/CnUUAN8lf7q/5/CjyV/ur/AJ/CnUUBcb5K/wB1f8/hR5Kf3V+mAc/XIp1FAXLXhrXL7wVrUOpaLfXmj6nbOHhvNPne0uIWHRlkjKsCPUEV+pH/AAS9/wCDkzxn8G/Emn+EPj5fXXjTwPcMsCeJWhD6xoYJwHmCgfaoQT8xI85VyQZNu2vytoxubn7vI6Z7e/HbH41nUoxqK0kbUa86cuaDP7OvCfivTfGvhnT9Y0i+s9S0nVbdLyzu7WUSw3ULqGSRHUkMrKQQQcEGtIHNfjD/AMGsn7ft9rVv4g/Z78SX0lxHpNq+u+EWmk3NBCHH2uyU55VXkWZF6gSTdgK/ZxDlBjkdjXgVqTpzcWfUYesqtNTQ6iiisjYKKKKACiiigAooooAKKKKACiiigAooooAKKKKACiiigAooooAKKKKACiiigAooooAKKKKACiiigAooooAKKKKACiiigAooooAKKKKACiiigAooooAKKKKACiiigAooooAKKKKACiiigAooooAKKKKACmyHCn+dOpk3+qf6UAfy0f8ABc34gXXxJ/4KvfGW6umLf2ZqsGjQoc/JFbWkKKo9PmLn6tXybmvpH/gsF/ylK+O//Y3z/wDouKvm4dK+ko6QVuyPkK7bqyb7sKKKK0MgooooAKKKKACiiigAooooAKKKKACiiigAooooAKKKKACiiigAooooAKKKKACiiigD6j/4IqeP7r4cf8FVPgjeWkjJ/aGvHR5sHG+K7t5rdlI7j5wfqB6V/VPEcxrX8m3/AASg/wCUm3wD/wCx30//ANGV/WTH9wV4+ZL30/I97KX+7kvMdRRRXnnrBRRRQAUUUUAFFFFABRRRQAUUUUAFFFFABRRRQAUUUUAFFFFABRRRQAUUUUAFFFFABRRRQAUUUUAFFFFABRRRQAUUUUAFFFFABRRRQAUUUUAFFFFABRRRQAUUUUAFFFFABRRRQAUUUUAFFFFABRRRQAUyb/VP9KfTJv8AVP8ASgD+Uf8A4LBf8pSvjv8A9jfP/wCi4q+bh0r6R/4LBf8AKUr47/8AY3z/APouKvm4dK+kpfAvQ+PrfxJerCiiitDMKKKKACiiigAooooAKKKKACiiigAooooAKKKKACiiigAooooAKKKKACiiigAooooA+gf+CUH/ACk2+Af/AGO+n/8Aoyv6yY/uCv5Nv+CUH/KTb4B/9jvp/wD6Mr+smP7gryMy+OPoe9lHwS9f0HUUUV5x6wUUUUAFFFFABRRRQAUUUUAFFFFABRRRQAUUUUAFFFFABRRRQAUUUUAFFFFABRRRQAUUUUAFFFFABRRRQAUUUUAFFFFABRRRQAUUUUAFFFFABRRRQAUUUUAFFFFABRRRQAUUUUAFFFFABRRmigAooooAKjmOIm+lSVHIpfj9fT/JFAH8pH/BYL/lKV8d/wDsb5//AEXFXzaDxX9O3xz/AOCAv7N/7Rvxd8SeOvFPh3xJc+I/FV6+o6hLB4kvLeOSZlVSQiMFXgDgCuW/4hnP2Uf+hV8Wf+FZff8AxdexDH0lFJ3PAqZZWlNyVtz+bPdRur+kz/iGc/ZR/wChV8Wf+FZff/HKP+IZz9lH/oVfFn/hWX3/AMcqv7QpeZH9lVvI/mz3Ubq/pM/4hnP2Uf8AoVfFn/hWX3/xyj/iGc/ZR/6FXxZ/4Vl9/wDHKP7QpeYf2VW8j+bPdRur+kz/AIhnP2Uf+hV8Wf8AhWX3/wAco/4hnP2Uf+hV8Wf+FZff/HKP7QpeYf2VW8j+bPdRur+kz/iGc/ZR/wChV8Wf+FZff/HKP+IZz9lH/oVfFn/hWX3/AMco/tCl5h/ZVbyP5s91G6v6TP8AiGc/ZR/6FXxZ/wCFZff/AByj/iGc/ZR/6FXxZ/4Vl9/8co/tCl5h/ZVbyP5s91G6v6TP+IZz9lH/AKFXxZ/4Vl9/8co/4hnP2Uf+hV8Wf+FZff8Axyj+0KXmH9lVvI/mz3Ubq/pM/wCIZz9lH/oVfFn/AIVl9/8AHKP+IZz9lH/oVfFn/hWX3/xyj+0KXmH9lVvI/mz3Ubq/pM/4hnP2Uf8AoVfFn/hWX3/xyj/iGc/ZR/6FXxZ/4Vl9/wDHKP7QpeYf2VW8j+bPdRur+kz/AIhnP2Uf+hV8Wf8AhWX3/wAco/4hnP2Uf+hV8Wf+FZff/HKP7QpeYf2VW8j+bPdRur+kz/iGc/ZR/wChV8Wf+FZff/HKP+IZz9lH/oVfFn/hWX3/AMco/tCl5h/ZVbyP5s91G6v6TP8AiGc/ZR/6FXxZ/wCFZff/AByj/iGc/ZR/6FXxZ/4Vl9/8co/tCl5h/ZVbyP5s91G6v6TP+IZz9lH/AKFXxZ/4Vl9/8co/4hnP2Uf+hV8Wf+FZff8Axyj+0KXmH9lVvI/mz3Ubq/pM/wCIZz9lH/oVfFn/AIVl9/8AHKP+IZz9lH/oVfFn/hWX3/xyj+0KXmH9lVvI/DT/AIJQc/8ABTb4B/8AY7af/wCjK/rJiOY1r4l+DH/Bv1+zb8Afi/4a8beGvDfia38QeE9Ri1TTpZ/El5PHHPGcoSjMVYexr7ajGEFcGMrxqyTiengMNOjFqfVjqKKK5DvCiiigAooozmgAooooAKKKKACiiigAooooAKKKKACiiigAooooAKKKKACiiigAooooAKKKKACiiigAooooAKKKKACiiigAooooAKKKKACiiigAooooAKKKKACiiigAooooAKKKKAELgHqKRpFHcdM9abJ94/yr8Jf+C4n/AAXj8UeLfidr3wf+CfiC58OeGdBuJNO1/wAS6bNsvdZuUO2SC2mXmK3RtyGRCHkZTgqnL7UaMqsuWJz4jERox5pH7IfFX9s/4R/AzVGsfGXxO8AeFr9Ww1rqmv2trcD6xvIGH5Vx4/4Knfs2j/mvHwn/APCntP8A4uv5MZW+03UlxIWeaYl5JG5eRjydzHLH65or0P7Nj1Z5bzeXSKP6z/8Ah6d+zb/0Xf4T/wDhT2n/AMXR/wAPTv2bf+i7/Cf/AMKe0/8Ai6/kwop/2bDuyf7Xn/Kj+s//AIenfs2/9F3+E/8A4U9p/wDF0f8AD079m3/ou/wn/wDCntP/AIuv5MKKP7Nh3Yf2vP8AlR/Wf/w9O/Zt/wCi7/Cf/wAKe0/+Lo/4enfs2/8ARd/hP/4U9p/8XX8mFFH9mw7sP7Xn/Kj+s/8A4enfs2/9F3+E/wD4U9p/8XR/w9O/Zt/6Lv8ACf8A8Ke0/wDi6/kwoo/s2Hdh/a8/5Uf1n/8AD079m3/ou/wn/wDCntP/AIuj/h6d+zb/ANF3+E//AIU9p/8AF1/JhRR/ZsO7D+15/wAqP6z/APh6d+zb/wBF3+E//hT2n/xdH/D079m3/ou/wn/8Ke0/+Lr+TCij+zYd2H9rz/lR/Wf/AMPTv2bf+i7/AAn/APCntP8A4uj/AIenfs2/9F3+E/8A4U9p/wDF1/JhRR/ZsO7D+15/yo/rP/4enfs2/wDRd/hP/wCFPaf/ABdH/D079m3/AKLv8J//AAp7T/4uv5MKKP7Nh3Yf2vP+VH9Z/wDw9O/Zt/6Lv8J//CntP/i6P+Hp37Nv/Rd/hP8A+FPaf/F1/JhRR/ZsO7D+15/yo/rP/wCHp37Nv/Rd/hP/AOFPaf8AxdH/AA9O/Zt/6Lv8J/8Awp7T/wCLr+TCij+zYd2H9rz/AJUf1n/8PTv2bf8Aou/wn/8ACntP/i6P+Hp37Nv/AEXf4T/+FPaf/F1/JhRR/ZsO7D+15/yo/rP/AOHp37Nv/Rd/hP8A+FPaf/F0f8PTv2bf+i7/AAn/APCntP8A4uv5MKKP7Nh3Yf2vP+VH9Z//AA9O/Zt/6Lv8J/8Awp7T/wCLo/4enfs2/wDRd/hP/wCFPaf/ABdfyYUUf2bDuw/tef8AKj+s/wD4enfs2/8ARd/hP/4U9p/8XR/w9O/Zt/6Lv8J//CntP/i6/kwoo/s2Hdh/a8/5Uf1n/wDD079m3/ou/wAJ/wDwp7T/AOLo/wCHp37Nv/Rd/hP/AOFPaf8AxdfyYUUf2bDuw/tef8qP6z/+Hp37Nv8A0Xf4T/8AhT2n/wAXR/w9O/Zt/wCi7/Cf/wAKe0/+Lr+TCij+zYd2H9rz/lR/Wf8A8PTv2bf+i7/Cf/wp7T/4uj/h6d+zb/0Xf4T/APhT2n/xdfyYUUf2bDuw/tef8qP6z/8Ah6d+zb/0Xf4T/wDhT2n/AMXR/wAPTv2bf+i7/Cf/AMKe0/8Ai6/kwoo/s2Hdh/a8/wCVH9Z//D079m3/AKLv8J//AAp7T/4uj/h6d+zb/wBF2+E//hT2n/xdfyYUUf2bDuw/taf8qP6+/hZ+2t8H/jlqy6f4N+KHw/8AFGoSNhbTTNftbm4b6Ro5Y/lXp6vnvzX8WsR8i5jmTck0R3JKjFZIz2KkEEHvnP5da/V//giN/wAF5fFXw6+Jug/CX4069ceI/Buuzx6doviDUZd154fuHISKOeZuZLZ2KpucloiR8xThcK2XuKvB3OjD5pGcuWasfvbRTYTlPxNOrzz1gooooAKKKKACiiigAooooAKKKKACiiigAooooAKKKKACiiigAooooAKKKKACiiigAooooAKKKKACiiigAooooAKKKKACiiigAooooAKKKKACiiigAooooA8Q/wCCkPxpv/2eP2EPi5400uR4dV8PeFr+6sZVPMVx5JSJx7q7KR7iv5IiCpIZmkbPLsSzP7knkk9eea/qm/4LYf8AKKn46f8AYqXP/oSV/K0/32+pr18tXuN+Z4ObSftIryEooor0TyQooooAKKKKACiiigAooooAKKKKACiiigAooooAKKKKACiiigAooooAKKKKACiiigAooooAKKKKACiiigAooooAKKKKACiiigAooooAKGTzEK7mTeCNykgrnjgjkdevtxzRSp98UAf1o/8ABL342337Rf8AwT3+D/jLVXMuq6z4YtGvpCctNcRr5Mrk9yzxsSfU171XyT/wQp/5RMfA7/sXz/6Uz19bCvm6itNpdz7CjJunFvsgooorM0CiiigAooooAKKKKACiiigAooooAKKKKACiiigAooooAKKKKACiiigAooooAKKKKACiiigAooooAKKKKACiiigAooooAKKKKACiiigAooooAKKKKAPln/gth/yip+On/YqXP/oSV/K0/wB9vqa/ql/4LYf8oqfjp/2Klz/6ElfytP8Afb6mvYy34H6/oeBm38SPoJRRRXoHlBRRRQAUUUUAFFFFABRRRQAUUUUAFFFFABRRRQAUUUUAFFFFABRRRQAUUUUAFFFFABRRRQAUUUUAFFFFABRRRQAUUUUAFFFFABRRRQAUqffFJSp98UAf1K/8EKf+UTHwO/7F8/8ApTPX1sK+Sf8AghT/AMomPgd/2L5/9KZ6+thXzdb436s+uw/8KPovyCiiiszYKKKKACiiigAooooAKKKKACiiigAooooAKKKKACiiigAooooAKKKKACiiigAooooAKKKKACiiigAooooAKKKKACiiigAooooAKKKKACiiigAooooA+Wf+C15z/wAEqvjr/wBipcf+hJX8rT/6xvqa/sK/aj/Z20b9rP4BeLvhx4iuNStdC8Y6c+nXk1hIsdxHGxGShdXUNx1KmvgQ/wDBqP8As8sc/wDCV/F7/wAG9l/8iV6GDxMKcWpdzycwwlStNOHbufz30V/Qh/xCjfs8/wDQ1/F7/wAHFl/8iUf8Qo37PP8A0Nfxe/8ABxZf/Ildn1+l5nD/AGZX7L7z+e+iv6EP+IUb9nn/AKGv4vf+Diy/+RKP+IUb9nn/AKGv4vf+Diy/+RKPr9LzD+zK/Zfefz30V/Qh/wAQo37PP/Q1/F7/AMHFl/8AIlH/ABCjfs8/9DX8Xv8AwcWX/wAiUfX6XmH9mV+y+8/nvor+hD/iFG/Z5/6Gv4vf+Diy/wDkSj/iFG/Z5/6Gv4vf+Diy/wDkSj6/S8w/syv2X3n899Ff0If8Qo37PP8A0Nfxe/8ABxZf/IlH/EKN+zz/ANDX8Xv/AAcWX/yJR9fpeYf2ZX7L7z+e+iv6EP8AiFG/Z5/6Gv4vf+Diy/8AkSj/AIhRv2ef+hr+L3/g4sv/AJEo+v0vMP7Mr9l95/PfRX9CH/EKN+zz/wBDX8Xv/BxZf/IlH/EKN+zz/wBDX8Xv/BxZf/IlH1+l5h/ZlfsvvP576K/oQ/4hRv2ef+hr+L3/AIOLL/5Eo/4hRv2ef+hr+L3/AIOLL/5Eo+v0vMP7Mr9l95/PfRX9CH/EKN+zz/0Nfxe/8HFl/wDIlH/EKN+zz/0Nfxe/8HFl/wDIlH1+l5h/ZlfsvvP576K/oQ/4hRv2ef8Aoa/i9/4OLL/5Eo/4hRv2ef8Aoa/i9/4OLL/5Eo+v0vMP7Mr9l95/PfRX9CH/ABCjfs8/9DX8Xv8AwcWX/wAiUf8AEKN+zz/0Nfxe/wDBxZf/ACJR9fpeYf2ZX7L7z+e+iv6EP+IUb9nn/oa/i9/4OLL/AORKP+IUb9nn/oa/i9/4OLL/AORKPr9LzD+zK/Zfefz30V/Qh/xCjfs8/wDQ1/F7/wAHFl/8iUf8Qo37PP8A0Nfxe/8ABxZf/IlH1+l5h/ZlfsvvP576K/oQ/wCIUb9nn/oa/i9/4OLL/wCRKP8AiFG/Z5/6Gv4vf+Diy/8AkSj6/S8w/syv2X3n899Ff0If8Qo37PP/AENfxe/8HFl/8iUf8Qo37PP/AENfxe/8HFl/8iUfX6XmH9mV+y+8/nvor+hD/iFG/Z5/6Gv4vf8Ag4sv/kSj/iFG/Z5/6Gv4vf8Ag4sv/kSj6/S8w/syv2X3n899Ff0If8Qo37PP/Q1/F7/wcWX/AMiUf8Qo37PP/Q1/F7/wcWX/AMiUfX6XmH9mV+y+8/nvor+hD/iFG/Z5/wChr+L3/g4sv/kSj/iFG/Z5/wChr+L3/g4sv/kSj6/S8w/syv2X3n899Ff0If8AEKN+zz/0Nfxe/wDBxZf/ACJR/wAQo37PP/Q1/F7/AMHFl/8AIlH1+l5h/ZlfsvvP576K/oQ/4hRv2ef+hr+L3/g4sv8A5Eo/4hRv2ef+hr+L3/g4sv8A5Eo+v0vMP7Mr9l95/PfQpw3+fav6EP8AiFG/Z5/6Gv4vf+Diy/8AkSgf8Go/7PKMGHiv4v5X/qMWWf8A0ko+v0vMP7Mr9l959Df8EKhj/gkz8D/+xfb/ANKZ6+thXnP7J37NOhfse/s6+Ffhp4ZuNUvNB8I2ZsrObUZUkupELs+XZURScueijjHXrXow6V41SSc213PoKUXGCi+iQUUUVBoFFFFABRRRQAUUUUAFFFFABRRRQAUUUUAFFFFABRRRQAUUUUAFFFFABRRRQAUUUUAFFFFABRRRQAUUUUAFFFFABRRRQAUUUUAFFFFABRRRQAUUUUAFFFFABRRRQAUUUUAFFFFABRRRQAUUUUAFFFFABRRRQAUUUUAFFFFABRRRQAUUUUAFFFFABRRRQAUUUUAFFFFABRRRQAUUUUAFFFFABRRRQAUUUUAFFFFABRRRQAUUUUAFFFFABRRRQAUUUUAFFFFABRRRQAUUUUAFFFFABRRRQAUUUUAFFFFABRRRQAUUUUAFFFFABRRRQAUUUUAFFFFABRRRQAUUUUAFFFFABRRRQAUUUUAFFFFABRRRQAUUUUAFFFFABRRRQAUUUUAFFFFABRRRQAUUUUAFFFFABRRRQAUUUUAFFFFABRRRQAUUUUAFFFFABRRRQAUUUUAFFFFABRRRQAUUUUAFFFFABRRRQAUUUUAFFFFABRRRQAUUUUAFFFFABRRRQAUUUUAFFFFABRRRQAUUUUAFFFFABRRRQAUUUUAFFFFABRRRQAUUUUAFFFFABRRRQAUUUUAFFFFABRRRQAUUUUAFFFFABRRRQAUUUUAFFFFABRRRQAUUUUAFFFFABRRRQAUUUUAFFFFABRRRQAUUUUAFFFFABRRRQAUUUUAFFFFABRRRQAUUUUAFFFFABRRRQAUUUUAFFFFABRRRQAUUUUAFFFFABRRRQAUUUUAFFFFABRRRQAUUUUAFFFFABRRRQAUUUUAFFFFABRRRQAUUUUAFFFFABRRRQAUUUUAFFFFABRRRQAUUUUAFFFFABRRRQAUUUUAFFFFABRRRQAUUUUAFFFFABRRRQAUUUUAFFFFABRRRQAUUUUAFFFFABRRRQAUUUUAFFFFABRRRQAUUUUAFFFFABRRRQAUUUUAFFFFABRRRQAUUUUAFFFFABRRRQAUUUUAFFFFABRRRQAUUUUAFFFFABRRRQAUUUUAFFFFABRRRQAUUUUAFFFFABRRRQAUUUUAFFFFABRRRQAUUUUAFFFFABRRRQAUUUUAFFFFABRRRQAUUUUAFFFFABRRRQAUUUUAFFFFABRRRQAUUUUAFFFFABRRRQAUUUUAFFFFABRRRQAUUUUAFFFFABRRRQAUUUUAFFFFABRRRQAUUUUAFFFFABRRRQAUUUUAFFFFABRRRQAUUUUAFFFFABRRRQAUUUUAFFFFABRRRQAUUUUAFFFFABRRRQAUUUUAFFFFABRRRQAUUUUAFFFFABRRRQAUUUUAFFFFABRRRQAUUUUAFFFFABRRRQAUUUUAFFFFABRRRQAUUUUAFFFFABRRRQAUUUUAFFFFABRRRQAUUUUAFFFFABRRRQAUUUUAFFFFABRRRQAUUUUAFFFFABRRRQAUUUUAFFFFABRRRQAUUUUAFFFFABRRRQAUUUUAFFFFABRRRQAUUUUAFFFFABRRRQAUUUUAFFFFABRRRQAUUUUAFFFFABRRRQAUUUUAFFFFABRRRQB//2Q==;" vertex="1" parent="1">
          <mxGeometry x="89.19" y="341" width="66.62" height="55.3" as="geometry" />
        </mxCell>
        <mxCell id="kSHrFHT4jz19YnqHGzNB-2089" value="Dispositivo de campo" style="text;html=1;strokeColor=none;fillColor=none;align=center;verticalAlign=middle;whiteSpace=wrap;overflow=hidden;dashed=1;fontSize=14;fontColor=#004C99" vertex="1" parent="1">
          <mxGeometry x="56.5" y="399" width="120" height="41" as="geometry" />
        </mxCell>
        <mxCell id="kSHrFHT4jz19YnqHGzNB-2091" value="" style="endArrow=classic;startArrow=classic;html=1;rounded=0;" edge="1" parent="1">
          <mxGeometry width="50" height="50" relative="1" as="geometry">
            <mxPoint x="123" y="670" as="sourcePoint" />
            <mxPoint x="123" y="450" as="targetPoint" />
          </mxGeometry>
        </mxCell>
      </root>
    </mxGraphModel>
  </diagram>
</mxfile>
